<?xml version="1.0" encoding="UTF-8"?>
<svg id="Layer_2" data-name="Layer 2" xmlns="http://www.w3.org/2000/svg" viewBox="0 0 241.49 334.37">
  <defs>
    <style>
      .cls-1 {
        fill: #af0c0f;
      }

      .cls-2 {
        fill: #f2f2f2;
      }

      .cls-3 {
        fill: #dadada;
      }
    </style>
  </defs>
  <g id="_Layer_" data-name="&amp;lt;Layer&amp;gt;">
    <g>
      <path class="cls-2" d="M232.2,0H4.64v4.64H0v325.08h236.84V0h-4.64Z"/>
      <g>
        <polygon class="cls-3" points="227.56 329.72 222.91 329.72 218.27 329.72 213.62 329.72 208.98 329.72 204.34 329.72 199.69 329.72 195.05 329.72 190.4 329.72 185.76 329.72 181.12 329.72 176.47 329.72 171.83 329.72 167.18 329.72 162.54 329.72 157.9 329.72 153.25 329.72 148.61 329.72 143.96 329.72 139.32 329.72 134.68 329.72 130.03 329.72 125.39 329.72 120.74 329.72 116.1 329.72 111.46 329.72 106.81 329.72 102.17 329.72 97.52 329.72 92.88 329.72 88.24 329.72 83.59 329.72 78.95 329.72 74.3 329.72 69.66 329.72 65.02 329.72 60.37 329.72 55.73 329.72 51.08 329.72 46.44 329.72 41.8 329.72 37.15 329.72 32.51 329.72 27.86 329.72 23.22 329.72 18.58 329.72 13.93 329.72 9.29 329.72 4.64 329.72 4.64 334.37 9.29 334.37 13.93 334.37 18.58 334.37 23.22 334.37 27.86 334.37 32.51 334.37 37.15 334.37 41.8 334.37 46.44 334.37 51.08 334.37 55.73 334.37 60.37 334.37 65.02 334.37 69.66 334.37 74.3 334.37 78.95 334.37 83.59 334.37 88.24 334.37 92.88 334.37 97.52 334.37 102.17 334.37 106.81 334.37 111.46 334.37 116.1 334.37 120.74 334.37 125.39 334.37 130.03 334.37 134.68 334.37 139.32 334.37 143.96 334.37 148.61 334.37 153.25 334.37 157.9 334.37 162.54 334.37 167.18 334.37 171.83 334.37 176.47 334.37 181.12 334.37 185.76 334.37 190.4 334.37 195.05 334.37 199.69 334.37 204.34 334.37 208.98 334.37 213.62 334.37 218.27 334.37 222.91 334.37 227.56 334.37 232.2 334.37 236.84 334.37 236.84 329.72 232.2 329.72 227.56 329.72"/>
        <polygon class="cls-3" points="236.84 4.64 236.84 9.29 236.84 13.93 236.84 18.58 236.84 23.22 236.84 27.86 236.84 32.51 236.84 37.15 236.84 41.8 236.84 46.44 236.84 51.08 236.84 55.73 236.84 60.37 236.84 65.02 236.84 69.66 236.84 74.3 236.84 78.95 236.84 83.59 236.84 88.24 236.84 92.88 236.84 97.52 236.84 102.17 236.84 106.81 236.84 111.46 236.84 116.1 236.84 120.74 236.84 125.39 236.84 130.03 236.84 134.68 236.84 139.32 236.84 143.96 236.84 148.61 236.84 153.25 236.84 157.9 236.84 162.54 236.84 167.18 236.84 171.83 236.84 176.47 236.84 181.12 236.84 185.76 236.84 190.4 236.84 195.05 236.84 199.69 236.84 204.34 236.84 208.98 236.84 213.62 236.84 218.27 236.84 222.91 236.84 227.56 236.84 232.2 236.84 236.84 236.84 241.49 236.84 246.13 236.84 250.78 236.84 255.42 236.84 260.06 236.84 264.71 236.84 269.35 236.84 274 236.84 278.64 236.84 283.28 236.84 287.93 236.84 292.57 236.84 297.22 236.84 301.86 236.84 306.5 236.84 311.15 236.84 315.79 236.84 320.44 236.84 325.08 236.84 329.72 241.49 329.72 241.49 325.08 241.49 320.44 241.49 315.79 241.49 311.15 241.49 306.5 241.49 301.86 241.49 297.22 241.49 292.57 241.49 287.93 241.49 283.28 241.49 278.64 241.49 274 241.49 269.35 241.49 264.71 241.49 260.06 241.49 255.42 241.49 250.78 241.49 246.13 241.49 241.49 241.49 236.84 241.49 232.2 241.49 227.56 241.49 222.91 241.49 218.27 241.49 213.62 241.49 208.98 241.49 204.34 241.49 199.69 241.49 195.05 241.49 190.4 241.49 185.76 241.49 181.12 241.49 176.47 241.49 171.83 241.49 167.18 241.49 162.54 241.49 157.9 241.49 153.25 241.49 148.61 241.49 143.96 241.49 139.32 241.49 134.68 241.49 130.03 241.49 125.39 241.49 120.74 241.49 116.1 241.49 111.46 241.49 106.81 241.49 102.17 241.49 97.52 241.49 92.88 241.49 88.24 241.49 83.59 241.49 78.95 241.49 74.3 241.49 69.66 241.49 65.02 241.49 60.37 241.49 55.73 241.49 51.08 241.49 46.44 241.49 41.8 241.49 37.15 241.49 32.51 241.49 27.86 241.49 23.22 241.49 18.58 241.49 13.93 241.49 9.29 241.49 4.64 236.84 4.64"/>
      </g>
      <g>
        <rect class="cls-1" x="36.15" y="23.91" width="4.64" height="4.64"/>
        <rect class="cls-1" x="31.5" y="28.55" width="4.64" height="4.64"/>
        <rect class="cls-1" x="26.86" y="33.2" width="4.64" height="4.64"/>
        <rect class="cls-1" x="22.21" y="37.84" width="4.64" height="4.64"/>
        <rect class="cls-1" x="17.57" y="42.48" width="4.64" height="4.64"/>
        <polygon class="cls-1" points="101.16 107.5 105.81 107.5 110.45 107.5 110.45 112.14 115.09 112.14 115.09 116.79 115.09 121.43 119.74 121.43 124.38 121.43 124.38 116.79 124.38 112.14 129.03 112.14 129.03 107.5 133.67 107.5 138.31 107.5 138.31 102.85 133.67 102.85 129.03 102.85 129.03 98.21 124.38 98.21 124.38 93.57 124.38 88.92 119.74 88.92 115.09 88.92 115.09 93.57 115.09 98.21 110.45 98.21 110.45 102.85 105.81 102.85 101.16 102.85 101.16 107.5"/>
        <path class="cls-1" d="M91.87,79.64h-4.64v4.64h-4.64v9.29h-4.64v4.64h-4.64v13.93h4.64v4.64h4.64v9.29h4.64v4.64h4.64v4.64h4.64v4.64h4.64v4.64h13.93v4.64h9.29v-4.64h13.93v-4.64h4.64v-4.64h4.64v-4.64h4.64v-4.64h4.64v-9.29h4.64v-4.64h4.64v-13.93h-4.64v-4.64h-4.64v-9.29h-4.64v-4.64h-4.64v-4.64h-4.64v-4.64h-4.64v-4.64h-13.93v-4.64h-9.29v4.64h-13.93v4.64h-4.64v4.64h-4.64v4.64ZM105.81,84.28h9.29v-4.64h9.29v4.64h9.29v4.64h4.64v4.64h4.64v9.29h4.64v4.64h-4.64v9.29h-4.64v4.64h-4.64v4.64h-9.29v4.64h-9.29v-4.64h-9.29v-4.64h-4.64v-4.64h-4.64v-9.29h-4.64v-4.64h4.64v-9.29h4.64v-4.64h4.64v-4.64Z"/>
        <polygon class="cls-1" points="22.21 37.84 22.21 33.2 22.21 28.55 17.57 28.55 17.57 33.2 12.93 33.2 12.93 37.84 17.57 37.84 22.21 37.84"/>
        <polygon class="cls-1" points="31.5 28.55 31.5 23.91 31.5 19.26 26.86 19.26 26.86 23.91 22.21 23.91 22.21 28.55 26.86 28.55 31.5 28.55"/>
        <polygon class="cls-1" points="40.79 19.26 45.43 19.26 50.08 19.26 54.72 19.26 59.37 19.26 64.01 19.26 68.65 19.26 73.3 19.26 77.94 19.26 82.59 19.26 87.23 19.26 91.87 19.26 96.52 19.26 101.16 19.26 105.81 19.26 110.45 19.26 115.09 19.26 119.74 19.26 124.38 19.26 129.03 19.26 133.67 19.26 138.31 19.26 142.96 19.26 147.6 19.26 152.25 19.26 156.89 19.26 161.53 19.26 166.18 19.26 170.82 19.26 175.47 19.26 180.11 19.26 184.75 19.26 189.4 19.26 194.04 19.26 198.69 19.26 203.33 19.26 207.97 19.26 207.97 14.62 203.33 14.62 198.69 14.62 194.04 14.62 189.4 14.62 184.75 14.62 180.11 14.62 175.47 14.62 170.82 14.62 166.18 14.62 161.53 14.62 156.89 14.62 152.25 14.62 147.6 14.62 142.96 14.62 138.31 14.62 133.67 14.62 129.03 14.62 124.38 14.62 119.74 14.62 115.09 14.62 110.45 14.62 105.81 14.62 101.16 14.62 96.52 14.62 91.87 14.62 87.23 14.62 82.59 14.62 77.94 14.62 73.3 14.62 68.65 14.62 64.01 14.62 59.37 14.62 54.72 14.62 50.08 14.62 45.43 14.62 40.79 14.62 36.15 14.62 31.5 14.62 31.5 19.26 36.15 19.26 40.79 19.26"/>
        <polygon class="cls-1" points="226.55 47.13 226.55 51.77 226.55 56.42 226.55 61.06 226.55 65.7 226.55 70.35 226.55 74.99 226.55 79.64 226.55 84.28 226.55 88.92 226.55 93.57 226.55 98.21 226.55 102.85 226.55 107.5 226.55 112.14 226.55 116.79 226.55 121.43 226.55 126.07 226.55 130.72 226.55 135.36 226.55 140.01 226.55 144.65 226.55 149.29 226.55 153.94 226.55 158.58 226.55 163.23 226.55 167.87 226.55 172.52 226.55 177.16 226.55 181.8 226.55 186.45 226.55 191.09 226.55 195.74 226.55 200.38 226.55 205.02 226.55 209.67 226.55 214.31 226.55 218.95 226.55 223.6 226.55 228.24 226.55 232.89 226.55 237.53 226.55 242.17 226.55 246.82 226.55 251.46 226.55 256.11 226.55 260.75 226.55 265.4 226.55 270.04 226.55 274.68 226.55 279.33 226.55 283.97 226.55 288.61 226.55 293.26 226.55 297.9 231.19 297.9 231.19 293.26 231.19 288.61 231.19 283.97 231.19 279.33 231.19 274.68 231.19 270.04 231.19 265.4 231.19 260.75 231.19 256.11 231.19 251.46 231.19 246.82 231.19 242.17 231.19 237.53 231.19 232.89 231.19 228.24 231.19 223.6 231.19 218.95 231.19 214.31 231.19 209.67 231.19 205.02 231.19 200.38 231.19 195.74 231.19 191.09 231.19 186.45 231.19 181.8 231.19 177.16 231.19 172.52 231.19 167.87 231.19 163.23 231.19 158.58 231.19 153.94 231.19 149.29 231.19 144.65 231.19 140.01 231.19 135.36 231.19 130.72 231.19 126.07 231.19 121.43 231.19 116.79 231.19 112.14 231.19 107.5 231.19 102.85 231.19 98.21 231.19 93.57 231.19 88.92 231.19 84.28 231.19 79.64 231.19 74.99 231.19 70.35 231.19 65.7 231.19 61.06 231.19 56.42 231.19 51.77 231.19 47.13 231.19 42.48 231.19 37.84 226.55 37.84 226.55 42.48 226.55 47.13"/>
        <rect class="cls-1" x="217.26" y="42.48" width="4.64" height="4.64"/>
        <polygon class="cls-1" points="217.26 37.84 221.91 37.84 226.55 37.84 226.55 33.2 221.91 33.2 221.91 28.55 217.26 28.55 217.26 33.2 217.26 37.84"/>
        <rect class="cls-1" x="212.62" y="37.84" width="4.64" height="4.64"/>
        <rect class="cls-1" x="207.97" y="33.2" width="4.64" height="4.64"/>
        <polygon class="cls-1" points="207.97 28.55 212.62 28.55 217.26 28.55 217.26 23.91 212.62 23.91 212.62 19.26 207.97 19.26 207.97 23.91 207.97 28.55"/>
        <rect class="cls-1" x="203.33" y="28.55" width="4.64" height="4.64"/>
        <rect class="cls-1" x="198.69" y="23.91" width="4.64" height="4.64"/>
        <rect class="cls-1" x="36.15" y="307.19" width="4.64" height="4.64"/>
        <rect class="cls-1" x="31.5" y="302.55" width="4.64" height="4.64"/>
        <rect class="cls-1" x="26.86" y="297.9" width="4.64" height="4.64"/>
        <rect class="cls-1" x="22.21" y="293.26" width="4.64" height="4.64"/>
        <rect class="cls-1" x="17.57" y="288.61" width="4.64" height="4.64"/>
        <polygon class="cls-1" points="12.93 288.61 12.93 283.97 12.93 279.33 12.93 274.68 12.93 270.04 12.93 265.4 12.93 260.75 12.93 256.11 12.93 251.46 12.93 246.82 12.93 242.17 12.93 237.53 12.93 232.89 12.93 228.24 12.93 223.6 12.93 218.95 12.93 214.31 12.93 209.67 12.93 205.02 12.93 200.38 12.93 195.74 12.93 191.09 12.93 186.45 12.93 181.8 12.93 177.16 12.93 172.52 12.93 167.87 12.93 163.23 12.93 158.58 12.93 153.94 12.93 149.29 12.93 144.65 12.93 140.01 12.93 135.36 12.93 130.72 12.93 126.07 12.93 121.43 12.93 116.79 12.93 112.14 12.93 107.5 12.93 102.85 12.93 98.21 12.93 93.57 12.93 88.92 12.93 84.28 12.93 79.64 12.93 74.99 12.93 70.35 12.93 65.7 12.93 61.06 12.93 56.42 12.93 51.77 12.93 47.13 12.93 42.48 12.93 37.84 8.28 37.84 8.28 42.48 8.28 47.13 8.28 51.77 8.28 56.42 8.28 61.06 8.28 65.7 8.28 70.35 8.28 74.99 8.28 79.64 8.28 84.28 8.28 88.92 8.28 93.57 8.28 98.21 8.28 102.85 8.28 107.5 8.28 112.14 8.28 116.79 8.28 121.43 8.28 126.07 8.28 130.72 8.28 135.36 8.28 140.01 8.28 144.65 8.28 149.29 8.28 153.94 8.28 158.58 8.28 163.23 8.28 167.87 8.28 172.52 8.28 177.16 8.28 181.8 8.28 186.45 8.28 191.09 8.28 195.74 8.28 200.38 8.28 205.02 8.28 209.67 8.28 214.31 8.28 218.95 8.28 223.6 8.28 228.24 8.28 232.89 8.28 237.53 8.28 242.17 8.28 246.82 8.28 251.46 8.28 256.11 8.28 260.75 8.28 265.4 8.28 270.04 8.28 274.68 8.28 279.33 8.28 283.97 8.28 288.61 8.28 293.26 8.28 297.9 12.93 297.9 12.93 293.26 12.93 288.61"/>
        <polygon class="cls-1" points="22.21 297.9 17.57 297.9 12.93 297.9 12.93 302.55 17.57 302.55 17.57 307.19 22.21 307.19 22.21 302.55 22.21 297.9"/>
        <polygon class="cls-1" points="31.5 307.19 26.86 307.19 22.21 307.19 22.21 311.83 26.86 311.83 26.86 316.48 31.5 316.48 31.5 311.83 31.5 307.19"/>
        <rect class="cls-1" x="217.26" y="288.61" width="4.64" height="4.64"/>
        <polygon class="cls-1" points="221.91 302.55 226.55 302.55 226.55 297.9 221.91 297.9 217.26 297.9 217.26 302.55 217.26 307.19 221.91 307.19 221.91 302.55"/>
        <rect class="cls-1" x="212.62" y="293.26" width="4.64" height="4.64"/>
        <rect class="cls-1" x="207.97" y="297.9" width="4.64" height="4.64"/>
        <polygon class="cls-1" points="207.97 307.19 207.97 311.83 207.97 316.48 212.62 316.48 212.62 311.83 217.26 311.83 217.26 307.19 212.62 307.19 207.97 307.19"/>
        <rect class="cls-1" x="203.33" y="302.55" width="4.64" height="4.64"/>
        <rect class="cls-1" x="198.69" y="307.19" width="4.64" height="4.64"/>
        <polygon class="cls-1" points="198.69 316.48 194.04 316.48 189.4 316.48 184.75 316.48 180.11 316.48 175.47 316.48 170.82 316.48 166.18 316.48 161.53 316.48 156.89 316.48 152.25 316.48 147.6 316.48 142.96 316.48 138.31 316.48 133.67 316.48 129.03 316.48 124.38 316.48 119.74 316.48 115.09 316.48 110.45 316.48 105.81 316.48 101.16 316.48 96.52 316.48 91.87 316.48 87.23 316.48 82.59 316.48 77.94 316.48 73.3 316.48 68.65 316.48 64.01 316.48 59.37 316.48 54.72 316.48 50.08 316.48 45.43 316.48 40.79 316.48 36.15 316.48 31.5 316.48 31.5 321.12 36.15 321.12 40.79 321.12 45.43 321.12 50.08 321.12 54.72 321.12 59.37 321.12 64.01 321.12 68.65 321.12 73.3 321.12 77.94 321.12 82.59 321.12 87.23 321.12 91.87 321.12 96.52 321.12 101.16 321.12 105.81 321.12 110.45 321.12 115.09 321.12 119.74 321.12 124.38 321.12 129.03 321.12 133.67 321.12 138.31 321.12 142.96 321.12 147.6 321.12 152.25 321.12 156.89 321.12 161.53 321.12 166.18 321.12 170.82 321.12 175.47 321.12 180.11 321.12 184.75 321.12 189.4 321.12 194.04 321.12 198.69 321.12 203.33 321.12 207.97 321.12 207.97 316.48 203.33 316.48 198.69 316.48"/>
        <path class="cls-1" d="M198.69,297.9h4.64v-4.64h4.64v-4.64h4.64v-4.64h4.64V51.77h-4.64v-4.64h-4.64v-4.64h-4.64v-4.64h-4.64v-4.64h-4.64v-4.64H45.43v4.64h-4.64v4.64h-4.64v4.64h-4.64v4.64h-4.64v4.64h-4.64v232.2h4.64v4.64h4.64v4.64h4.64v4.64h4.64v4.64h4.64v4.64h148.61v-4.64h4.64v-4.64ZM189.4,297.9h-4.64v-4.64h4.64v-4.64h4.64v-4.64h4.64v-4.64h4.64v4.64h-4.64v4.64h-4.64v4.64h-4.64v4.64ZM54.72,297.9h-4.64v-4.64h-4.64v-4.64h-4.64v-4.64h-4.64v-4.64h4.64v4.64h4.64v4.64h4.64v4.64h4.64v4.64ZM36.15,256.11v-4.64h9.29v9.29h-9.29v-4.64ZM36.15,228.24v-4.64h9.29v9.29h-9.29v-4.64ZM36.15,200.38v-4.64h9.29v9.29h-9.29v-4.64ZM36.15,172.52v-13.93h9.29v18.58h-9.29v-4.64ZM36.15,135.36v-4.64h9.29v9.29h-9.29v-4.64ZM36.15,107.5v-4.64h9.29v9.29h-9.29v-4.64ZM36.15,79.64v-4.64h9.29v9.29h-9.29v-4.64ZM36.15,51.77h4.64v-4.64h4.64v-4.64h4.64v-4.64h4.64v4.64h-4.64v4.64h-4.64v4.64h-4.64v4.64h-4.64v-4.64ZM184.75,37.84h4.64v4.64h4.64v4.64h4.64v4.64h4.64v4.64h-4.64v-4.64h-4.64v-4.64h-4.64v-4.64h-4.64v-4.64ZM203.33,79.64v4.64h-9.29v-9.29h9.29v4.64ZM203.33,107.5v4.64h-9.29v-9.29h9.29v4.64ZM203.33,135.36v4.64h-9.29v-9.29h9.29v4.64ZM203.33,163.23v13.93h-9.29v-18.58h9.29v4.64ZM203.33,200.38v4.64h-9.29v-9.29h9.29v4.64ZM203.33,228.24v4.64h-9.29v-9.29h9.29v4.64ZM203.33,256.11v4.64h-9.29v-9.29h9.29v4.64ZM194.04,279.33h-4.64v4.64h-4.64v4.64h-4.64v-4.64h4.64v-4.64h4.64v-4.64h4.64v4.64ZM59.37,288.61h-4.64v-4.64h-4.64v-4.64h-4.64v-4.64h4.64v4.64h4.64v4.64h4.64v4.64ZM45.43,56.42h4.64v-4.64h4.64v-4.64h4.64v4.64h-4.64v4.64h-4.64v4.64h-4.64v-4.64ZM180.11,47.13h4.64v4.64h4.64v4.64h4.64v4.64h-4.64v-4.64h-4.64v-4.64h-4.64v-4.64ZM142.96,270.04v4.64h-13.93v4.64h-18.58v-4.64h-13.93v-4.64h-4.64v-4.64h-4.64v-4.64h-4.64v-4.64h-4.64v-9.29h-4.64v-4.64h-4.64v-23.22h4.64v-4.64h4.64v-9.29h4.64v-4.64h4.64v-4.64h4.64v-4.64h4.64v-4.64h13.93v-4.64h18.58v4.64h13.93v4.64h4.64v4.64h4.64v4.64h4.64v4.64h4.64v9.29h4.64v4.64h4.64v23.22h-4.64v4.64h-4.64v9.29h-4.64v4.64h-4.64v4.64h-4.64v4.64h-4.64ZM54.72,237.53h4.64v4.64h-4.64v-4.64ZM54.72,228.24h4.64v4.64h-4.64v-4.64ZM54.72,209.67h4.64v4.64h-4.64v-4.64ZM54.72,112.14h4.64v4.64h-4.64v-4.64ZM54.72,84.28h4.64v4.64h-4.64v-4.64ZM96.52,65.7v-4.64h13.93v-4.64h18.58v4.64h13.93v4.64h4.64v4.64h4.64v4.64h4.64v4.64h4.64v9.29h4.64v4.64h4.64v23.22h-4.64v4.64h-4.64v9.29h-4.64v4.64h-4.64v4.64h-4.64v4.64h-4.64v4.64h-13.93v4.64h-18.58v-4.64h-13.93v-4.64h-4.64v-4.64h-4.64v-4.64h-4.64v-4.64h-4.64v-9.29h-4.64v-4.64h-4.64v-23.22h4.64v-4.64h4.64v-9.29h4.64v-4.64h4.64v-4.64h4.64v-4.64h4.64ZM184.75,98.21h-4.64v-4.64h4.64v4.64ZM184.75,107.5h-4.64v-4.64h4.64v4.64ZM184.75,126.07h-4.64v-4.64h4.64v4.64ZM184.75,223.6h-4.64v-4.64h4.64v4.64ZM184.75,251.46h-4.64v-4.64h4.64v4.64ZM152.25,191.09v-4.64h4.64v4.64h4.64v4.64h-4.64v-4.64h-4.64ZM87.23,191.09h-4.64v4.64h-4.64v-4.64h4.64v-4.64h4.64v4.64ZM59.37,186.45h4.64v-9.29h4.64v9.29h4.64v4.64h-4.64v9.29h-4.64v-9.29h-4.64v-4.64ZM59.37,144.65h4.64v-9.29h4.64v9.29h4.64v4.64h-4.64v9.29h-4.64v-9.29h-4.64v-4.64ZM87.23,144.65v4.64h-4.64v-4.64h-4.64v-4.64h4.64v4.64h4.64ZM152.25,144.65h4.64v-4.64h4.64v4.64h-4.64v4.64h-4.64v-4.64ZM180.11,149.29h-4.64v9.29h-4.64v-9.29h-4.64v-4.64h4.64v-9.29h4.64v9.29h4.64v4.64ZM180.11,191.09h-4.64v9.29h-4.64v-9.29h-4.64v-4.64h4.64v-9.29h4.64v9.29h4.64v4.64ZM68.65,167.87v-4.64h4.64v9.29h-4.64v-4.64ZM91.87,167.87v4.64h-4.64v-9.29h4.64v4.64ZM77.94,172.52v-9.29h4.64v9.29h-4.64ZM96.52,172.52v-9.29h4.64v9.29h-4.64ZM105.81,167.87v-4.64h4.64v9.29h-4.64v-4.64ZM115.09,167.87v-4.64h9.29v9.29h-9.29v-4.64ZM129.03,167.87v-4.64h4.64v9.29h-4.64v-4.64ZM170.82,167.87v4.64h-4.64v-9.29h4.64v4.64ZM147.6,167.87v-4.64h4.64v9.29h-4.64v-4.64ZM161.53,163.23v9.29h-4.64v-9.29h4.64ZM142.96,163.23v9.29h-4.64v-9.29h4.64ZM180.11,242.17v-4.64h4.64v4.64h-4.64ZM184.75,232.89h-4.64v-4.64h4.64v4.64ZM180.11,214.31v-4.64h4.64v4.64h-4.64ZM184.75,116.79h-4.64v-4.64h4.64v4.64ZM184.75,88.92h-4.64v-4.64h4.64v4.64ZM59.37,93.57v4.64h-4.64v-4.64h4.64ZM54.72,102.85h4.64v4.64h-4.64v-4.64ZM59.37,121.43v4.64h-4.64v-4.64h4.64ZM54.72,218.95h4.64v4.64h-4.64v-4.64ZM54.72,246.82h4.64v4.64h-4.64v-4.64ZM175.47,56.42v4.64h4.64v4.64h-4.64v9.29h-4.64v-9.29h-4.64v-4.64h4.64v-9.29h4.64v4.64ZM156.89,56.42v4.64h-4.64v-4.64h-4.64v-4.64h4.64v4.64h4.64ZM91.87,56.42h-4.64v4.64h-4.64v-4.64h4.64v-4.64h4.64v4.64ZM68.65,56.42v4.64h4.64v4.64h-4.64v9.29h-4.64v-9.29h-4.64v-4.64h4.64v-9.29h4.64v4.64ZM64.01,279.33v-4.64h-4.64v-4.64h4.64v-9.29h4.64v9.29h4.64v4.64h-4.64v9.29h-4.64v-4.64ZM82.59,279.33v-4.64h4.64v4.64h4.64v4.64h-4.64v-4.64h-4.64ZM147.6,279.33h4.64v-4.64h4.64v4.64h-4.64v4.64h-4.64v-4.64ZM170.82,279.33v-4.64h-4.64v-4.64h4.64v-9.29h4.64v9.29h4.64v4.64h-4.64v9.29h-4.64v-4.64ZM175.47,47.13h-4.64v-4.64h4.64v4.64ZM166.18,47.13h-4.64v-4.64h4.64v4.64ZM156.89,47.13h-4.64v-4.64h4.64v4.64ZM147.6,47.13h-4.64v-4.64h4.64v4.64ZM138.31,47.13h-4.64v-4.64h4.64v4.64ZM129.03,47.13h-4.64v-4.64h4.64v4.64ZM115.09,47.13h-4.64v-4.64h4.64v4.64ZM105.81,47.13h-4.64v-4.64h4.64v4.64ZM96.52,47.13h-4.64v-4.64h4.64v4.64ZM87.23,47.13h-4.64v-4.64h4.64v4.64ZM77.94,47.13h-4.64v-4.64h4.64v4.64ZM68.65,47.13h-4.64v-4.64h4.64v4.64ZM64.01,288.61h4.64v4.64h-4.64v-4.64ZM73.3,288.61h4.64v4.64h-4.64v-4.64ZM82.59,288.61h4.64v4.64h-4.64v-4.64ZM91.87,288.61h4.64v4.64h-4.64v-4.64ZM101.16,288.61h4.64v4.64h-4.64v-4.64ZM110.45,288.61h4.64v4.64h-4.64v-4.64ZM124.38,288.61h4.64v4.64h-4.64v-4.64ZM133.67,288.61h4.64v4.64h-4.64v-4.64ZM142.96,288.61h4.64v4.64h-4.64v-4.64ZM152.25,288.61h4.64v4.64h-4.64v-4.64ZM161.53,288.61h4.64v4.64h-4.64v-4.64ZM170.82,288.61h4.64v4.64h-4.64v-4.64ZM212.62,270.04v4.64h-9.29v-9.29h9.29v4.64ZM212.62,242.17v4.64h-9.29v-9.29h9.29v4.64ZM212.62,214.31v4.64h-9.29v-9.29h9.29v4.64ZM212.62,186.45v4.64h-9.29v-9.29h9.29v4.64ZM212.62,149.29v4.64h-9.29v-9.29h9.29v4.64ZM212.62,121.43v4.64h-9.29v-9.29h9.29v4.64ZM212.62,93.57v4.64h-9.29v-9.29h9.29v4.64ZM212.62,65.7v4.64h-9.29v-9.29h9.29v4.64ZM180.11,33.2v4.64h-4.64v-4.64h4.64ZM170.82,33.2v4.64h-4.64v-4.64h4.64ZM161.53,33.2v4.64h-4.64v-4.64h4.64ZM152.25,33.2v4.64h-4.64v-4.64h4.64ZM142.96,33.2v4.64h-4.64v-4.64h4.64ZM133.67,33.2v4.64h-4.64v-4.64h4.64ZM119.74,33.2h4.64v4.64h-9.29v-4.64h4.64ZM110.45,33.2v4.64h-4.64v-4.64h4.64ZM101.16,33.2v4.64h-4.64v-4.64h4.64ZM91.87,33.2v4.64h-4.64v-4.64h4.64ZM82.59,33.2v4.64h-4.64v-4.64h4.64ZM73.3,33.2v4.64h-4.64v-4.64h4.64ZM64.01,33.2v4.64h-4.64v-4.64h4.64ZM26.86,65.7v-4.64h9.29v9.29h-9.29v-4.64ZM26.86,93.57v-4.64h9.29v9.29h-9.29v-4.64ZM26.86,121.43v-4.64h9.29v9.29h-9.29v-4.64ZM26.86,149.29v-4.64h9.29v9.29h-9.29v-4.64ZM26.86,186.45v-4.64h9.29v9.29h-9.29v-4.64ZM26.86,214.31v-4.64h9.29v9.29h-9.29v-4.64ZM26.86,242.17v-4.64h9.29v9.29h-9.29v-4.64ZM26.86,270.04v-4.64h9.29v9.29h-9.29v-4.64ZM59.37,302.55v-4.64h4.64v4.64h-4.64ZM68.65,302.55v-4.64h4.64v4.64h-4.64ZM77.94,302.55v-4.64h4.64v4.64h-4.64ZM87.23,302.55v-4.64h4.64v4.64h-4.64ZM96.52,302.55v-4.64h4.64v4.64h-4.64ZM105.81,302.55v-4.64h4.64v4.64h-4.64ZM119.74,302.55h-4.64v-4.64h9.29v4.64h-4.64ZM129.03,302.55v-4.64h4.64v4.64h-4.64ZM138.31,302.55v-4.64h4.64v4.64h-4.64ZM147.6,302.55v-4.64h4.64v4.64h-4.64ZM156.89,302.55v-4.64h4.64v4.64h-4.64ZM166.18,302.55v-4.64h4.64v4.64h-4.64ZM175.47,302.55v-4.64h4.64v4.64h-4.64Z"/>
        <path class="cls-1" d="M147.6,256.11h4.64v-4.64h4.64v-9.29h4.64v-4.64h4.64v-13.93h-4.64v-4.64h-4.64v-9.29h-4.64v-4.64h-4.64v-4.64h-4.64v-4.64h-4.64v-4.64h-13.93v-4.64h-9.29v4.64h-13.93v4.64h-4.64v4.64h-4.64v4.64h-4.64v4.64h-4.64v9.29h-4.64v4.64h-4.64v13.93h4.64v4.64h4.64v9.29h4.64v4.64h4.64v4.64h4.64v4.64h4.64v4.64h13.93v4.64h9.29v-4.64h13.93v-4.64h4.64v-4.64h4.64v-4.64ZM133.67,251.46h-9.29v4.64h-9.29v-4.64h-9.29v-4.64h-4.64v-4.64h-4.64v-9.29h-4.64v-4.64h4.64v-9.29h4.64v-4.64h4.64v-4.64h9.29v-4.64h9.29v4.64h9.29v4.64h4.64v4.64h4.64v9.29h4.64v4.64h-4.64v9.29h-4.64v4.64h-4.64v4.64Z"/>
        <polygon class="cls-1" points="138.31 228.24 133.67 228.24 129.03 228.24 129.03 223.6 124.38 223.6 124.38 218.95 124.38 214.31 119.74 214.31 115.09 214.31 115.09 218.95 115.09 223.6 110.45 223.6 110.45 228.24 105.81 228.24 101.16 228.24 101.16 232.89 105.81 232.89 110.45 232.89 110.45 237.53 115.09 237.53 115.09 242.17 115.09 246.82 119.74 246.82 124.38 246.82 124.38 242.17 124.38 237.53 129.03 237.53 129.03 232.89 133.67 232.89 138.31 232.89 138.31 228.24"/>
        <polygon class="cls-1" points="22.21 19.26 22.21 14.62 17.57 14.62 12.93 14.62 12.93 19.26 17.57 19.26 22.21 19.26"/>
        <polygon class="cls-1" points="12.93 23.91 12.93 19.26 8.28 19.26 8.28 23.91 8.28 28.55 12.93 28.55 12.93 23.91"/>
        <polygon class="cls-1" points="222.54 14.62 217.89 14.62 217.89 19.26 222.54 19.26 227.18 19.26 227.18 14.62 222.54 14.62"/>
        <polygon class="cls-1" points="227.18 19.26 227.18 23.91 227.18 28.55 231.82 28.55 231.82 23.91 231.82 19.26 227.18 19.26"/>
        <polygon class="cls-1" points="12.93 316.19 12.93 320.83 17.57 320.83 22.21 320.83 22.21 316.19 17.57 316.19 12.93 316.19"/>
        <polygon class="cls-1" points="12.93 306.9 8.28 306.9 8.28 311.55 8.28 316.19 12.93 316.19 12.93 311.55 12.93 306.9"/>
        <polygon class="cls-1" points="217.89 316.19 217.89 320.83 222.54 320.83 227.18 320.83 227.18 316.19 222.54 316.19 217.89 316.19"/>
        <polygon class="cls-1" points="227.18 311.55 227.18 316.19 231.82 316.19 231.82 311.55 231.82 306.9 227.18 306.9 227.18 311.55"/>
      </g>
    </g>
  </g>
</svg>