<?xml version="1.0" encoding="UTF-8"?>
<svg id="Layer_2" data-name="Layer 2" xmlns="http://www.w3.org/2000/svg" viewBox="0 0 672.23 1601.35">
  <defs>
    <style>
      .cls-1 {
        fill: #813a00;
      }

      .cls-2 {
        fill: #b1b1b1;
      }

      .cls-3 {
        fill: #e99c5d;
      }

      .cls-4 {
        fill: #efefef;
      }

      .cls-5 {
        fill: #595959;
      }

      .cls-6 {
        fill: #fecea7;
      }
    </style>
  </defs>
  <g id="_Layer_" data-name="&amp;lt;Layer&amp;gt;">
    <g>
      <path class="cls-5" d="M672.23,683.61v531.7c-2.84,1.5-5.68,3-8.51,4.53-42.28,8.15-84.26,8.79-125.85-1.67-6.05-3.2-10.45-7-13.39-11.37-14.64-43.9-6.1-88.25-6.91-132.38-1.51-82.18-.21-164.37-.62-246.55-.08-16.25,3.62-32.99-12.67-48.71-31.55-12.07-68.67-5.89-103.43-8.4-75.12,3.87-151.31-3.73-224.11,5.03-27.25,19.29-19.62,40.2-19.66,59.83-.58,230.84-.15,461.69-.67,692.53-.05,22.4,2.29,52.54-21.2,73.2H0l.96-82.21v-835.53c41.55-17.7,89.54-10.07,135.34-11.08,88.08-1.12,176.16-1.31,264.23.02,45.78-.77,91.56-.97,137.33.03,45.51.89,93.16-6.53,134.36,11.04h0Z"/>
      <path class="cls-1" d="M672.23,683.61h-134.25c-21.34-13.4-21.25-30.07-21.31-46.48-.58-171.67-.57-343.34-.01-515,.04-13.86.04-27.87,12.24-40.63,2.99-1.86,6.03-3.7,9.08-5.55h127.13c1.61.84,3.52,1.56,4.76,2.55,1.16.92,2.27,2.13,2.27,3.22.09,200.63.09,401.26.09,601.89h0Z"/>
      <path class="cls-1" d="M135.21,683.61H.96v-303.83c3.22-1.65,6.44-3.3,9.63-4.98,132.61-9.29,265.16-15.45,397.04,3.63,25.86,26.51,20.54,52.59,1.26,77.31-45,15.7-89.76,11.94-133.71,11.19-34.8,1.89-71.02-2.81-112.02,8.78-15.31,43.21-3.43,89.54-7.64,135.31-2.26,24.54,10.28,50.55-20.31,72.6h0Z"/>
      <path class="cls-1" d="M.96,379.78v-156.31c3.32-2.07-1.15,1.05,0,0,1.06-.97-.09-.42-.09-1.52.1-47.82.09-95.64.09-146h134.25c2.8,1.69,5.59,3.38,8.44,5.05,23.96,73.77,11.02,147.31,6.6,214.27-39.56,24.11-84.47,15.58-115.13,27-21.6,18.01-6.72,41.76-34.16,57.51h0Z"/>
      <path class="cls-1" d="M135.21,75.96V3.92c1.53-.9,2.85-1.98,4.64-2.67,1.66-.64,3.82-1.21,5.76-1.21C274.88,0,404.15,0,537.98,0v75.96c-41.92,17.89-90.35,10.01-136.54,11.11-63.87,1.8-127.77.71-191.66.61-26.56-.04-53.18-.77-74.57-11.72h0Z"/>
      <path class="cls-4" d="M135.21,1601.35c-2.85-1.55,2.81-4.67,0-6.25v-835.53h268.51c25.9,17.14,20.8,38.05,20.91,58.02.57,108.75,0,217.51.5,326.27.08,17.41-4.76,35.51,13.41,51.76,29.69,12.22,71.99,4.19,99.44,19.7,27.92,15.99,10.95,39.29,29.29,57.57,30.06,13.99,75.85,1.44,104.96,18.38v309.49l-537.02.59Z"/>
      <path class="cls-3" d="M403.72,75.96h134.26v607.66h-134.26c-27.13-18.37-18.39-40.59-20.73-61.65-2.63-23.62,7.49-47.92-10.48-70.48-30.82-12.83-72.18-4.69-106.3-20.59-22.36-23.26-26.62-49.1,3.25-75.16h134.25v-75.96c-19.6-12.16-21.07-27.35-21.25-42.51-.84-72.93-.84-145.87,0-218.81.17-15.16,1.65-30.35,21.25-42.51h0Z"/>
      <path class="cls-2" d="M537.98,1215.31h-127.01c-1.63-.82-3.54-1.52-4.8-2.5-1.18-.91-2.35-2.12-2.35-3.19-.1-150.02-.09-300.04-.09-450.05h127.01c1.63.82,3.54,1.52,4.8,2.5,1.18.91,2.35,2.12,2.35,3.19.1,150.02.1,300.04.1,450.05h0Z"/>
      <path class="cls-6" d="M269.47,455.74v74.4c42.76,3.68,86.77-.12,134.25,2.52v150.96H135.21v-227.87h134.26Z"/>
      <path class="cls-2" d="M672.23,1291.27h-134.25v-75.96h134.25v75.96h0Z"/>
      <path class="cls-6" d="M403.72,75.96v303.83H.96v-74.44c42.8-3.58,86.83.12,134.25-2.44V75.96h268.51Z"/>
    </g>
  </g>
</svg>