<?xml version="1.0" encoding="UTF-8"?>
<svg id="Layer_2" data-name="Layer 2" xmlns="http://www.w3.org/2000/svg" viewBox="0 0 241.49 334.37">
  <defs>
    <style>
      .cls-1 {
        fill: #f2f2f2;
      }

      .cls-2 {
        fill: #1d1d1b;
      }

      .cls-3 {
        fill: #dadada;
      }
    </style>
  </defs>
  <g id="_Layer_" data-name="&amp;lt;Layer&amp;gt;">
    <g>
      <polygon class="cls-3" points="236.84 4.64 236.84 9.29 236.84 13.93 236.84 18.58 236.84 23.22 236.84 27.86 236.84 32.51 236.84 37.15 236.84 41.8 236.84 46.44 236.84 51.08 236.84 55.73 236.84 60.37 236.84 65.02 236.84 69.66 236.84 74.3 236.84 78.95 236.84 83.59 236.84 88.24 236.84 92.88 236.84 97.52 236.84 102.17 236.84 106.81 236.84 111.46 236.84 116.1 236.84 120.74 236.84 125.39 236.84 130.03 236.84 134.68 236.84 139.32 236.84 143.96 236.84 148.61 236.84 153.25 236.84 157.9 236.84 162.54 236.84 167.18 236.84 171.83 236.84 176.47 236.84 181.12 236.84 185.76 236.84 190.4 236.84 195.05 236.84 199.69 236.84 204.34 236.84 208.98 236.84 213.62 236.84 218.27 236.84 222.91 236.84 227.56 236.84 232.2 236.84 236.84 236.84 241.49 236.84 246.13 236.84 250.78 236.84 255.42 236.84 260.06 236.84 264.71 236.84 269.35 236.84 274 236.84 278.64 236.84 283.28 236.84 287.93 236.84 292.57 236.84 297.22 236.84 301.86 236.84 306.5 236.84 311.15 236.84 315.79 236.84 320.44 236.84 325.08 236.84 329.72 241.49 329.72 241.49 325.08 241.49 320.44 241.49 315.79 241.49 311.15 241.49 306.5 241.49 301.86 241.49 297.22 241.49 292.57 241.49 287.93 241.49 283.28 241.49 278.64 241.49 274 241.49 269.35 241.49 264.71 241.49 260.06 241.49 255.42 241.49 250.78 241.49 246.13 241.49 241.49 241.49 236.84 241.49 232.2 241.49 227.56 241.49 222.91 241.49 218.27 241.49 213.62 241.49 208.98 241.49 204.34 241.49 199.69 241.49 195.05 241.49 190.4 241.49 185.76 241.49 181.12 241.49 176.47 241.49 171.83 241.49 167.18 241.49 162.54 241.49 157.9 241.49 153.25 241.49 148.61 241.49 143.96 241.49 139.32 241.49 134.68 241.49 130.03 241.49 125.39 241.49 120.74 241.49 116.1 241.49 111.46 241.49 106.81 241.49 102.17 241.49 97.52 241.49 92.88 241.49 88.24 241.49 83.59 241.49 78.95 241.49 74.3 241.49 69.66 241.49 65.02 241.49 60.37 241.49 55.73 241.49 51.08 241.49 46.44 241.49 41.8 241.49 37.15 241.49 32.51 241.49 27.86 241.49 23.22 241.49 18.58 241.49 13.93 241.49 9.29 241.49 4.64 236.84 4.64"/>
      <polygon class="cls-3" points="227.56 329.72 222.91 329.72 218.27 329.72 213.62 329.72 208.98 329.72 204.34 329.72 199.69 329.72 195.05 329.72 190.4 329.72 185.76 329.72 181.12 329.72 176.47 329.72 171.83 329.72 167.18 329.72 162.54 329.72 157.9 329.72 153.25 329.72 148.61 329.72 143.96 329.72 139.32 329.72 134.68 329.72 130.03 329.72 125.39 329.72 120.74 329.72 116.1 329.72 111.46 329.72 106.81 329.72 102.17 329.72 97.52 329.72 92.88 329.72 88.24 329.72 83.59 329.72 78.95 329.72 74.3 329.72 69.66 329.72 65.02 329.72 60.37 329.72 55.73 329.72 51.08 329.72 46.44 329.72 41.8 329.72 37.15 329.72 32.51 329.72 27.86 329.72 23.22 329.72 18.58 329.72 13.93 329.72 9.29 329.72 4.64 329.72 4.64 334.37 9.29 334.37 13.93 334.37 18.58 334.37 23.22 334.37 27.86 334.37 32.51 334.37 37.15 334.37 41.8 334.37 46.44 334.37 51.08 334.37 55.73 334.37 60.37 334.37 65.02 334.37 69.66 334.37 74.3 334.37 78.95 334.37 83.59 334.37 88.24 334.37 92.88 334.37 97.52 334.37 102.17 334.37 106.81 334.37 111.46 334.37 116.1 334.37 120.74 334.37 125.39 334.37 130.03 334.37 134.68 334.37 139.32 334.37 143.96 334.37 148.61 334.37 153.25 334.37 157.9 334.37 162.54 334.37 167.18 334.37 171.83 334.37 176.47 334.37 181.12 334.37 185.76 334.37 190.4 334.37 195.05 334.37 199.69 334.37 204.34 334.37 208.98 334.37 213.62 334.37 218.27 334.37 222.91 334.37 227.56 334.37 232.2 334.37 236.84 334.37 236.84 329.72 232.2 329.72 227.56 329.72"/>
      <path class="cls-1" d="M232.2,0H4.64v4.64H0v325.08h236.84V0h-4.64Z"/>
      <rect class="cls-2" x="227.56" y="263.55" width="4.64" height="4.64"/>
      <rect class="cls-2" x="222.91" y="268.19" width="4.64" height="4.64"/>
      <rect class="cls-2" x="222.91" y="263.55" width="4.64" height="4.64"/>
      <rect class="cls-2" x="222.91" y="258.9" width="4.64" height="4.64"/>
      <rect class="cls-2" x="218.27" y="272.83" width="4.64" height="4.64"/>
      <rect class="cls-2" x="218.27" y="263.55" width="4.64" height="4.64"/>
      <rect class="cls-2" x="218.27" y="249.61" width="4.64" height="4.64"/>
      <rect class="cls-2" x="213.62" y="277.48" width="4.64" height="4.64"/>
      <rect class="cls-2" x="213.62" y="272.83" width="4.64" height="4.64"/>
      <rect class="cls-2" x="213.62" y="268.19" width="4.64" height="4.64"/>
      <rect class="cls-2" x="213.62" y="263.55" width="4.64" height="4.64"/>
      <rect class="cls-2" x="213.62" y="258.9" width="4.64" height="4.64"/>
      <rect class="cls-2" x="213.62" y="254.26" width="4.64" height="4.64"/>
      <rect class="cls-2" x="213.62" y="249.61" width="4.64" height="4.64"/>
      <rect class="cls-2" x="208.98" y="272.83" width="4.64" height="4.64"/>
      <rect class="cls-2" x="208.98" y="263.55" width="4.64" height="4.64"/>
      <rect class="cls-2" x="208.98" y="249.61" width="4.64" height="4.64"/>
      <rect class="cls-2" x="204.34" y="268.19" width="4.64" height="4.64"/>
      <rect class="cls-2" x="204.34" y="263.55" width="4.64" height="4.64"/>
      <rect class="cls-2" x="204.34" y="258.9" width="4.64" height="4.64"/>
      <rect class="cls-2" x="199.69" y="263.55" width="4.64" height="4.64"/>
      <g>
        <g>
          <rect class="cls-2" x="102.75" y="92.38" width="4.64" height="4.64"/>
          <rect class="cls-2" x="102.75" y="87.74" width="4.64" height="4.64"/>
          <rect class="cls-2" x="98.1" y="97.03" width="4.64" height="4.64"/>
          <rect class="cls-2" x="98.1" y="92.38" width="4.64" height="4.64"/>
          <rect class="cls-2" x="98.1" y="87.74" width="4.64" height="4.64"/>
          <rect class="cls-2" x="98.1" y="83.1" width="4.64" height="4.64"/>
          <rect class="cls-2" x="93.46" y="101.67" width="4.64" height="4.64"/>
          <rect class="cls-2" x="93.46" y="97.03" width="4.64" height="4.64"/>
          <rect class="cls-2" x="93.46" y="92.38" width="4.64" height="4.64"/>
          <rect class="cls-2" x="93.46" y="87.74" width="4.64" height="4.64"/>
          <rect class="cls-2" x="93.46" y="83.1" width="4.64" height="4.64"/>
          <rect class="cls-2" x="93.46" y="78.45" width="4.64" height="4.64"/>
          <rect class="cls-2" x="88.82" y="101.67" width="4.64" height="4.64"/>
          <rect class="cls-2" x="88.82" y="97.03" width="4.64" height="4.64"/>
          <rect class="cls-2" x="88.82" y="92.38" width="4.64" height="4.64"/>
          <rect class="cls-2" x="88.82" y="87.74" width="4.64" height="4.64"/>
          <rect class="cls-2" x="88.82" y="83.1" width="4.64" height="4.64"/>
          <rect class="cls-2" x="88.82" y="78.45" width="4.64" height="4.64"/>
          <rect class="cls-2" x="88.82" y="69.16" width="4.64" height="4.64"/>
          <rect class="cls-2" x="88.82" y="64.52" width="4.64" height="4.64"/>
          <rect class="cls-2" x="84.17" y="115.6" width="4.64" height="4.64"/>
          <rect class="cls-2" x="84.17" y="97.03" width="4.64" height="4.64"/>
          <rect class="cls-2" x="84.17" y="92.38" width="4.64" height="4.64"/>
          <rect class="cls-2" x="84.17" y="87.74" width="4.64" height="4.64"/>
          <rect class="cls-2" x="84.17" y="83.1" width="4.64" height="4.64"/>
          <rect class="cls-2" x="84.17" y="73.81" width="4.64" height="4.64"/>
          <rect class="cls-2" x="84.17" y="69.16" width="4.64" height="4.64"/>
          <rect class="cls-2" x="84.17" y="64.52" width="4.64" height="4.64"/>
          <rect class="cls-2" x="84.17" y="59.88" width="4.64" height="4.64"/>
          <rect class="cls-2" x="79.53" y="115.6" width="4.64" height="4.64"/>
          <rect class="cls-2" x="79.53" y="110.96" width="4.64" height="4.64"/>
          <rect class="cls-2" x="79.53" y="92.38" width="4.64" height="4.64"/>
          <rect class="cls-2" x="79.53" y="87.74" width="4.64" height="4.64"/>
          <rect class="cls-2" x="79.53" y="83.1" width="4.64" height="4.64"/>
          <rect class="cls-2" x="79.53" y="78.45" width="4.64" height="4.64"/>
          <rect class="cls-2" x="79.53" y="73.81" width="4.64" height="4.64"/>
          <rect class="cls-2" x="79.53" y="69.16" width="4.64" height="4.64"/>
          <rect class="cls-2" x="79.53" y="64.52" width="4.64" height="4.64"/>
          <rect class="cls-2" x="79.53" y="59.88" width="4.64" height="4.64"/>
          <rect class="cls-2" x="79.53" y="55.23" width="4.64" height="4.64"/>
          <rect class="cls-2" x="74.88" y="115.6" width="4.64" height="4.64"/>
          <rect class="cls-2" x="74.88" y="110.96" width="4.64" height="4.64"/>
          <rect class="cls-2" x="74.88" y="106.31" width="4.64" height="4.64"/>
          <rect class="cls-2" x="74.88" y="101.67" width="4.64" height="4.64"/>
          <rect class="cls-2" x="74.88" y="97.03" width="4.64" height="4.64"/>
          <rect class="cls-2" x="74.88" y="92.38" width="4.64" height="4.64"/>
          <rect class="cls-2" x="74.88" y="87.74" width="4.64" height="4.64"/>
          <rect class="cls-2" x="74.88" y="83.1" width="4.64" height="4.64"/>
          <rect class="cls-2" x="74.88" y="78.45" width="4.64" height="4.64"/>
          <rect class="cls-2" x="74.88" y="73.81" width="4.64" height="4.64"/>
          <rect class="cls-2" x="74.88" y="69.16" width="4.64" height="4.64"/>
          <rect class="cls-2" x="74.88" y="64.52" width="4.64" height="4.64"/>
          <rect class="cls-2" x="74.88" y="59.88" width="4.64" height="4.64"/>
          <rect class="cls-2" x="74.88" y="55.23" width="4.64" height="4.64"/>
          <rect class="cls-2" x="70.24" y="115.6" width="4.64" height="4.64"/>
          <rect class="cls-2" x="70.24" y="110.96" width="4.64" height="4.64"/>
          <rect class="cls-2" x="70.24" y="92.38" width="4.64" height="4.64"/>
          <rect class="cls-2" x="70.24" y="87.74" width="4.64" height="4.64"/>
          <rect class="cls-2" x="70.24" y="83.1" width="4.64" height="4.64"/>
          <rect class="cls-2" x="70.24" y="78.45" width="4.64" height="4.64"/>
          <rect class="cls-2" x="70.24" y="73.81" width="4.64" height="4.64"/>
          <rect class="cls-2" x="70.24" y="69.16" width="4.64" height="4.64"/>
          <rect class="cls-2" x="70.24" y="64.52" width="4.64" height="4.64"/>
          <rect class="cls-2" x="70.24" y="59.88" width="4.64" height="4.64"/>
          <rect class="cls-2" x="70.24" y="55.23" width="4.64" height="4.64"/>
          <rect class="cls-2" x="65.6" y="115.6" width="4.64" height="4.64"/>
          <rect class="cls-2" x="65.6" y="97.03" width="4.64" height="4.64"/>
          <rect class="cls-2" x="65.6" y="92.38" width="4.64" height="4.64"/>
          <rect class="cls-2" x="65.6" y="87.74" width="4.64" height="4.64"/>
          <rect class="cls-2" x="65.6" y="83.1" width="4.64" height="4.64"/>
          <rect class="cls-2" x="65.6" y="73.81" width="4.64" height="4.64"/>
          <rect class="cls-2" x="65.6" y="69.16" width="4.64" height="4.64"/>
          <rect class="cls-2" x="65.6" y="64.52" width="4.64" height="4.64"/>
          <rect class="cls-2" x="65.6" y="59.88" width="4.64" height="4.64"/>
          <rect class="cls-2" x="60.95" y="101.67" width="4.64" height="4.64"/>
          <rect class="cls-2" x="60.95" y="97.03" width="4.64" height="4.64"/>
          <rect class="cls-2" x="60.95" y="92.38" width="4.64" height="4.64"/>
          <rect class="cls-2" x="60.95" y="87.74" width="4.64" height="4.64"/>
          <rect class="cls-2" x="60.95" y="83.1" width="4.64" height="4.64"/>
          <rect class="cls-2" x="60.95" y="78.45" width="4.64" height="4.64"/>
          <rect class="cls-2" x="60.95" y="69.16" width="4.64" height="4.64"/>
          <rect class="cls-2" x="60.95" y="64.52" width="4.64" height="4.64"/>
          <rect class="cls-2" x="56.31" y="101.67" width="4.64" height="4.64"/>
          <rect class="cls-2" x="56.31" y="97.03" width="4.64" height="4.64"/>
          <rect class="cls-2" x="56.31" y="92.38" width="4.64" height="4.64"/>
          <rect class="cls-2" x="56.31" y="87.74" width="4.64" height="4.64"/>
          <rect class="cls-2" x="56.31" y="83.1" width="4.64" height="4.64"/>
          <rect class="cls-2" x="56.31" y="78.45" width="4.64" height="4.64"/>
          <rect class="cls-2" x="51.66" y="97.03" width="4.64" height="4.64"/>
          <rect class="cls-2" x="51.66" y="92.38" width="4.64" height="4.64"/>
          <rect class="cls-2" x="51.66" y="87.74" width="4.64" height="4.64"/>
          <rect class="cls-2" x="51.66" y="83.1" width="4.64" height="4.64"/>
          <rect class="cls-2" x="47.02" y="92.38" width="4.64" height="4.64"/>
          <rect class="cls-2" x="47.02" y="87.74" width="4.64" height="4.64"/>
        </g>
        <g>
          <rect class="cls-2" x="183.44" y="92.38" width="4.64" height="4.64"/>
          <rect class="cls-2" x="183.44" y="87.74" width="4.64" height="4.64"/>
          <rect class="cls-2" x="178.8" y="97.03" width="4.64" height="4.64"/>
          <rect class="cls-2" x="178.8" y="92.38" width="4.64" height="4.64"/>
          <rect class="cls-2" x="178.8" y="87.74" width="4.64" height="4.64"/>
          <rect class="cls-2" x="178.8" y="83.1" width="4.64" height="4.64"/>
          <rect class="cls-2" x="174.15" y="101.67" width="4.64" height="4.64"/>
          <rect class="cls-2" x="174.15" y="97.03" width="4.64" height="4.64"/>
          <rect class="cls-2" x="174.15" y="92.38" width="4.64" height="4.64"/>
          <rect class="cls-2" x="174.15" y="87.74" width="4.64" height="4.64"/>
          <rect class="cls-2" x="174.15" y="83.1" width="4.64" height="4.64"/>
          <rect class="cls-2" x="174.15" y="78.45" width="4.64" height="4.64"/>
          <rect class="cls-2" x="169.51" y="101.67" width="4.64" height="4.64"/>
          <rect class="cls-2" x="169.51" y="97.03" width="4.64" height="4.64"/>
          <rect class="cls-2" x="169.51" y="92.38" width="4.64" height="4.64"/>
          <rect class="cls-2" x="169.51" y="87.74" width="4.64" height="4.64"/>
          <rect class="cls-2" x="169.51" y="83.1" width="4.64" height="4.64"/>
          <rect class="cls-2" x="169.51" y="78.45" width="4.64" height="4.64"/>
          <rect class="cls-2" x="169.51" y="69.16" width="4.64" height="4.64"/>
          <rect class="cls-2" x="169.51" y="64.52" width="4.64" height="4.64"/>
          <rect class="cls-2" x="164.86" y="115.6" width="4.64" height="4.64"/>
          <rect class="cls-2" x="164.86" y="97.03" width="4.64" height="4.64"/>
          <rect class="cls-2" x="164.86" y="92.38" width="4.64" height="4.64"/>
          <rect class="cls-2" x="164.86" y="87.74" width="4.64" height="4.64"/>
          <rect class="cls-2" x="164.86" y="83.1" width="4.64" height="4.64"/>
          <rect class="cls-2" x="164.86" y="73.81" width="4.64" height="4.64"/>
          <rect class="cls-2" x="164.86" y="69.16" width="4.64" height="4.64"/>
          <rect class="cls-2" x="164.86" y="64.52" width="4.64" height="4.64"/>
          <rect class="cls-2" x="164.86" y="59.88" width="4.64" height="4.64"/>
          <rect class="cls-2" x="160.22" y="115.6" width="4.64" height="4.64"/>
          <rect class="cls-2" x="160.22" y="110.96" width="4.64" height="4.64"/>
          <rect class="cls-2" x="160.22" y="92.38" width="4.64" height="4.64"/>
          <rect class="cls-2" x="160.22" y="87.74" width="4.64" height="4.64"/>
          <rect class="cls-2" x="160.22" y="83.1" width="4.64" height="4.64"/>
          <rect class="cls-2" x="160.22" y="78.45" width="4.64" height="4.64"/>
          <rect class="cls-2" x="160.22" y="73.81" width="4.64" height="4.64"/>
          <rect class="cls-2" x="160.22" y="69.16" width="4.64" height="4.64"/>
          <rect class="cls-2" x="160.22" y="64.52" width="4.64" height="4.64"/>
          <rect class="cls-2" x="160.22" y="59.88" width="4.64" height="4.64"/>
          <rect class="cls-2" x="160.22" y="55.23" width="4.64" height="4.64"/>
          <rect class="cls-2" x="155.58" y="115.6" width="4.64" height="4.64"/>
          <rect class="cls-2" x="155.58" y="110.96" width="4.64" height="4.64"/>
          <rect class="cls-2" x="155.58" y="106.31" width="4.64" height="4.64"/>
          <rect class="cls-2" x="155.58" y="101.67" width="4.64" height="4.64"/>
          <rect class="cls-2" x="155.58" y="97.03" width="4.64" height="4.64"/>
          <rect class="cls-2" x="155.58" y="92.38" width="4.64" height="4.64"/>
          <rect class="cls-2" x="155.58" y="87.74" width="4.64" height="4.64"/>
          <rect class="cls-2" x="155.58" y="83.1" width="4.64" height="4.64"/>
          <rect class="cls-2" x="155.58" y="78.45" width="4.64" height="4.64"/>
          <rect class="cls-2" x="155.58" y="73.81" width="4.64" height="4.64"/>
          <rect class="cls-2" x="155.58" y="69.16" width="4.64" height="4.64"/>
          <rect class="cls-2" x="155.58" y="64.52" width="4.64" height="4.64"/>
          <rect class="cls-2" x="155.58" y="59.88" width="4.64" height="4.64"/>
          <rect class="cls-2" x="155.58" y="55.23" width="4.64" height="4.64"/>
          <rect class="cls-2" x="150.93" y="115.6" width="4.64" height="4.64"/>
          <rect class="cls-2" x="150.93" y="110.96" width="4.64" height="4.64"/>
          <rect class="cls-2" x="150.93" y="92.38" width="4.64" height="4.64"/>
          <rect class="cls-2" x="150.93" y="87.74" width="4.64" height="4.64"/>
          <rect class="cls-2" x="150.93" y="83.1" width="4.64" height="4.64"/>
          <rect class="cls-2" x="150.93" y="78.45" width="4.64" height="4.64"/>
          <rect class="cls-2" x="150.93" y="73.81" width="4.64" height="4.64"/>
          <rect class="cls-2" x="150.93" y="69.16" width="4.64" height="4.64"/>
          <rect class="cls-2" x="150.93" y="64.52" width="4.64" height="4.64"/>
          <rect class="cls-2" x="150.93" y="59.88" width="4.64" height="4.64"/>
          <rect class="cls-2" x="150.93" y="55.23" width="4.64" height="4.64"/>
          <rect class="cls-2" x="146.29" y="115.6" width="4.64" height="4.64"/>
          <rect class="cls-2" x="146.29" y="97.03" width="4.64" height="4.64"/>
          <rect class="cls-2" x="146.29" y="92.38" width="4.64" height="4.64"/>
          <rect class="cls-2" x="146.29" y="87.74" width="4.64" height="4.64"/>
          <rect class="cls-2" x="146.29" y="83.1" width="4.64" height="4.64"/>
          <rect class="cls-2" x="146.29" y="73.81" width="4.64" height="4.64"/>
          <rect class="cls-2" x="146.29" y="69.16" width="4.64" height="4.64"/>
          <rect class="cls-2" x="146.29" y="64.52" width="4.64" height="4.64"/>
          <rect class="cls-2" x="146.29" y="59.88" width="4.64" height="4.64"/>
          <rect class="cls-2" x="141.64" y="101.67" width="4.64" height="4.64"/>
          <rect class="cls-2" x="141.64" y="97.03" width="4.64" height="4.64"/>
          <rect class="cls-2" x="141.64" y="92.38" width="4.64" height="4.64"/>
          <rect class="cls-2" x="141.64" y="87.74" width="4.64" height="4.64"/>
          <rect class="cls-2" x="141.64" y="83.1" width="4.64" height="4.64"/>
          <rect class="cls-2" x="141.64" y="78.45" width="4.64" height="4.64"/>
          <rect class="cls-2" x="141.64" y="69.16" width="4.64" height="4.64"/>
          <rect class="cls-2" x="141.64" y="64.52" width="4.64" height="4.64"/>
          <rect class="cls-2" x="137" y="101.67" width="4.64" height="4.64"/>
          <rect class="cls-2" x="137" y="97.03" width="4.64" height="4.64"/>
          <rect class="cls-2" x="137" y="92.38" width="4.64" height="4.64"/>
          <rect class="cls-2" x="137" y="87.74" width="4.64" height="4.64"/>
          <rect class="cls-2" x="137" y="83.1" width="4.64" height="4.64"/>
          <rect class="cls-2" x="137" y="78.45" width="4.64" height="4.64"/>
          <rect class="cls-2" x="132.36" y="97.03" width="4.64" height="4.64"/>
          <rect class="cls-2" x="132.36" y="92.38" width="4.64" height="4.64"/>
          <rect class="cls-2" x="132.36" y="87.74" width="4.64" height="4.64"/>
          <rect class="cls-2" x="132.36" y="83.1" width="4.64" height="4.64"/>
          <rect class="cls-2" x="127.71" y="92.38" width="4.64" height="4.64"/>
          <rect class="cls-2" x="127.71" y="87.74" width="4.64" height="4.64"/>
        </g>
        <g>
          <rect class="cls-2" x="143.96" y="176.22" width="4.64" height="4.64"/>
          <rect class="cls-2" x="143.96" y="171.58" width="4.64" height="4.64"/>
          <rect class="cls-2" x="139.32" y="180.87" width="4.64" height="4.64"/>
          <rect class="cls-2" x="139.32" y="176.22" width="4.64" height="4.64"/>
          <rect class="cls-2" x="139.32" y="171.58" width="4.64" height="4.64"/>
          <rect class="cls-2" x="139.32" y="166.94" width="4.64" height="4.64"/>
          <rect class="cls-2" x="134.68" y="185.51" width="4.64" height="4.64"/>
          <rect class="cls-2" x="134.68" y="180.87" width="4.64" height="4.64"/>
          <rect class="cls-2" x="134.68" y="176.22" width="4.64" height="4.64"/>
          <rect class="cls-2" x="134.68" y="171.58" width="4.64" height="4.64"/>
          <rect class="cls-2" x="134.68" y="166.94" width="4.64" height="4.64"/>
          <rect class="cls-2" x="134.68" y="162.29" width="4.64" height="4.64"/>
          <rect class="cls-2" x="130.03" y="185.51" width="4.64" height="4.64"/>
          <rect class="cls-2" x="130.03" y="180.87" width="4.64" height="4.64"/>
          <rect class="cls-2" x="130.03" y="176.22" width="4.64" height="4.64"/>
          <rect class="cls-2" x="130.03" y="171.58" width="4.64" height="4.64"/>
          <rect class="cls-2" x="130.03" y="166.94" width="4.64" height="4.64"/>
          <rect class="cls-2" x="130.03" y="162.29" width="4.64" height="4.64"/>
          <rect class="cls-2" x="130.03" y="153" width="4.64" height="4.64"/>
          <rect class="cls-2" x="130.03" y="148.36" width="4.64" height="4.64"/>
          <rect class="cls-2" x="125.39" y="199.44" width="4.64" height="4.64"/>
          <rect class="cls-2" x="125.39" y="180.87" width="4.64" height="4.64"/>
          <rect class="cls-2" x="125.39" y="176.22" width="4.64" height="4.64"/>
          <rect class="cls-2" x="125.39" y="171.58" width="4.64" height="4.64"/>
          <rect class="cls-2" x="125.39" y="166.94" width="4.64" height="4.64"/>
          <rect class="cls-2" x="125.39" y="157.65" width="4.64" height="4.64"/>
          <rect class="cls-2" x="125.39" y="153" width="4.64" height="4.64"/>
          <rect class="cls-2" x="125.39" y="148.36" width="4.64" height="4.64"/>
          <rect class="cls-2" x="125.39" y="143.72" width="4.64" height="4.64"/>
          <rect class="cls-2" x="120.74" y="199.44" width="4.64" height="4.64"/>
          <rect class="cls-2" x="120.74" y="194.8" width="4.64" height="4.64"/>
          <rect class="cls-2" x="120.74" y="176.22" width="4.64" height="4.64"/>
          <rect class="cls-2" x="120.74" y="171.58" width="4.64" height="4.64"/>
          <rect class="cls-2" x="120.74" y="166.94" width="4.64" height="4.64"/>
          <rect class="cls-2" x="120.74" y="162.29" width="4.64" height="4.64"/>
          <rect class="cls-2" x="120.74" y="157.65" width="4.64" height="4.64"/>
          <rect class="cls-2" x="120.74" y="153" width="4.64" height="4.64"/>
          <rect class="cls-2" x="120.74" y="148.36" width="4.64" height="4.64"/>
          <rect class="cls-2" x="120.74" y="143.72" width="4.64" height="4.64"/>
          <rect class="cls-2" x="120.74" y="139.07" width="4.64" height="4.64"/>
          <rect class="cls-2" x="116.1" y="199.44" width="4.64" height="4.64"/>
          <rect class="cls-2" x="116.1" y="194.8" width="4.64" height="4.64"/>
          <rect class="cls-2" x="116.1" y="190.16" width="4.64" height="4.64"/>
          <rect class="cls-2" x="116.1" y="185.51" width="4.64" height="4.64"/>
          <rect class="cls-2" x="116.1" y="180.87" width="4.64" height="4.64"/>
          <rect class="cls-2" x="116.1" y="176.22" width="4.64" height="4.64"/>
          <rect class="cls-2" x="116.1" y="171.58" width="4.64" height="4.64"/>
          <rect class="cls-2" x="116.1" y="166.94" width="4.64" height="4.64"/>
          <rect class="cls-2" x="116.1" y="162.29" width="4.64" height="4.64"/>
          <rect class="cls-2" x="116.1" y="157.65" width="4.64" height="4.64"/>
          <rect class="cls-2" x="116.1" y="153" width="4.64" height="4.64"/>
          <rect class="cls-2" x="116.1" y="148.36" width="4.64" height="4.64"/>
          <rect class="cls-2" x="116.1" y="143.72" width="4.64" height="4.64"/>
          <rect class="cls-2" x="116.1" y="139.07" width="4.64" height="4.64"/>
          <rect class="cls-2" x="111.46" y="199.44" width="4.64" height="4.64"/>
          <rect class="cls-2" x="111.46" y="194.8" width="4.64" height="4.64"/>
          <rect class="cls-2" x="111.46" y="176.22" width="4.64" height="4.64"/>
          <rect class="cls-2" x="111.46" y="171.58" width="4.64" height="4.64"/>
          <rect class="cls-2" x="111.46" y="166.94" width="4.64" height="4.64"/>
          <rect class="cls-2" x="111.46" y="162.29" width="4.64" height="4.64"/>
          <rect class="cls-2" x="111.46" y="157.65" width="4.64" height="4.64"/>
          <rect class="cls-2" x="111.46" y="153" width="4.64" height="4.64"/>
          <rect class="cls-2" x="111.46" y="148.36" width="4.64" height="4.64"/>
          <rect class="cls-2" x="111.46" y="143.72" width="4.64" height="4.64"/>
          <rect class="cls-2" x="111.46" y="139.07" width="4.64" height="4.64"/>
          <rect class="cls-2" x="106.81" y="199.44" width="4.64" height="4.64"/>
          <rect class="cls-2" x="106.81" y="180.87" width="4.64" height="4.64"/>
          <rect class="cls-2" x="106.81" y="176.22" width="4.64" height="4.64"/>
          <rect class="cls-2" x="106.81" y="171.58" width="4.64" height="4.64"/>
          <rect class="cls-2" x="106.81" y="166.94" width="4.64" height="4.64"/>
          <rect class="cls-2" x="106.81" y="157.65" width="4.64" height="4.64"/>
          <rect class="cls-2" x="106.81" y="153" width="4.64" height="4.64"/>
          <rect class="cls-2" x="106.81" y="148.36" width="4.64" height="4.64"/>
          <rect class="cls-2" x="106.81" y="143.72" width="4.64" height="4.64"/>
          <rect class="cls-2" x="102.17" y="185.51" width="4.64" height="4.64"/>
          <rect class="cls-2" x="102.17" y="180.87" width="4.64" height="4.64"/>
          <rect class="cls-2" x="102.17" y="176.22" width="4.64" height="4.64"/>
          <rect class="cls-2" x="102.17" y="171.58" width="4.64" height="4.64"/>
          <rect class="cls-2" x="102.17" y="166.94" width="4.64" height="4.64"/>
          <rect class="cls-2" x="102.17" y="162.29" width="4.64" height="4.64"/>
          <rect class="cls-2" x="102.17" y="153" width="4.64" height="4.64"/>
          <rect class="cls-2" x="102.17" y="148.36" width="4.64" height="4.64"/>
          <rect class="cls-2" x="97.52" y="185.51" width="4.64" height="4.64"/>
          <rect class="cls-2" x="97.52" y="180.87" width="4.64" height="4.64"/>
          <rect class="cls-2" x="97.52" y="176.22" width="4.64" height="4.64"/>
          <rect class="cls-2" x="97.52" y="171.58" width="4.64" height="4.64"/>
          <rect class="cls-2" x="97.52" y="166.94" width="4.64" height="4.64"/>
          <rect class="cls-2" x="97.52" y="162.29" width="4.64" height="4.64"/>
          <rect class="cls-2" x="92.88" y="180.87" width="4.64" height="4.64"/>
          <rect class="cls-2" x="92.88" y="176.22" width="4.64" height="4.64"/>
          <rect class="cls-2" x="92.88" y="171.58" width="4.64" height="4.64"/>
          <rect class="cls-2" x="92.88" y="166.94" width="4.64" height="4.64"/>
          <rect class="cls-2" x="88.24" y="176.22" width="4.64" height="4.64"/>
          <rect class="cls-2" x="88.24" y="171.58" width="4.64" height="4.64"/>
        </g>
        <g>
          <rect class="cls-2" x="102.75" y="260.06" width="4.64" height="4.64"/>
          <rect class="cls-2" x="102.75" y="255.42" width="4.64" height="4.64"/>
          <rect class="cls-2" x="98.1" y="264.71" width="4.64" height="4.64"/>
          <rect class="cls-2" x="98.1" y="260.06" width="4.64" height="4.64"/>
          <rect class="cls-2" x="98.1" y="255.42" width="4.64" height="4.64"/>
          <rect class="cls-2" x="98.1" y="250.78" width="4.64" height="4.64"/>
          <rect class="cls-2" x="93.46" y="269.35" width="4.64" height="4.64"/>
          <rect class="cls-2" x="93.46" y="264.71" width="4.64" height="4.64"/>
          <rect class="cls-2" x="93.46" y="260.06" width="4.64" height="4.64"/>
          <rect class="cls-2" x="93.46" y="255.42" width="4.64" height="4.64"/>
          <rect class="cls-2" x="93.46" y="250.78" width="4.64" height="4.64"/>
          <rect class="cls-2" x="93.46" y="246.13" width="4.64" height="4.64"/>
          <rect class="cls-2" x="88.82" y="269.35" width="4.64" height="4.64"/>
          <rect class="cls-2" x="88.82" y="264.71" width="4.64" height="4.64"/>
          <rect class="cls-2" x="88.82" y="260.06" width="4.64" height="4.64"/>
          <rect class="cls-2" x="88.82" y="255.42" width="4.64" height="4.64"/>
          <rect class="cls-2" x="88.82" y="250.78" width="4.64" height="4.64"/>
          <rect class="cls-2" x="88.82" y="246.13" width="4.64" height="4.64"/>
          <rect class="cls-2" x="88.82" y="236.84" width="4.64" height="4.64"/>
          <rect class="cls-2" x="88.82" y="232.2" width="4.64" height="4.64"/>
          <rect class="cls-2" x="84.17" y="283.28" width="4.64" height="4.64"/>
          <rect class="cls-2" x="84.17" y="264.71" width="4.64" height="4.64"/>
          <rect class="cls-2" x="84.17" y="260.06" width="4.64" height="4.64"/>
          <rect class="cls-2" x="84.17" y="255.42" width="4.64" height="4.64"/>
          <rect class="cls-2" x="84.17" y="250.78" width="4.64" height="4.64"/>
          <rect class="cls-2" x="84.17" y="241.49" width="4.64" height="4.64"/>
          <rect class="cls-2" x="84.17" y="236.84" width="4.64" height="4.64"/>
          <rect class="cls-2" x="84.17" y="232.2" width="4.64" height="4.64"/>
          <rect class="cls-2" x="84.17" y="227.56" width="4.64" height="4.64"/>
          <rect class="cls-2" x="79.53" y="283.28" width="4.64" height="4.64"/>
          <rect class="cls-2" x="79.53" y="278.64" width="4.64" height="4.64"/>
          <rect class="cls-2" x="79.53" y="260.06" width="4.64" height="4.64"/>
          <rect class="cls-2" x="79.53" y="255.42" width="4.64" height="4.64"/>
          <rect class="cls-2" x="79.53" y="250.78" width="4.64" height="4.64"/>
          <rect class="cls-2" x="79.53" y="246.13" width="4.64" height="4.64"/>
          <rect class="cls-2" x="79.53" y="241.49" width="4.64" height="4.64"/>
          <rect class="cls-2" x="79.53" y="236.84" width="4.64" height="4.64"/>
          <rect class="cls-2" x="79.53" y="232.2" width="4.64" height="4.64"/>
          <rect class="cls-2" x="79.53" y="227.56" width="4.64" height="4.64"/>
          <rect class="cls-2" x="79.53" y="222.91" width="4.64" height="4.64"/>
          <rect class="cls-2" x="74.88" y="283.28" width="4.64" height="4.64"/>
          <rect class="cls-2" x="74.88" y="278.64" width="4.64" height="4.64"/>
          <rect class="cls-2" x="74.88" y="274" width="4.64" height="4.64"/>
          <rect class="cls-2" x="74.88" y="269.35" width="4.64" height="4.64"/>
          <rect class="cls-2" x="74.88" y="264.71" width="4.64" height="4.64"/>
          <rect class="cls-2" x="74.88" y="260.06" width="4.64" height="4.64"/>
          <rect class="cls-2" x="74.88" y="255.42" width="4.64" height="4.64"/>
          <rect class="cls-2" x="74.88" y="250.78" width="4.64" height="4.64"/>
          <rect class="cls-2" x="74.88" y="246.13" width="4.64" height="4.64"/>
          <rect class="cls-2" x="74.88" y="241.49" width="4.64" height="4.64"/>
          <rect class="cls-2" x="74.88" y="236.84" width="4.64" height="4.64"/>
          <rect class="cls-2" x="74.88" y="232.2" width="4.64" height="4.64"/>
          <rect class="cls-2" x="74.88" y="227.56" width="4.64" height="4.64"/>
          <rect class="cls-2" x="74.88" y="222.91" width="4.64" height="4.64"/>
          <rect class="cls-2" x="70.24" y="283.28" width="4.64" height="4.64"/>
          <rect class="cls-2" x="70.24" y="278.64" width="4.64" height="4.64"/>
          <rect class="cls-2" x="70.24" y="260.06" width="4.64" height="4.64"/>
          <rect class="cls-2" x="70.24" y="255.42" width="4.64" height="4.64"/>
          <rect class="cls-2" x="70.24" y="250.78" width="4.64" height="4.64"/>
          <rect class="cls-2" x="70.24" y="246.13" width="4.64" height="4.64"/>
          <rect class="cls-2" x="70.24" y="241.49" width="4.64" height="4.64"/>
          <rect class="cls-2" x="70.24" y="236.84" width="4.64" height="4.64"/>
          <rect class="cls-2" x="70.24" y="232.2" width="4.64" height="4.64"/>
          <rect class="cls-2" x="70.24" y="227.56" width="4.64" height="4.64"/>
          <rect class="cls-2" x="70.24" y="222.91" width="4.64" height="4.64"/>
          <rect class="cls-2" x="65.6" y="283.28" width="4.64" height="4.64"/>
          <rect class="cls-2" x="65.6" y="264.71" width="4.64" height="4.64"/>
          <rect class="cls-2" x="65.6" y="260.06" width="4.64" height="4.64"/>
          <rect class="cls-2" x="65.6" y="255.42" width="4.64" height="4.64"/>
          <rect class="cls-2" x="65.6" y="250.78" width="4.64" height="4.64"/>
          <rect class="cls-2" x="65.6" y="241.49" width="4.64" height="4.64"/>
          <rect class="cls-2" x="65.6" y="236.84" width="4.64" height="4.64"/>
          <rect class="cls-2" x="65.6" y="232.2" width="4.64" height="4.64"/>
          <rect class="cls-2" x="65.6" y="227.56" width="4.64" height="4.64"/>
          <rect class="cls-2" x="60.95" y="269.35" width="4.64" height="4.64"/>
          <rect class="cls-2" x="60.95" y="264.71" width="4.64" height="4.64"/>
          <rect class="cls-2" x="60.95" y="260.06" width="4.64" height="4.64"/>
          <rect class="cls-2" x="60.95" y="255.42" width="4.64" height="4.64"/>
          <rect class="cls-2" x="60.95" y="250.78" width="4.64" height="4.64"/>
          <rect class="cls-2" x="60.95" y="246.13" width="4.64" height="4.64"/>
          <rect class="cls-2" x="60.95" y="236.84" width="4.64" height="4.64"/>
          <rect class="cls-2" x="60.95" y="232.2" width="4.64" height="4.64"/>
          <rect class="cls-2" x="56.31" y="269.35" width="4.64" height="4.64"/>
          <rect class="cls-2" x="56.31" y="264.71" width="4.64" height="4.64"/>
          <rect class="cls-2" x="56.31" y="260.06" width="4.64" height="4.64"/>
          <rect class="cls-2" x="56.31" y="255.42" width="4.64" height="4.64"/>
          <rect class="cls-2" x="56.31" y="250.78" width="4.64" height="4.64"/>
          <rect class="cls-2" x="56.31" y="246.13" width="4.64" height="4.64"/>
          <rect class="cls-2" x="51.66" y="264.71" width="4.64" height="4.64"/>
          <rect class="cls-2" x="51.66" y="260.06" width="4.64" height="4.64"/>
          <rect class="cls-2" x="51.66" y="255.42" width="4.64" height="4.64"/>
          <rect class="cls-2" x="51.66" y="250.78" width="4.64" height="4.64"/>
          <rect class="cls-2" x="47.02" y="260.06" width="4.64" height="4.64"/>
          <rect class="cls-2" x="47.02" y="255.42" width="4.64" height="4.64"/>
        </g>
        <g>
          <rect class="cls-2" x="183.44" y="260.06" width="4.64" height="4.64"/>
          <rect class="cls-2" x="183.44" y="255.42" width="4.64" height="4.64"/>
          <rect class="cls-2" x="178.8" y="264.71" width="4.64" height="4.64"/>
          <rect class="cls-2" x="178.8" y="260.06" width="4.64" height="4.64"/>
          <rect class="cls-2" x="178.8" y="255.42" width="4.64" height="4.64"/>
          <rect class="cls-2" x="178.8" y="250.78" width="4.64" height="4.64"/>
          <rect class="cls-2" x="174.15" y="269.35" width="4.64" height="4.64"/>
          <rect class="cls-2" x="174.15" y="264.71" width="4.64" height="4.64"/>
          <rect class="cls-2" x="174.15" y="260.06" width="4.64" height="4.64"/>
          <rect class="cls-2" x="174.15" y="255.42" width="4.64" height="4.64"/>
          <rect class="cls-2" x="174.15" y="250.78" width="4.64" height="4.64"/>
          <rect class="cls-2" x="174.15" y="246.13" width="4.64" height="4.64"/>
          <rect class="cls-2" x="169.51" y="269.35" width="4.64" height="4.64"/>
          <rect class="cls-2" x="169.51" y="264.71" width="4.64" height="4.64"/>
          <rect class="cls-2" x="169.51" y="260.06" width="4.64" height="4.64"/>
          <rect class="cls-2" x="169.51" y="255.42" width="4.64" height="4.64"/>
          <rect class="cls-2" x="169.51" y="250.78" width="4.64" height="4.64"/>
          <rect class="cls-2" x="169.51" y="246.13" width="4.64" height="4.64"/>
          <rect class="cls-2" x="169.51" y="236.84" width="4.64" height="4.64"/>
          <rect class="cls-2" x="169.51" y="232.2" width="4.64" height="4.64"/>
          <rect class="cls-2" x="164.86" y="283.28" width="4.64" height="4.64"/>
          <rect class="cls-2" x="164.86" y="264.71" width="4.64" height="4.64"/>
          <rect class="cls-2" x="164.86" y="260.06" width="4.64" height="4.64"/>
          <rect class="cls-2" x="164.86" y="255.42" width="4.64" height="4.64"/>
          <rect class="cls-2" x="164.86" y="250.78" width="4.64" height="4.64"/>
          <rect class="cls-2" x="164.86" y="241.49" width="4.64" height="4.64"/>
          <rect class="cls-2" x="164.86" y="236.84" width="4.64" height="4.64"/>
          <rect class="cls-2" x="164.86" y="232.2" width="4.64" height="4.64"/>
          <rect class="cls-2" x="164.86" y="227.56" width="4.64" height="4.64"/>
          <rect class="cls-2" x="160.22" y="283.28" width="4.64" height="4.64"/>
          <rect class="cls-2" x="160.22" y="278.64" width="4.64" height="4.64"/>
          <rect class="cls-2" x="160.22" y="260.06" width="4.64" height="4.64"/>
          <rect class="cls-2" x="160.22" y="255.42" width="4.64" height="4.64"/>
          <rect class="cls-2" x="160.22" y="250.78" width="4.64" height="4.64"/>
          <rect class="cls-2" x="160.22" y="246.13" width="4.64" height="4.64"/>
          <rect class="cls-2" x="160.22" y="241.49" width="4.64" height="4.64"/>
          <rect class="cls-2" x="160.22" y="236.84" width="4.64" height="4.64"/>
          <rect class="cls-2" x="160.22" y="232.2" width="4.64" height="4.64"/>
          <rect class="cls-2" x="160.22" y="227.56" width="4.64" height="4.64"/>
          <rect class="cls-2" x="160.22" y="222.91" width="4.64" height="4.64"/>
          <rect class="cls-2" x="155.58" y="283.28" width="4.64" height="4.64"/>
          <rect class="cls-2" x="155.58" y="278.64" width="4.64" height="4.64"/>
          <rect class="cls-2" x="155.58" y="274" width="4.64" height="4.64"/>
          <rect class="cls-2" x="155.58" y="269.35" width="4.64" height="4.64"/>
          <rect class="cls-2" x="155.58" y="264.71" width="4.64" height="4.64"/>
          <rect class="cls-2" x="155.58" y="260.06" width="4.64" height="4.64"/>
          <rect class="cls-2" x="155.58" y="255.42" width="4.64" height="4.64"/>
          <rect class="cls-2" x="155.58" y="250.78" width="4.64" height="4.64"/>
          <rect class="cls-2" x="155.58" y="246.13" width="4.64" height="4.64"/>
          <rect class="cls-2" x="155.58" y="241.49" width="4.64" height="4.64"/>
          <rect class="cls-2" x="155.58" y="236.84" width="4.64" height="4.64"/>
          <rect class="cls-2" x="155.58" y="232.2" width="4.64" height="4.64"/>
          <rect class="cls-2" x="155.58" y="227.56" width="4.64" height="4.64"/>
          <rect class="cls-2" x="155.58" y="222.91" width="4.64" height="4.64"/>
          <rect class="cls-2" x="150.93" y="283.28" width="4.64" height="4.64"/>
          <rect class="cls-2" x="150.93" y="278.64" width="4.64" height="4.64"/>
          <rect class="cls-2" x="150.93" y="260.06" width="4.64" height="4.64"/>
          <rect class="cls-2" x="150.93" y="255.42" width="4.64" height="4.64"/>
          <rect class="cls-2" x="150.93" y="250.78" width="4.64" height="4.64"/>
          <rect class="cls-2" x="150.93" y="246.13" width="4.64" height="4.64"/>
          <rect class="cls-2" x="150.93" y="241.49" width="4.64" height="4.64"/>
          <rect class="cls-2" x="150.93" y="236.84" width="4.64" height="4.64"/>
          <rect class="cls-2" x="150.93" y="232.2" width="4.64" height="4.64"/>
          <rect class="cls-2" x="150.93" y="227.56" width="4.64" height="4.64"/>
          <rect class="cls-2" x="150.93" y="222.91" width="4.64" height="4.64"/>
          <rect class="cls-2" x="146.29" y="283.28" width="4.64" height="4.64"/>
          <rect class="cls-2" x="146.29" y="264.71" width="4.64" height="4.64"/>
          <rect class="cls-2" x="146.29" y="260.06" width="4.64" height="4.64"/>
          <rect class="cls-2" x="146.29" y="255.42" width="4.64" height="4.64"/>
          <rect class="cls-2" x="146.29" y="250.78" width="4.64" height="4.64"/>
          <rect class="cls-2" x="146.29" y="241.49" width="4.64" height="4.64"/>
          <rect class="cls-2" x="146.29" y="236.84" width="4.64" height="4.64"/>
          <rect class="cls-2" x="146.29" y="232.2" width="4.64" height="4.64"/>
          <rect class="cls-2" x="146.29" y="227.56" width="4.64" height="4.64"/>
          <rect class="cls-2" x="141.64" y="269.35" width="4.64" height="4.64"/>
          <rect class="cls-2" x="141.64" y="264.71" width="4.64" height="4.64"/>
          <rect class="cls-2" x="141.64" y="260.06" width="4.64" height="4.64"/>
          <rect class="cls-2" x="141.64" y="255.42" width="4.64" height="4.64"/>
          <rect class="cls-2" x="141.64" y="250.78" width="4.64" height="4.64"/>
          <rect class="cls-2" x="141.64" y="246.13" width="4.64" height="4.64"/>
          <rect class="cls-2" x="141.64" y="236.84" width="4.64" height="4.64"/>
          <rect class="cls-2" x="141.64" y="232.2" width="4.64" height="4.64"/>
          <rect class="cls-2" x="137" y="269.35" width="4.64" height="4.64"/>
          <rect class="cls-2" x="137" y="264.71" width="4.64" height="4.64"/>
          <rect class="cls-2" x="137" y="260.06" width="4.64" height="4.64"/>
          <rect class="cls-2" x="137" y="255.42" width="4.64" height="4.64"/>
          <rect class="cls-2" x="137" y="250.78" width="4.64" height="4.64"/>
          <rect class="cls-2" x="137" y="246.13" width="4.64" height="4.64"/>
          <rect class="cls-2" x="132.36" y="264.71" width="4.64" height="4.64"/>
          <rect class="cls-2" x="132.36" y="260.06" width="4.64" height="4.64"/>
          <rect class="cls-2" x="132.36" y="255.42" width="4.64" height="4.64"/>
          <rect class="cls-2" x="132.36" y="250.78" width="4.64" height="4.64"/>
          <rect class="cls-2" x="127.71" y="260.06" width="4.64" height="4.64"/>
          <rect class="cls-2" x="127.71" y="255.42" width="4.64" height="4.64"/>
        </g>
      </g>
      <g>
        <rect class="cls-1" x="23.22" y="65.02" width="4.64" height="4.64"/>
        <rect class="cls-1" x="13.93" y="65.02" width="4.64" height="4.64"/>
        <rect class="cls-2" x="32.51" y="65.18" width="4.64" height="4.64"/>
        <rect class="cls-2" x="27.86" y="69.83" width="4.64" height="4.64"/>
        <rect class="cls-2" x="27.86" y="65.18" width="4.64" height="4.64"/>
        <rect class="cls-2" x="27.86" y="60.54" width="4.64" height="4.64"/>
        <rect class="cls-2" x="23.22" y="79.12" width="4.64" height="4.64"/>
        <rect class="cls-2" x="23.22" y="65.18" width="4.64" height="4.64"/>
        <rect class="cls-2" x="23.22" y="55.9" width="4.64" height="4.64"/>
        <rect class="cls-2" x="18.58" y="79.12" width="4.64" height="4.64"/>
        <rect class="cls-2" x="18.58" y="74.47" width="4.64" height="4.64"/>
        <rect class="cls-2" x="18.58" y="69.83" width="4.64" height="4.64"/>
        <rect class="cls-2" x="18.58" y="65.18" width="4.64" height="4.64"/>
        <rect class="cls-2" x="18.58" y="60.54" width="4.64" height="4.64"/>
        <rect class="cls-2" x="18.58" y="55.9" width="4.64" height="4.64"/>
        <rect class="cls-2" x="18.58" y="51.25" width="4.64" height="4.64"/>
        <rect class="cls-2" x="13.93" y="79.12" width="4.64" height="4.64"/>
        <rect class="cls-2" x="13.93" y="65.18" width="4.64" height="4.64"/>
        <rect class="cls-2" x="13.93" y="55.9" width="4.64" height="4.64"/>
        <rect class="cls-2" x="9.29" y="69.83" width="4.64" height="4.64"/>
        <rect class="cls-2" x="9.29" y="65.18" width="4.64" height="4.64"/>
        <rect class="cls-2" x="9.29" y="60.54" width="4.64" height="4.64"/>
        <rect class="cls-2" x="4.64" y="65.18" width="4.64" height="4.64"/>
      </g>
      <g>
        <rect class="cls-2" x="18.58" y="41.96" width="4.64" height="4.64"/>
        <rect class="cls-2" x="27.86" y="37.32" width="4.64" height="4.64"/>
        <rect class="cls-2" x="27.86" y="32.68" width="4.64" height="4.64"/>
        <rect class="cls-2" x="23.22" y="28.03" width="4.64" height="4.64"/>
        <rect class="cls-2" x="18.58" y="28.03" width="4.64" height="4.64"/>
        <rect class="cls-2" x="18.58" y="41.96" width="4.64" height="4.64"/>
        <rect class="cls-2" x="23.22" y="41.96" width="4.64" height="4.64"/>
        <rect class="cls-2" x="18.58" y="14.1" width="4.64" height="4.64"/>
        <rect class="cls-2" x="13.93" y="41.96" width="4.64" height="4.64"/>
        <rect class="cls-2" x="13.93" y="28.03" width="4.64" height="4.64"/>
        <rect class="cls-2" x="13.93" y="41.96" width="4.64" height="4.64"/>
        <rect class="cls-2" x="9.29" y="37.32" width="4.64" height="4.64"/>
        <rect class="cls-2" x="13.93" y="14.1" width="4.64" height="4.64"/>
        <rect class="cls-2" x="9.29" y="14.1" width="4.64" height="4.64"/>
        <rect class="cls-2" x="23.22" y="14.1" width="4.64" height="4.64"/>
        <rect class="cls-2" x="27.86" y="14.1" width="4.64" height="4.64"/>
        <rect class="cls-2" x="9.29" y="23.39" width="4.64" height="4.64"/>
        <rect class="cls-2" x="9.29" y="18.74" width="4.64" height="4.64"/>
      </g>
      <g>
        <rect class="cls-2" x="213.62" y="286.77" width="4.64" height="4.64"/>
        <rect class="cls-2" x="204.34" y="291.41" width="4.64" height="4.64"/>
        <rect class="cls-2" x="204.34" y="296.05" width="4.64" height="4.64"/>
        <rect class="cls-2" x="208.98" y="300.7" width="4.64" height="4.64"/>
        <rect class="cls-2" x="213.62" y="300.7" width="4.64" height="4.64"/>
        <rect class="cls-2" x="213.62" y="286.77" width="4.64" height="4.64"/>
        <rect class="cls-2" x="208.98" y="286.77" width="4.64" height="4.64"/>
        <rect class="cls-2" x="213.62" y="314.63" width="4.64" height="4.64"/>
        <rect class="cls-2" x="218.27" y="286.77" width="4.64" height="4.64"/>
        <rect class="cls-2" x="218.27" y="300.7" width="4.64" height="4.64"/>
        <rect class="cls-2" x="218.27" y="286.77" width="4.64" height="4.64"/>
        <rect class="cls-2" x="222.91" y="291.41" width="4.64" height="4.64"/>
        <rect class="cls-2" x="218.27" y="314.63" width="4.64" height="4.64"/>
        <rect class="cls-2" x="222.91" y="314.63" width="4.64" height="4.64"/>
        <rect class="cls-2" x="208.98" y="314.63" width="4.64" height="4.64"/>
        <rect class="cls-2" x="204.34" y="314.63" width="4.64" height="4.64"/>
        <rect class="cls-2" x="222.91" y="305.34" width="4.64" height="4.64"/>
        <rect class="cls-2" x="222.91" y="309.99" width="4.64" height="4.64"/>
      </g>
    </g>
  </g>
</svg>