<?xml version="1.0" encoding="UTF-8"?>
<svg id="Layer_2" data-name="Layer 2" xmlns="http://www.w3.org/2000/svg" viewBox="0 0 241.49 334.37">
  <defs>
    <style>
      .cls-1 {
        fill: #af0c0f;
      }

      .cls-2 {
        fill: #f2f2f2;
      }

      .cls-3 {
        fill: #dadada;
      }
    </style>
  </defs>
  <g id="_Layer_" data-name="&amp;lt;Layer&amp;gt;">
    <g>
      <path class="cls-2" d="M232.2,0H4.64v4.64H0v325.08h236.84V0h-4.64Z"/>
      <g>
        <rect class="cls-1" x="4.64" y="70.85" width="4.64" height="4.64"/>
        <rect class="cls-1" x="9.29" y="75.49" width="4.64" height="4.64"/>
        <rect class="cls-1" x="9.29" y="70.85" width="4.64" height="4.64"/>
        <rect class="cls-1" x="9.29" y="66.21" width="4.64" height="4.64"/>
        <rect class="cls-1" x="13.93" y="84.78" width="4.64" height="4.64"/>
        <rect class="cls-1" x="13.93" y="80.14" width="4.64" height="4.64"/>
        <rect class="cls-1" x="13.93" y="75.49" width="4.64" height="4.64"/>
        <rect class="cls-1" x="13.93" y="70.85" width="4.64" height="4.64"/>
        <rect class="cls-1" x="13.93" y="66.21" width="4.64" height="4.64"/>
        <rect class="cls-1" x="13.93" y="61.56" width="4.64" height="4.64"/>
        <rect class="cls-1" x="13.93" y="56.92" width="4.64" height="4.64"/>
        <rect class="cls-1" x="18.58" y="89.43" width="4.64" height="4.64"/>
        <rect class="cls-1" x="18.58" y="84.78" width="4.64" height="4.64"/>
        <rect class="cls-1" x="18.58" y="80.14" width="4.64" height="4.64"/>
        <rect class="cls-1" x="18.58" y="75.49" width="4.64" height="4.64"/>
        <rect class="cls-1" x="18.58" y="70.85" width="4.64" height="4.64"/>
        <rect class="cls-1" x="18.58" y="66.21" width="4.64" height="4.64"/>
        <rect class="cls-1" x="18.58" y="61.56" width="4.64" height="4.64"/>
        <rect class="cls-1" x="18.58" y="56.92" width="4.64" height="4.64"/>
        <rect class="cls-1" x="18.58" y="52.27" width="4.64" height="4.64"/>
        <rect class="cls-1" x="23.22" y="84.78" width="4.64" height="4.64"/>
        <rect class="cls-1" x="23.22" y="80.14" width="4.64" height="4.64"/>
        <rect class="cls-1" x="23.22" y="75.49" width="4.64" height="4.64"/>
        <rect class="cls-1" x="23.22" y="70.85" width="4.64" height="4.64"/>
        <rect class="cls-1" x="23.22" y="66.21" width="4.64" height="4.64"/>
        <rect class="cls-1" x="23.22" y="61.56" width="4.64" height="4.64"/>
        <rect class="cls-1" x="23.22" y="56.92" width="4.64" height="4.64"/>
        <rect class="cls-1" x="27.86" y="75.49" width="4.64" height="4.64"/>
        <rect class="cls-1" x="27.86" y="70.85" width="4.64" height="4.64"/>
        <rect class="cls-1" x="27.86" y="66.21" width="4.64" height="4.64"/>
        <rect class="cls-1" x="32.51" y="70.85" width="4.64" height="4.64"/>
      </g>
      <polygon class="cls-3" points="232.2 329.72 227.56 329.72 222.91 329.72 218.27 329.72 213.62 329.72 208.98 329.72 204.34 329.72 199.69 329.72 195.05 329.72 190.4 329.72 185.76 329.72 181.12 329.72 176.47 329.72 171.83 329.72 167.18 329.72 162.54 329.72 157.9 329.72 153.25 329.72 148.61 329.72 143.96 329.72 139.32 329.72 134.68 329.72 130.03 329.72 125.39 329.72 120.74 329.72 116.1 329.72 111.46 329.72 106.81 329.72 102.17 329.72 97.52 329.72 92.88 329.72 88.24 329.72 83.59 329.72 78.95 329.72 74.3 329.72 69.66 329.72 65.02 329.72 60.37 329.72 55.73 329.72 51.08 329.72 46.44 329.72 41.8 329.72 37.15 329.72 32.51 329.72 27.86 329.72 23.22 329.72 18.58 329.72 13.93 329.72 9.29 329.72 4.64 329.72 4.64 334.37 9.29 334.37 13.93 334.37 18.58 334.37 23.22 334.37 27.86 334.37 32.51 334.37 37.15 334.37 41.8 334.37 46.44 334.37 51.08 334.37 55.73 334.37 60.37 334.37 65.02 334.37 69.66 334.37 74.3 334.37 78.95 334.37 83.59 334.37 88.24 334.37 92.88 334.37 97.52 334.37 102.17 334.37 106.81 334.37 111.46 334.37 116.1 334.37 120.74 334.37 125.39 334.37 130.03 334.37 134.68 334.37 139.32 334.37 143.96 334.37 148.61 334.37 153.25 334.37 157.9 334.37 162.54 334.37 167.18 334.37 171.83 334.37 176.47 334.37 181.12 334.37 185.76 334.37 190.4 334.37 195.05 334.37 199.69 334.37 204.34 334.37 208.98 334.37 213.62 334.37 218.27 334.37 222.91 334.37 227.56 334.37 232.2 334.37 236.84 334.37 236.84 329.72 232.2 329.72"/>
      <g>
        <rect class="cls-1" x="199.69" y="259.93" width="4.64" height="4.64"/>
        <rect class="cls-1" x="204.34" y="264.57" width="4.64" height="4.64"/>
        <rect class="cls-1" x="204.34" y="259.93" width="4.64" height="4.64"/>
        <rect class="cls-1" x="204.34" y="255.28" width="4.64" height="4.64"/>
        <rect class="cls-1" x="208.98" y="273.86" width="4.64" height="4.64"/>
        <rect class="cls-1" x="208.98" y="269.21" width="4.64" height="4.64"/>
        <rect class="cls-1" x="208.98" y="264.57" width="4.64" height="4.64"/>
        <rect class="cls-1" x="208.98" y="259.93" width="4.64" height="4.64"/>
        <rect class="cls-1" x="208.98" y="255.28" width="4.64" height="4.64"/>
        <rect class="cls-1" x="208.98" y="250.64" width="4.64" height="4.64"/>
        <rect class="cls-1" x="208.98" y="245.99" width="4.64" height="4.64"/>
        <rect class="cls-1" x="213.62" y="278.5" width="4.64" height="4.64"/>
        <rect class="cls-1" x="213.62" y="273.86" width="4.64" height="4.64"/>
        <rect class="cls-1" x="213.62" y="269.21" width="4.64" height="4.64"/>
        <rect class="cls-1" x="213.62" y="264.57" width="4.64" height="4.64"/>
        <rect class="cls-1" x="213.62" y="259.93" width="4.64" height="4.64"/>
        <rect class="cls-1" x="213.62" y="255.28" width="4.64" height="4.64"/>
        <rect class="cls-1" x="213.62" y="250.64" width="4.64" height="4.64"/>
        <rect class="cls-1" x="213.62" y="245.99" width="4.64" height="4.64"/>
        <rect class="cls-1" x="213.62" y="241.35" width="4.64" height="4.64"/>
        <rect class="cls-1" x="218.27" y="273.86" width="4.64" height="4.64"/>
        <rect class="cls-1" x="218.27" y="269.21" width="4.64" height="4.64"/>
        <rect class="cls-1" x="218.27" y="264.57" width="4.64" height="4.64"/>
        <rect class="cls-1" x="218.27" y="259.93" width="4.64" height="4.64"/>
        <rect class="cls-1" x="218.27" y="255.28" width="4.64" height="4.64"/>
        <rect class="cls-1" x="218.27" y="250.64" width="4.64" height="4.64"/>
        <rect class="cls-1" x="218.27" y="245.99" width="4.64" height="4.64"/>
        <rect class="cls-1" x="222.91" y="264.57" width="4.64" height="4.64"/>
        <rect class="cls-1" x="222.91" y="259.93" width="4.64" height="4.64"/>
        <rect class="cls-1" x="222.91" y="255.28" width="4.64" height="4.64"/>
        <rect class="cls-1" x="227.56" y="259.93" width="4.64" height="4.64"/>
      </g>
      <polygon class="cls-3" points="236.84 4.64 236.84 9.29 236.84 13.93 236.84 18.58 236.84 23.22 236.84 27.86 236.84 32.51 236.84 37.15 236.84 41.8 236.84 46.44 236.84 51.08 236.84 55.73 236.84 60.37 236.84 65.02 236.84 69.66 236.84 74.3 236.84 78.95 236.84 83.59 236.84 88.24 236.84 92.88 236.84 97.52 236.84 102.17 236.84 106.81 236.84 111.46 236.84 116.1 236.84 120.74 236.84 125.39 236.84 130.03 236.84 134.68 236.84 139.32 236.84 143.96 236.84 148.61 236.84 153.25 236.84 157.9 236.84 162.54 236.84 167.18 236.84 171.83 236.84 176.47 236.84 181.12 236.84 185.76 236.84 190.4 236.84 195.05 236.84 199.69 236.84 204.34 236.84 208.98 236.84 213.62 236.84 218.27 236.84 222.91 236.84 227.56 236.84 232.2 236.84 236.84 236.84 241.49 236.84 246.13 236.84 250.78 236.84 255.42 236.84 260.06 236.84 264.71 236.84 269.35 236.84 274 236.84 278.64 236.84 283.28 236.84 287.93 236.84 292.57 236.84 297.22 236.84 301.86 236.84 306.5 236.84 311.15 236.84 315.79 236.84 320.44 236.84 325.08 236.84 329.72 241.49 329.72 241.49 325.08 241.49 320.44 241.49 315.79 241.49 311.15 241.49 306.5 241.49 301.86 241.49 297.22 241.49 292.57 241.49 287.93 241.49 283.28 241.49 278.64 241.49 274 241.49 269.35 241.49 264.71 241.49 260.06 241.49 255.42 241.49 250.78 241.49 246.13 241.49 241.49 241.49 236.84 241.49 232.2 241.49 227.56 241.49 222.91 241.49 218.27 241.49 213.62 241.49 208.98 241.49 204.34 241.49 199.69 241.49 195.05 241.49 190.4 241.49 185.76 241.49 181.12 241.49 176.47 241.49 171.83 241.49 167.18 241.49 162.54 241.49 157.9 241.49 153.25 241.49 148.61 241.49 143.96 241.49 139.32 241.49 134.68 241.49 130.03 241.49 125.39 241.49 120.74 241.49 116.1 241.49 111.46 241.49 106.81 241.49 102.17 241.49 97.52 241.49 92.88 241.49 88.24 241.49 83.59 241.49 78.95 241.49 74.3 241.49 69.66 241.49 65.02 241.49 60.37 241.49 55.73 241.49 51.08 241.49 46.44 241.49 41.8 241.49 37.15 241.49 32.51 241.49 27.86 241.49 23.22 241.49 18.58 241.49 13.93 241.49 9.29 241.49 4.64 236.84 4.64"/>
      <g>
        <rect class="cls-1" x="136.71" y="91.75" width="4.64" height="4.64"/>
        <rect class="cls-1" x="141.35" y="96.39" width="4.64" height="4.64"/>
        <rect class="cls-1" x="141.35" y="91.75" width="4.64" height="4.64"/>
        <rect class="cls-1" x="141.35" y="87.1" width="4.64" height="4.64"/>
        <rect class="cls-1" x="145.99" y="101.04" width="4.64" height="4.64"/>
        <rect class="cls-1" x="145.99" y="96.39" width="4.64" height="4.64"/>
        <rect class="cls-1" x="145.99" y="91.75" width="4.64" height="4.64"/>
        <rect class="cls-1" x="145.99" y="87.1" width="4.64" height="4.64"/>
        <rect class="cls-1" x="145.99" y="82.46" width="4.64" height="4.64"/>
        <rect class="cls-1" x="150.64" y="110.32" width="4.64" height="4.64"/>
        <rect class="cls-1" x="150.64" y="105.68" width="4.64" height="4.64"/>
        <rect class="cls-1" x="150.64" y="101.04" width="4.64" height="4.64"/>
        <rect class="cls-1" x="150.64" y="96.39" width="4.64" height="4.64"/>
        <rect class="cls-1" x="150.64" y="91.75" width="4.64" height="4.64"/>
        <rect class="cls-1" x="150.64" y="87.1" width="4.64" height="4.64"/>
        <rect class="cls-1" x="150.64" y="82.46" width="4.64" height="4.64"/>
        <rect class="cls-1" x="150.64" y="77.82" width="4.64" height="4.64"/>
        <rect class="cls-1" x="155.28" y="119.61" width="4.64" height="4.64"/>
        <rect class="cls-1" x="155.28" y="114.97" width="4.64" height="4.64"/>
        <rect class="cls-1" x="155.28" y="110.32" width="4.64" height="4.64"/>
        <rect class="cls-1" x="155.28" y="105.68" width="4.64" height="4.64"/>
        <rect class="cls-1" x="155.28" y="101.04" width="4.64" height="4.64"/>
        <rect class="cls-1" x="155.28" y="96.39" width="4.64" height="4.64"/>
        <rect class="cls-1" x="155.28" y="91.75" width="4.64" height="4.64"/>
        <rect class="cls-1" x="155.28" y="87.1" width="4.64" height="4.64"/>
        <rect class="cls-1" x="155.28" y="82.46" width="4.64" height="4.64"/>
        <rect class="cls-1" x="155.28" y="77.82" width="4.64" height="4.64"/>
        <rect class="cls-1" x="155.28" y="73.17" width="4.64" height="4.64"/>
        <rect class="cls-1" x="155.28" y="68.53" width="4.64" height="4.64"/>
        <rect class="cls-1" x="159.93" y="124.26" width="4.64" height="4.64"/>
        <rect class="cls-1" x="159.93" y="119.61" width="4.64" height="4.64"/>
        <rect class="cls-1" x="159.93" y="114.97" width="4.64" height="4.64"/>
        <rect class="cls-1" x="159.93" y="110.32" width="4.64" height="4.64"/>
        <rect class="cls-1" x="159.93" y="105.68" width="4.64" height="4.64"/>
        <rect class="cls-1" x="159.93" y="101.04" width="4.64" height="4.64"/>
        <rect class="cls-1" x="159.93" y="96.39" width="4.64" height="4.64"/>
        <rect class="cls-1" x="159.93" y="91.75" width="4.64" height="4.64"/>
        <rect class="cls-1" x="159.93" y="87.1" width="4.64" height="4.64"/>
        <rect class="cls-1" x="159.93" y="82.46" width="4.64" height="4.64"/>
        <rect class="cls-1" x="159.93" y="77.82" width="4.64" height="4.64"/>
        <rect class="cls-1" x="159.93" y="73.17" width="4.64" height="4.64"/>
        <rect class="cls-1" x="159.93" y="68.53" width="4.64" height="4.64"/>
        <rect class="cls-1" x="159.93" y="63.88" width="4.64" height="4.64"/>
        <rect class="cls-1" x="164.57" y="119.61" width="4.64" height="4.64"/>
        <rect class="cls-1" x="164.57" y="114.97" width="4.64" height="4.64"/>
        <rect class="cls-1" x="164.57" y="110.32" width="4.64" height="4.64"/>
        <rect class="cls-1" x="164.57" y="105.68" width="4.64" height="4.64"/>
        <rect class="cls-1" x="164.57" y="101.04" width="4.64" height="4.64"/>
        <rect class="cls-1" x="164.57" y="96.39" width="4.64" height="4.64"/>
        <rect class="cls-1" x="164.57" y="91.75" width="4.64" height="4.64"/>
        <rect class="cls-1" x="164.57" y="87.1" width="4.64" height="4.64"/>
        <rect class="cls-1" x="164.57" y="82.46" width="4.64" height="4.64"/>
        <rect class="cls-1" x="164.57" y="77.82" width="4.64" height="4.64"/>
        <rect class="cls-1" x="164.57" y="73.17" width="4.64" height="4.64"/>
        <rect class="cls-1" x="164.57" y="68.53" width="4.64" height="4.64"/>
        <rect class="cls-1" x="169.21" y="110.32" width="4.64" height="4.64"/>
        <rect class="cls-1" x="169.21" y="105.68" width="4.64" height="4.64"/>
        <rect class="cls-1" x="169.21" y="101.04" width="4.64" height="4.64"/>
        <rect class="cls-1" x="169.21" y="96.39" width="4.64" height="4.64"/>
        <rect class="cls-1" x="169.21" y="91.75" width="4.64" height="4.64"/>
        <rect class="cls-1" x="169.21" y="87.1" width="4.64" height="4.64"/>
        <rect class="cls-1" x="169.21" y="82.46" width="4.64" height="4.64"/>
        <rect class="cls-1" x="169.21" y="77.82" width="4.64" height="4.64"/>
        <rect class="cls-1" x="173.86" y="101.04" width="4.64" height="4.64"/>
        <rect class="cls-1" x="173.86" y="96.39" width="4.64" height="4.64"/>
        <rect class="cls-1" x="173.86" y="91.75" width="4.64" height="4.64"/>
        <rect class="cls-1" x="173.86" y="87.1" width="4.64" height="4.64"/>
        <rect class="cls-1" x="173.86" y="82.46" width="4.64" height="4.64"/>
        <rect class="cls-1" x="178.5" y="96.39" width="4.64" height="4.64"/>
        <rect class="cls-1" x="178.5" y="91.75" width="4.64" height="4.64"/>
        <rect class="cls-1" x="178.5" y="87.1" width="4.64" height="4.64"/>
        <rect class="cls-1" x="183.15" y="91.75" width="4.64" height="4.64"/>
      </g>
      <g>
        <rect class="cls-1" x="58.07" y="91.75" width="4.64" height="4.64"/>
        <rect class="cls-1" x="62.71" y="96.39" width="4.64" height="4.64"/>
        <rect class="cls-1" x="62.71" y="91.75" width="4.64" height="4.64"/>
        <rect class="cls-1" x="62.71" y="87.1" width="4.64" height="4.64"/>
        <rect class="cls-1" x="67.36" y="101.04" width="4.64" height="4.64"/>
        <rect class="cls-1" x="67.36" y="96.39" width="4.64" height="4.64"/>
        <rect class="cls-1" x="67.36" y="91.75" width="4.64" height="4.64"/>
        <rect class="cls-1" x="67.36" y="87.1" width="4.64" height="4.64"/>
        <rect class="cls-1" x="67.36" y="82.46" width="4.64" height="4.64"/>
        <rect class="cls-1" x="72" y="110.32" width="4.64" height="4.64"/>
        <rect class="cls-1" x="72" y="105.68" width="4.64" height="4.64"/>
        <rect class="cls-1" x="72" y="101.04" width="4.64" height="4.64"/>
        <rect class="cls-1" x="72" y="96.39" width="4.64" height="4.64"/>
        <rect class="cls-1" x="72" y="91.75" width="4.64" height="4.64"/>
        <rect class="cls-1" x="72" y="87.1" width="4.64" height="4.64"/>
        <rect class="cls-1" x="72" y="82.46" width="4.64" height="4.64"/>
        <rect class="cls-1" x="72" y="77.82" width="4.64" height="4.64"/>
        <rect class="cls-1" x="76.64" y="119.61" width="4.64" height="4.64"/>
        <rect class="cls-1" x="76.64" y="114.97" width="4.64" height="4.64"/>
        <rect class="cls-1" x="76.64" y="110.32" width="4.64" height="4.64"/>
        <rect class="cls-1" x="76.64" y="105.68" width="4.64" height="4.64"/>
        <rect class="cls-1" x="76.64" y="101.04" width="4.64" height="4.64"/>
        <rect class="cls-1" x="76.64" y="96.39" width="4.64" height="4.64"/>
        <rect class="cls-1" x="76.64" y="91.75" width="4.64" height="4.64"/>
        <rect class="cls-1" x="76.64" y="87.1" width="4.64" height="4.64"/>
        <rect class="cls-1" x="76.64" y="82.46" width="4.64" height="4.64"/>
        <rect class="cls-1" x="76.64" y="77.82" width="4.64" height="4.64"/>
        <rect class="cls-1" x="76.64" y="73.17" width="4.64" height="4.64"/>
        <rect class="cls-1" x="76.64" y="68.53" width="4.64" height="4.64"/>
        <rect class="cls-1" x="81.29" y="124.26" width="4.64" height="4.64"/>
        <rect class="cls-1" x="81.29" y="119.61" width="4.64" height="4.64"/>
        <rect class="cls-1" x="81.29" y="114.97" width="4.64" height="4.64"/>
        <rect class="cls-1" x="81.29" y="110.32" width="4.64" height="4.64"/>
        <rect class="cls-1" x="81.29" y="105.68" width="4.64" height="4.64"/>
        <rect class="cls-1" x="81.29" y="101.04" width="4.64" height="4.64"/>
        <rect class="cls-1" x="81.29" y="96.39" width="4.64" height="4.64"/>
        <rect class="cls-1" x="81.29" y="91.75" width="4.64" height="4.64"/>
        <rect class="cls-1" x="81.29" y="87.1" width="4.64" height="4.64"/>
        <rect class="cls-1" x="81.29" y="82.46" width="4.64" height="4.64"/>
        <rect class="cls-1" x="81.29" y="77.82" width="4.64" height="4.64"/>
        <rect class="cls-1" x="81.29" y="73.17" width="4.64" height="4.64"/>
        <rect class="cls-1" x="81.29" y="68.53" width="4.64" height="4.64"/>
        <rect class="cls-1" x="81.29" y="63.88" width="4.64" height="4.64"/>
        <rect class="cls-1" x="85.93" y="119.61" width="4.64" height="4.64"/>
        <rect class="cls-1" x="85.93" y="114.97" width="4.64" height="4.64"/>
        <rect class="cls-1" x="85.93" y="110.32" width="4.64" height="4.64"/>
        <rect class="cls-1" x="85.93" y="105.68" width="4.64" height="4.64"/>
        <rect class="cls-1" x="85.93" y="101.04" width="4.64" height="4.64"/>
        <rect class="cls-1" x="85.93" y="96.39" width="4.64" height="4.64"/>
        <rect class="cls-1" x="85.93" y="91.75" width="4.64" height="4.64"/>
        <rect class="cls-1" x="85.93" y="87.1" width="4.64" height="4.64"/>
        <rect class="cls-1" x="85.93" y="82.46" width="4.64" height="4.64"/>
        <rect class="cls-1" x="85.93" y="77.82" width="4.64" height="4.64"/>
        <rect class="cls-1" x="85.93" y="73.17" width="4.64" height="4.64"/>
        <rect class="cls-1" x="85.93" y="68.53" width="4.64" height="4.64"/>
        <rect class="cls-1" x="90.58" y="110.32" width="4.64" height="4.64"/>
        <rect class="cls-1" x="90.58" y="105.68" width="4.64" height="4.64"/>
        <rect class="cls-1" x="90.58" y="101.04" width="4.64" height="4.64"/>
        <rect class="cls-1" x="90.58" y="96.39" width="4.64" height="4.64"/>
        <rect class="cls-1" x="90.58" y="91.75" width="4.64" height="4.64"/>
        <rect class="cls-1" x="90.58" y="87.1" width="4.64" height="4.64"/>
        <rect class="cls-1" x="90.58" y="82.46" width="4.64" height="4.64"/>
        <rect class="cls-1" x="90.58" y="77.82" width="4.64" height="4.64"/>
        <rect class="cls-1" x="95.22" y="101.04" width="4.64" height="4.64"/>
        <rect class="cls-1" x="95.22" y="96.39" width="4.64" height="4.64"/>
        <rect class="cls-1" x="95.22" y="91.75" width="4.64" height="4.64"/>
        <rect class="cls-1" x="95.22" y="87.1" width="4.64" height="4.64"/>
        <rect class="cls-1" x="95.22" y="82.46" width="4.64" height="4.64"/>
        <rect class="cls-1" x="99.86" y="96.39" width="4.64" height="4.64"/>
        <rect class="cls-1" x="99.86" y="91.75" width="4.64" height="4.64"/>
        <rect class="cls-1" x="99.86" y="87.1" width="4.64" height="4.64"/>
        <rect class="cls-1" x="104.51" y="91.75" width="4.64" height="4.64"/>
      </g>
      <g>
        <rect class="cls-1" x="95.2" y="173.02" width="4.64" height="4.64"/>
        <rect class="cls-1" x="99.85" y="177.66" width="4.64" height="4.64"/>
        <rect class="cls-1" x="99.85" y="173.02" width="4.64" height="4.64"/>
        <rect class="cls-1" x="99.85" y="168.37" width="4.64" height="4.64"/>
        <rect class="cls-1" x="104.49" y="182.31" width="4.64" height="4.64"/>
        <rect class="cls-1" x="104.49" y="177.66" width="4.64" height="4.64"/>
        <rect class="cls-1" x="104.49" y="173.02" width="4.64" height="4.64"/>
        <rect class="cls-1" x="104.49" y="168.37" width="4.64" height="4.64"/>
        <rect class="cls-1" x="104.49" y="163.73" width="4.64" height="4.64"/>
        <rect class="cls-1" x="109.13" y="191.59" width="4.64" height="4.64"/>
        <rect class="cls-1" x="109.13" y="186.95" width="4.64" height="4.64"/>
        <rect class="cls-1" x="109.13" y="182.31" width="4.64" height="4.64"/>
        <rect class="cls-1" x="109.13" y="177.66" width="4.64" height="4.64"/>
        <rect class="cls-1" x="109.13" y="173.02" width="4.64" height="4.64"/>
        <rect class="cls-1" x="109.13" y="168.37" width="4.64" height="4.64"/>
        <rect class="cls-1" x="109.13" y="163.73" width="4.64" height="4.64"/>
        <rect class="cls-1" x="109.13" y="159.09" width="4.64" height="4.64"/>
        <rect class="cls-1" x="113.78" y="200.88" width="4.64" height="4.64"/>
        <rect class="cls-1" x="113.78" y="196.24" width="4.64" height="4.64"/>
        <rect class="cls-1" x="113.78" y="191.59" width="4.64" height="4.64"/>
        <rect class="cls-1" x="113.78" y="186.95" width="4.64" height="4.64"/>
        <rect class="cls-1" x="113.78" y="182.31" width="4.64" height="4.64"/>
        <rect class="cls-1" x="113.78" y="177.66" width="4.64" height="4.64"/>
        <rect class="cls-1" x="113.78" y="173.02" width="4.64" height="4.64"/>
        <rect class="cls-1" x="113.78" y="168.37" width="4.64" height="4.64"/>
        <rect class="cls-1" x="113.78" y="163.73" width="4.64" height="4.64"/>
        <rect class="cls-1" x="113.78" y="159.09" width="4.64" height="4.64"/>
        <rect class="cls-1" x="113.78" y="154.44" width="4.64" height="4.64"/>
        <rect class="cls-1" x="113.78" y="149.8" width="4.64" height="4.64"/>
        <rect class="cls-1" x="118.42" y="205.53" width="4.64" height="4.64"/>
        <rect class="cls-1" x="118.42" y="200.88" width="4.64" height="4.64"/>
        <rect class="cls-1" x="118.42" y="196.24" width="4.64" height="4.64"/>
        <rect class="cls-1" x="118.42" y="191.59" width="4.64" height="4.64"/>
        <rect class="cls-1" x="118.42" y="186.95" width="4.64" height="4.64"/>
        <rect class="cls-1" x="118.42" y="182.31" width="4.64" height="4.64"/>
        <rect class="cls-1" x="118.42" y="177.66" width="4.64" height="4.64"/>
        <rect class="cls-1" x="118.42" y="173.02" width="4.64" height="4.64"/>
        <rect class="cls-1" x="118.42" y="168.37" width="4.64" height="4.64"/>
        <rect class="cls-1" x="118.42" y="163.73" width="4.64" height="4.64"/>
        <rect class="cls-1" x="118.42" y="159.09" width="4.64" height="4.64"/>
        <rect class="cls-1" x="118.42" y="154.44" width="4.64" height="4.64"/>
        <rect class="cls-1" x="118.42" y="149.8" width="4.64" height="4.64"/>
        <rect class="cls-1" x="118.42" y="145.15" width="4.64" height="4.64"/>
        <rect class="cls-1" x="123.07" y="200.88" width="4.64" height="4.64"/>
        <rect class="cls-1" x="123.07" y="196.24" width="4.64" height="4.64"/>
        <rect class="cls-1" x="123.07" y="191.59" width="4.64" height="4.64"/>
        <rect class="cls-1" x="123.07" y="186.95" width="4.64" height="4.64"/>
        <rect class="cls-1" x="123.07" y="182.31" width="4.64" height="4.64"/>
        <rect class="cls-1" x="123.07" y="177.66" width="4.64" height="4.64"/>
        <rect class="cls-1" x="123.07" y="173.02" width="4.64" height="4.64"/>
        <rect class="cls-1" x="123.07" y="168.37" width="4.64" height="4.64"/>
        <rect class="cls-1" x="123.07" y="163.73" width="4.64" height="4.64"/>
        <rect class="cls-1" x="123.07" y="159.09" width="4.64" height="4.64"/>
        <rect class="cls-1" x="123.07" y="154.44" width="4.64" height="4.64"/>
        <rect class="cls-1" x="123.07" y="149.8" width="4.64" height="4.64"/>
        <rect class="cls-1" x="127.71" y="191.59" width="4.64" height="4.64"/>
        <rect class="cls-1" x="127.71" y="186.95" width="4.64" height="4.64"/>
        <rect class="cls-1" x="127.71" y="182.31" width="4.64" height="4.64"/>
        <rect class="cls-1" x="127.71" y="177.66" width="4.64" height="4.64"/>
        <rect class="cls-1" x="127.71" y="173.02" width="4.64" height="4.64"/>
        <rect class="cls-1" x="127.71" y="168.37" width="4.64" height="4.64"/>
        <rect class="cls-1" x="127.71" y="163.73" width="4.64" height="4.64"/>
        <rect class="cls-1" x="127.71" y="159.09" width="4.64" height="4.64"/>
        <rect class="cls-1" x="132.35" y="182.31" width="4.64" height="4.64"/>
        <rect class="cls-1" x="132.35" y="177.66" width="4.64" height="4.64"/>
        <rect class="cls-1" x="132.35" y="173.02" width="4.64" height="4.64"/>
        <rect class="cls-1" x="132.35" y="168.37" width="4.64" height="4.64"/>
        <rect class="cls-1" x="132.35" y="163.73" width="4.64" height="4.64"/>
        <rect class="cls-1" x="137" y="177.66" width="4.64" height="4.64"/>
        <rect class="cls-1" x="137" y="173.02" width="4.64" height="4.64"/>
        <rect class="cls-1" x="137" y="168.37" width="4.64" height="4.64"/>
        <rect class="cls-1" x="141.64" y="173.02" width="4.64" height="4.64"/>
      </g>
      <g>
        <rect class="cls-1" x="136.71" y="250.64" width="4.64" height="4.64"/>
        <rect class="cls-1" x="141.35" y="255.28" width="4.64" height="4.64"/>
        <rect class="cls-1" x="141.35" y="250.64" width="4.64" height="4.64"/>
        <rect class="cls-1" x="141.35" y="245.99" width="4.64" height="4.64"/>
        <rect class="cls-1" x="145.99" y="259.93" width="4.64" height="4.64"/>
        <rect class="cls-1" x="145.99" y="255.28" width="4.64" height="4.64"/>
        <rect class="cls-1" x="145.99" y="250.64" width="4.64" height="4.64"/>
        <rect class="cls-1" x="145.99" y="245.99" width="4.64" height="4.64"/>
        <rect class="cls-1" x="145.99" y="241.35" width="4.64" height="4.64"/>
        <rect class="cls-1" x="150.64" y="269.21" width="4.64" height="4.64"/>
        <rect class="cls-1" x="150.64" y="264.57" width="4.64" height="4.64"/>
        <rect class="cls-1" x="150.64" y="259.93" width="4.64" height="4.64"/>
        <rect class="cls-1" x="150.64" y="255.28" width="4.64" height="4.64"/>
        <rect class="cls-1" x="150.64" y="250.64" width="4.64" height="4.64"/>
        <rect class="cls-1" x="150.64" y="245.99" width="4.64" height="4.64"/>
        <rect class="cls-1" x="150.64" y="241.35" width="4.64" height="4.64"/>
        <rect class="cls-1" x="150.64" y="236.71" width="4.64" height="4.64"/>
        <rect class="cls-1" x="155.28" y="278.5" width="4.64" height="4.64"/>
        <rect class="cls-1" x="155.28" y="273.86" width="4.64" height="4.64"/>
        <rect class="cls-1" x="155.28" y="269.21" width="4.64" height="4.64"/>
        <rect class="cls-1" x="155.28" y="264.57" width="4.64" height="4.64"/>
        <rect class="cls-1" x="155.28" y="259.93" width="4.64" height="4.64"/>
        <rect class="cls-1" x="155.28" y="255.28" width="4.64" height="4.64"/>
        <rect class="cls-1" x="155.28" y="250.64" width="4.64" height="4.64"/>
        <rect class="cls-1" x="155.28" y="245.99" width="4.64" height="4.64"/>
        <rect class="cls-1" x="155.28" y="241.35" width="4.64" height="4.64"/>
        <rect class="cls-1" x="155.28" y="236.71" width="4.64" height="4.64"/>
        <rect class="cls-1" x="155.28" y="232.06" width="4.64" height="4.64"/>
        <rect class="cls-1" x="155.28" y="227.42" width="4.64" height="4.64"/>
        <rect class="cls-1" x="159.93" y="283.15" width="4.64" height="4.64"/>
        <rect class="cls-1" x="159.93" y="278.5" width="4.64" height="4.64"/>
        <rect class="cls-1" x="159.93" y="273.86" width="4.64" height="4.64"/>
        <rect class="cls-1" x="159.93" y="269.21" width="4.64" height="4.64"/>
        <rect class="cls-1" x="159.93" y="264.57" width="4.64" height="4.64"/>
        <rect class="cls-1" x="159.93" y="259.93" width="4.64" height="4.64"/>
        <rect class="cls-1" x="159.93" y="255.28" width="4.64" height="4.64"/>
        <rect class="cls-1" x="159.93" y="250.64" width="4.64" height="4.64"/>
        <rect class="cls-1" x="159.93" y="245.99" width="4.64" height="4.64"/>
        <rect class="cls-1" x="159.93" y="241.35" width="4.64" height="4.64"/>
        <rect class="cls-1" x="159.93" y="236.71" width="4.64" height="4.64"/>
        <rect class="cls-1" x="159.93" y="232.06" width="4.64" height="4.64"/>
        <rect class="cls-1" x="159.93" y="227.42" width="4.64" height="4.64"/>
        <rect class="cls-1" x="159.93" y="222.77" width="4.64" height="4.64"/>
        <rect class="cls-1" x="164.57" y="278.5" width="4.64" height="4.64"/>
        <rect class="cls-1" x="164.57" y="273.86" width="4.64" height="4.64"/>
        <rect class="cls-1" x="164.57" y="269.21" width="4.64" height="4.64"/>
        <rect class="cls-1" x="164.57" y="264.57" width="4.64" height="4.64"/>
        <rect class="cls-1" x="164.57" y="259.93" width="4.64" height="4.64"/>
        <rect class="cls-1" x="164.57" y="255.28" width="4.64" height="4.64"/>
        <rect class="cls-1" x="164.57" y="250.64" width="4.64" height="4.64"/>
        <rect class="cls-1" x="164.57" y="245.99" width="4.64" height="4.64"/>
        <rect class="cls-1" x="164.57" y="241.35" width="4.64" height="4.64"/>
        <rect class="cls-1" x="164.57" y="236.71" width="4.64" height="4.64"/>
        <rect class="cls-1" x="164.57" y="232.06" width="4.64" height="4.64"/>
        <rect class="cls-1" x="164.57" y="227.42" width="4.64" height="4.64"/>
        <rect class="cls-1" x="169.21" y="269.21" width="4.64" height="4.64"/>
        <rect class="cls-1" x="169.21" y="264.57" width="4.64" height="4.64"/>
        <rect class="cls-1" x="169.21" y="259.93" width="4.64" height="4.64"/>
        <rect class="cls-1" x="169.21" y="255.28" width="4.64" height="4.64"/>
        <rect class="cls-1" x="169.21" y="250.64" width="4.64" height="4.64"/>
        <rect class="cls-1" x="169.21" y="245.99" width="4.64" height="4.64"/>
        <rect class="cls-1" x="169.21" y="241.35" width="4.64" height="4.64"/>
        <rect class="cls-1" x="169.21" y="236.71" width="4.64" height="4.64"/>
        <rect class="cls-1" x="173.86" y="259.93" width="4.64" height="4.64"/>
        <rect class="cls-1" x="173.86" y="255.28" width="4.64" height="4.64"/>
        <rect class="cls-1" x="173.86" y="250.64" width="4.64" height="4.64"/>
        <rect class="cls-1" x="173.86" y="245.99" width="4.64" height="4.64"/>
        <rect class="cls-1" x="173.86" y="241.35" width="4.64" height="4.64"/>
        <rect class="cls-1" x="178.5" y="255.28" width="4.64" height="4.64"/>
        <rect class="cls-1" x="178.5" y="250.64" width="4.64" height="4.64"/>
        <rect class="cls-1" x="178.5" y="245.99" width="4.64" height="4.64"/>
        <rect class="cls-1" x="183.15" y="250.64" width="4.64" height="4.64"/>
      </g>
      <g>
        <rect class="cls-1" x="58.07" y="250.64" width="4.64" height="4.64"/>
        <rect class="cls-1" x="62.71" y="255.28" width="4.64" height="4.64"/>
        <rect class="cls-1" x="62.71" y="250.64" width="4.64" height="4.64"/>
        <rect class="cls-1" x="62.71" y="245.99" width="4.64" height="4.64"/>
        <rect class="cls-1" x="67.36" y="259.93" width="4.64" height="4.64"/>
        <rect class="cls-1" x="67.36" y="255.28" width="4.64" height="4.64"/>
        <rect class="cls-1" x="67.36" y="250.64" width="4.64" height="4.64"/>
        <rect class="cls-1" x="67.36" y="245.99" width="4.64" height="4.64"/>
        <rect class="cls-1" x="67.36" y="241.35" width="4.64" height="4.64"/>
        <rect class="cls-1" x="72" y="269.21" width="4.64" height="4.64"/>
        <rect class="cls-1" x="72" y="264.57" width="4.64" height="4.64"/>
        <rect class="cls-1" x="72" y="259.93" width="4.64" height="4.64"/>
        <rect class="cls-1" x="72" y="255.28" width="4.64" height="4.64"/>
        <rect class="cls-1" x="72" y="250.64" width="4.64" height="4.64"/>
        <rect class="cls-1" x="72" y="245.99" width="4.64" height="4.64"/>
        <rect class="cls-1" x="72" y="241.35" width="4.64" height="4.64"/>
        <rect class="cls-1" x="72" y="236.71" width="4.64" height="4.64"/>
        <rect class="cls-1" x="76.64" y="278.5" width="4.64" height="4.64"/>
        <rect class="cls-1" x="76.64" y="273.86" width="4.64" height="4.64"/>
        <rect class="cls-1" x="76.64" y="269.21" width="4.64" height="4.64"/>
        <rect class="cls-1" x="76.64" y="264.57" width="4.64" height="4.64"/>
        <rect class="cls-1" x="76.64" y="259.93" width="4.64" height="4.64"/>
        <rect class="cls-1" x="76.64" y="255.28" width="4.64" height="4.64"/>
        <rect class="cls-1" x="76.64" y="250.64" width="4.64" height="4.64"/>
        <rect class="cls-1" x="76.64" y="245.99" width="4.64" height="4.64"/>
        <rect class="cls-1" x="76.64" y="241.35" width="4.64" height="4.64"/>
        <rect class="cls-1" x="76.64" y="236.71" width="4.64" height="4.64"/>
        <rect class="cls-1" x="76.64" y="232.06" width="4.64" height="4.64"/>
        <rect class="cls-1" x="76.64" y="227.42" width="4.64" height="4.64"/>
        <rect class="cls-1" x="81.29" y="283.15" width="4.64" height="4.64"/>
        <rect class="cls-1" x="81.29" y="278.5" width="4.64" height="4.64"/>
        <rect class="cls-1" x="81.29" y="273.86" width="4.64" height="4.64"/>
        <rect class="cls-1" x="81.29" y="269.21" width="4.64" height="4.64"/>
        <rect class="cls-1" x="81.29" y="264.57" width="4.64" height="4.64"/>
        <rect class="cls-1" x="81.29" y="259.93" width="4.64" height="4.64"/>
        <rect class="cls-1" x="81.29" y="255.28" width="4.64" height="4.64"/>
        <rect class="cls-1" x="81.29" y="250.64" width="4.64" height="4.64"/>
        <rect class="cls-1" x="81.29" y="245.99" width="4.64" height="4.64"/>
        <rect class="cls-1" x="81.29" y="241.35" width="4.64" height="4.64"/>
        <rect class="cls-1" x="81.29" y="236.71" width="4.64" height="4.64"/>
        <rect class="cls-1" x="81.29" y="232.06" width="4.64" height="4.64"/>
        <rect class="cls-1" x="81.29" y="227.42" width="4.64" height="4.64"/>
        <rect class="cls-1" x="81.29" y="222.77" width="4.64" height="4.64"/>
        <rect class="cls-1" x="85.93" y="278.5" width="4.64" height="4.64"/>
        <rect class="cls-1" x="85.93" y="273.86" width="4.64" height="4.64"/>
        <rect class="cls-1" x="85.93" y="269.21" width="4.64" height="4.64"/>
        <rect class="cls-1" x="85.93" y="264.57" width="4.64" height="4.64"/>
        <rect class="cls-1" x="85.93" y="259.93" width="4.64" height="4.64"/>
        <rect class="cls-1" x="85.93" y="255.28" width="4.64" height="4.64"/>
        <rect class="cls-1" x="85.93" y="250.64" width="4.64" height="4.64"/>
        <rect class="cls-1" x="85.93" y="245.99" width="4.64" height="4.64"/>
        <rect class="cls-1" x="85.93" y="241.35" width="4.64" height="4.64"/>
        <rect class="cls-1" x="85.93" y="236.71" width="4.64" height="4.64"/>
        <rect class="cls-1" x="85.93" y="232.06" width="4.64" height="4.64"/>
        <rect class="cls-1" x="85.93" y="227.42" width="4.64" height="4.64"/>
        <rect class="cls-1" x="90.58" y="269.21" width="4.64" height="4.64"/>
        <rect class="cls-1" x="90.58" y="264.57" width="4.64" height="4.64"/>
        <rect class="cls-1" x="90.58" y="259.93" width="4.64" height="4.64"/>
        <rect class="cls-1" x="90.58" y="255.28" width="4.64" height="4.64"/>
        <rect class="cls-1" x="90.58" y="250.64" width="4.64" height="4.64"/>
        <rect class="cls-1" x="90.58" y="245.99" width="4.64" height="4.64"/>
        <rect class="cls-1" x="90.58" y="241.35" width="4.64" height="4.64"/>
        <rect class="cls-1" x="90.58" y="236.71" width="4.64" height="4.64"/>
        <rect class="cls-1" x="95.22" y="259.93" width="4.64" height="4.64"/>
        <rect class="cls-1" x="95.22" y="255.28" width="4.64" height="4.64"/>
        <rect class="cls-1" x="95.22" y="250.64" width="4.64" height="4.64"/>
        <rect class="cls-1" x="95.22" y="245.99" width="4.64" height="4.64"/>
        <rect class="cls-1" x="95.22" y="241.35" width="4.64" height="4.64"/>
        <rect class="cls-1" x="99.86" y="255.28" width="4.64" height="4.64"/>
        <rect class="cls-1" x="99.86" y="250.64" width="4.64" height="4.64"/>
        <rect class="cls-1" x="99.86" y="245.99" width="4.64" height="4.64"/>
        <rect class="cls-1" x="104.51" y="250.64" width="4.64" height="4.64"/>
      </g>
      <g>
        <rect class="cls-1" x="18.58" y="42.99" width="4.64" height="4.64"/>
        <rect class="cls-1" x="27.86" y="38.34" width="4.64" height="4.64"/>
        <rect class="cls-1" x="27.86" y="33.7" width="4.64" height="4.64"/>
        <rect class="cls-1" x="23.22" y="29.05" width="4.64" height="4.64"/>
        <rect class="cls-1" x="18.58" y="29.05" width="4.64" height="4.64"/>
        <rect class="cls-1" x="18.58" y="42.99" width="4.64" height="4.64"/>
        <rect class="cls-1" x="23.22" y="42.99" width="4.64" height="4.64"/>
        <rect class="cls-1" x="18.58" y="15.12" width="4.64" height="4.64"/>
        <rect class="cls-1" x="13.93" y="42.99" width="4.64" height="4.64"/>
        <rect class="cls-1" x="13.93" y="29.05" width="4.64" height="4.64"/>
        <rect class="cls-1" x="13.93" y="42.99" width="4.64" height="4.64"/>
        <rect class="cls-1" x="9.29" y="38.34" width="4.64" height="4.64"/>
        <rect class="cls-1" x="13.93" y="15.12" width="4.64" height="4.64"/>
        <rect class="cls-1" x="9.29" y="15.12" width="4.64" height="4.64"/>
        <rect class="cls-1" x="23.22" y="15.12" width="4.64" height="4.64"/>
        <rect class="cls-1" x="27.86" y="15.12" width="4.64" height="4.64"/>
        <rect class="cls-1" x="9.29" y="24.41" width="4.64" height="4.64"/>
        <rect class="cls-1" x="9.29" y="19.77" width="4.64" height="4.64"/>
      </g>
      <g>
        <rect class="cls-1" x="213.62" y="287.79" width="4.64" height="4.64"/>
        <rect class="cls-1" x="204.34" y="292.43" width="4.64" height="4.64"/>
        <rect class="cls-1" x="204.34" y="297.08" width="4.64" height="4.64"/>
        <rect class="cls-1" x="208.98" y="301.72" width="4.64" height="4.64"/>
        <rect class="cls-1" x="213.62" y="301.72" width="4.64" height="4.64"/>
        <rect class="cls-1" x="213.62" y="287.79" width="4.64" height="4.64"/>
        <rect class="cls-1" x="208.98" y="287.79" width="4.64" height="4.64"/>
        <rect class="cls-1" x="213.62" y="315.65" width="4.64" height="4.64"/>
        <rect class="cls-1" x="218.27" y="287.79" width="4.64" height="4.64"/>
        <rect class="cls-1" x="218.27" y="301.72" width="4.64" height="4.64"/>
        <rect class="cls-1" x="218.27" y="287.79" width="4.64" height="4.64"/>
        <rect class="cls-1" x="222.91" y="292.43" width="4.64" height="4.64"/>
        <rect class="cls-1" x="218.27" y="315.65" width="4.64" height="4.64"/>
        <rect class="cls-1" x="222.91" y="315.65" width="4.64" height="4.64"/>
        <rect class="cls-1" x="208.98" y="315.65" width="4.64" height="4.64"/>
        <rect class="cls-1" x="204.34" y="315.65" width="4.64" height="4.64"/>
        <rect class="cls-1" x="222.91" y="306.37" width="4.64" height="4.64"/>
        <rect class="cls-1" x="222.91" y="311.01" width="4.64" height="4.64"/>
      </g>
    </g>
  </g>
</svg>