<?xml version="1.0" encoding="UTF-8"?>
<svg id="Layer_2" data-name="Layer 2" xmlns="http://www.w3.org/2000/svg" viewBox="0 0 241.49 334.37">
  <defs>
    <style>
      .cls-1 {
        fill: #f2f2f2;
      }

      .cls-2 {
        fill: #1d1d1b;
      }

      .cls-3 {
        fill: #dadada;
      }
    </style>
  </defs>
  <g id="_Layer_" data-name="&amp;lt;Layer&amp;gt;">
    <g>
      <g>
        <rect class="cls-2" x="4.64" y="69.66" width="4.64" height="4.64"/>
        <rect class="cls-2" x="9.29" y="74.3" width="4.64" height="4.64"/>
        <rect class="cls-2" x="9.29" y="69.66" width="4.64" height="4.64"/>
        <rect class="cls-2" x="9.29" y="65.02" width="4.64" height="4.64"/>
        <rect class="cls-2" x="9.29" y="46.44" width="4.64" height="4.64"/>
        <rect class="cls-2" x="9.29" y="41.8" width="4.64" height="4.64"/>
        <rect class="cls-2" x="9.29" y="37.15" width="4.64" height="4.64"/>
        <rect class="cls-2" x="9.29" y="32.51" width="4.64" height="4.64"/>
        <rect class="cls-2" x="9.29" y="27.86" width="4.64" height="4.64"/>
        <rect class="cls-2" x="9.29" y="23.22" width="4.64" height="4.64"/>
        <rect class="cls-2" x="13.93" y="69.66" width="4.64" height="4.64"/>
        <rect class="cls-2" x="13.93" y="60.37" width="4.64" height="4.64"/>
        <rect class="cls-2" x="13.93" y="37.15" width="4.64" height="4.64"/>
        <rect class="cls-2" x="13.93" y="18.58" width="4.64" height="4.64"/>
        <rect class="cls-2" x="18.58" y="83.59" width="4.64" height="4.64"/>
        <rect class="cls-2" x="18.58" y="78.95" width="4.64" height="4.64"/>
        <rect class="cls-2" x="18.58" y="74.3" width="4.64" height="4.64"/>
        <rect class="cls-2" x="18.58" y="69.66" width="4.64" height="4.64"/>
        <rect class="cls-2" x="18.58" y="65.02" width="4.64" height="4.64"/>
        <rect class="cls-2" x="18.58" y="60.37" width="4.64" height="4.64"/>
        <rect class="cls-2" x="18.58" y="55.73" width="4.64" height="4.64"/>
        <rect class="cls-2" x="18.58" y="37.15" width="4.64" height="4.64"/>
        <rect class="cls-2" x="18.58" y="18.58" width="4.64" height="4.64"/>
        <rect class="cls-2" x="23.22" y="69.66" width="4.64" height="4.64"/>
        <rect class="cls-2" x="23.22" y="60.37" width="4.64" height="4.64"/>
        <rect class="cls-2" x="23.22" y="37.15" width="4.64" height="4.64"/>
        <rect class="cls-2" x="23.22" y="18.58" width="4.64" height="4.64"/>
        <rect class="cls-2" x="27.86" y="74.3" width="4.64" height="4.64"/>
        <rect class="cls-2" x="27.86" y="69.66" width="4.64" height="4.64"/>
        <rect class="cls-2" x="27.86" y="65.02" width="4.64" height="4.64"/>
        <rect class="cls-2" x="27.86" y="46.44" width="4.64" height="4.64"/>
        <rect class="cls-2" x="27.86" y="41.8" width="4.64" height="4.64"/>
        <rect class="cls-2" x="27.86" y="37.15" width="4.64" height="4.64"/>
        <rect class="cls-2" x="27.86" y="32.51" width="4.64" height="4.64"/>
        <rect class="cls-2" x="27.86" y="27.86" width="4.64" height="4.64"/>
        <rect class="cls-2" x="27.86" y="23.22" width="4.64" height="4.64"/>
        <rect class="cls-2" x="32.51" y="69.66" width="4.64" height="4.64"/>
        <rect class="cls-2" x="92.88" y="176.47" width="4.64" height="4.64"/>
        <rect class="cls-2" x="92.88" y="171.83" width="4.64" height="4.64"/>
        <rect class="cls-2" x="92.88" y="167.18" width="4.64" height="4.64"/>
        <rect class="cls-2" x="97.52" y="181.12" width="4.64" height="4.64"/>
        <rect class="cls-2" x="97.52" y="176.47" width="4.64" height="4.64"/>
        <rect class="cls-2" x="97.52" y="171.83" width="4.64" height="4.64"/>
        <rect class="cls-2" x="97.52" y="167.18" width="4.64" height="4.64"/>
        <rect class="cls-2" x="97.52" y="162.54" width="4.64" height="4.64"/>
        <rect class="cls-2" x="102.17" y="181.12" width="4.64" height="4.64"/>
        <rect class="cls-2" x="102.17" y="176.47" width="4.64" height="4.64"/>
        <rect class="cls-2" x="102.17" y="171.83" width="4.64" height="4.64"/>
        <rect class="cls-2" x="102.17" y="167.18" width="4.64" height="4.64"/>
        <rect class="cls-2" x="102.17" y="162.54" width="4.64" height="4.64"/>
        <rect class="cls-2" x="102.17" y="157.9" width="4.64" height="4.64"/>
        <rect class="cls-2" x="102.17" y="153.25" width="4.64" height="4.64"/>
        <rect class="cls-2" x="106.81" y="181.12" width="4.64" height="4.64"/>
        <rect class="cls-2" x="106.81" y="176.47" width="4.64" height="4.64"/>
        <rect class="cls-2" x="106.81" y="171.83" width="4.64" height="4.64"/>
        <rect class="cls-2" x="106.81" y="167.18" width="4.64" height="4.64"/>
        <rect class="cls-2" x="106.81" y="162.54" width="4.64" height="4.64"/>
        <rect class="cls-2" x="106.81" y="157.9" width="4.64" height="4.64"/>
        <rect class="cls-2" x="106.81" y="153.25" width="4.64" height="4.64"/>
        <rect class="cls-2" x="106.81" y="148.61" width="4.64" height="4.64"/>
        <rect class="cls-2" x="111.46" y="195.05" width="4.64" height="4.64"/>
        <rect class="cls-2" x="111.46" y="181.12" width="4.64" height="4.64"/>
        <rect class="cls-2" x="111.46" y="176.47" width="4.64" height="4.64"/>
        <rect class="cls-2" x="111.46" y="171.83" width="4.64" height="4.64"/>
        <rect class="cls-2" x="111.46" y="167.18" width="4.64" height="4.64"/>
        <rect class="cls-2" x="111.46" y="162.54" width="4.64" height="4.64"/>
        <rect class="cls-2" x="111.46" y="157.9" width="4.64" height="4.64"/>
        <rect class="cls-2" x="111.46" y="153.25" width="4.64" height="4.64"/>
        <rect class="cls-2" x="111.46" y="148.61" width="4.64" height="4.64"/>
        <rect class="cls-2" x="111.46" y="143.96" width="4.64" height="4.64"/>
        <rect class="cls-2" x="116.1" y="195.05" width="4.64" height="4.64"/>
        <rect class="cls-2" x="116.1" y="190.4" width="4.64" height="4.64"/>
        <rect class="cls-2" x="116.1" y="176.47" width="4.64" height="4.64"/>
        <rect class="cls-2" x="116.1" y="171.83" width="4.64" height="4.64"/>
        <rect class="cls-2" x="116.1" y="167.18" width="4.64" height="4.64"/>
        <rect class="cls-2" x="116.1" y="162.54" width="4.64" height="4.64"/>
        <rect class="cls-2" x="116.1" y="157.9" width="4.64" height="4.64"/>
        <rect class="cls-2" x="116.1" y="153.25" width="4.64" height="4.64"/>
        <rect class="cls-2" x="116.1" y="148.61" width="4.64" height="4.64"/>
        <rect class="cls-2" x="116.1" y="143.96" width="4.64" height="4.64"/>
        <rect class="cls-2" x="116.1" y="139.32" width="4.64" height="4.64"/>
        <rect class="cls-2" x="120.74" y="195.05" width="4.64" height="4.64"/>
        <rect class="cls-2" x="120.74" y="190.4" width="4.64" height="4.64"/>
        <rect class="cls-2" x="120.74" y="185.76" width="4.64" height="4.64"/>
        <rect class="cls-2" x="120.74" y="181.12" width="4.64" height="4.64"/>
        <rect class="cls-2" x="120.74" y="176.47" width="4.64" height="4.64"/>
        <rect class="cls-2" x="120.74" y="171.83" width="4.64" height="4.64"/>
        <rect class="cls-2" x="120.74" y="167.18" width="4.64" height="4.64"/>
        <rect class="cls-2" x="120.74" y="162.54" width="4.64" height="4.64"/>
        <rect class="cls-2" x="120.74" y="157.9" width="4.64" height="4.64"/>
        <rect class="cls-2" x="120.74" y="153.25" width="4.64" height="4.64"/>
        <rect class="cls-2" x="120.74" y="148.61" width="4.64" height="4.64"/>
        <rect class="cls-2" x="120.74" y="143.96" width="4.64" height="4.64"/>
        <rect class="cls-2" x="120.74" y="139.32" width="4.64" height="4.64"/>
        <rect class="cls-2" x="120.74" y="134.68" width="4.64" height="4.64"/>
        <rect class="cls-2" x="125.39" y="195.05" width="4.64" height="4.64"/>
        <rect class="cls-2" x="125.39" y="190.4" width="4.64" height="4.64"/>
        <rect class="cls-2" x="125.39" y="176.47" width="4.64" height="4.64"/>
        <rect class="cls-2" x="125.39" y="171.83" width="4.64" height="4.64"/>
        <rect class="cls-2" x="125.39" y="167.18" width="4.64" height="4.64"/>
        <rect class="cls-2" x="125.39" y="162.54" width="4.64" height="4.64"/>
        <rect class="cls-2" x="125.39" y="157.9" width="4.64" height="4.64"/>
        <rect class="cls-2" x="125.39" y="153.25" width="4.64" height="4.64"/>
        <rect class="cls-2" x="125.39" y="148.61" width="4.64" height="4.64"/>
        <rect class="cls-2" x="125.39" y="143.96" width="4.64" height="4.64"/>
        <rect class="cls-2" x="125.39" y="139.32" width="4.64" height="4.64"/>
        <rect class="cls-2" x="130.03" y="195.05" width="4.64" height="4.64"/>
        <rect class="cls-2" x="130.03" y="181.12" width="4.64" height="4.64"/>
        <rect class="cls-2" x="130.03" y="176.47" width="4.64" height="4.64"/>
        <rect class="cls-2" x="130.03" y="171.83" width="4.64" height="4.64"/>
        <rect class="cls-2" x="130.03" y="167.18" width="4.64" height="4.64"/>
        <rect class="cls-2" x="130.03" y="162.54" width="4.64" height="4.64"/>
        <rect class="cls-2" x="130.03" y="157.9" width="4.64" height="4.64"/>
        <rect class="cls-2" x="130.03" y="153.25" width="4.64" height="4.64"/>
        <rect class="cls-2" x="130.03" y="148.61" width="4.64" height="4.64"/>
        <rect class="cls-2" x="130.03" y="143.96" width="4.64" height="4.64"/>
        <rect class="cls-2" x="134.68" y="181.12" width="4.64" height="4.64"/>
        <rect class="cls-2" x="134.68" y="176.47" width="4.64" height="4.64"/>
        <rect class="cls-2" x="134.68" y="171.83" width="4.64" height="4.64"/>
        <rect class="cls-2" x="134.68" y="167.18" width="4.64" height="4.64"/>
        <rect class="cls-2" x="134.68" y="162.54" width="4.64" height="4.64"/>
        <rect class="cls-2" x="134.68" y="157.9" width="4.64" height="4.64"/>
        <rect class="cls-2" x="134.68" y="153.25" width="4.64" height="4.64"/>
        <rect class="cls-2" x="134.68" y="148.61" width="4.64" height="4.64"/>
        <rect class="cls-2" x="139.32" y="181.12" width="4.64" height="4.64"/>
        <rect class="cls-2" x="139.32" y="176.47" width="4.64" height="4.64"/>
        <rect class="cls-2" x="139.32" y="171.83" width="4.64" height="4.64"/>
        <rect class="cls-2" x="139.32" y="167.18" width="4.64" height="4.64"/>
        <rect class="cls-2" x="139.32" y="162.54" width="4.64" height="4.64"/>
        <rect class="cls-2" x="139.32" y="157.9" width="4.64" height="4.64"/>
        <rect class="cls-2" x="139.32" y="153.25" width="4.64" height="4.64"/>
        <rect class="cls-2" x="143.96" y="181.12" width="4.64" height="4.64"/>
        <rect class="cls-2" x="143.96" y="176.47" width="4.64" height="4.64"/>
        <rect class="cls-2" x="143.96" y="171.83" width="4.64" height="4.64"/>
        <rect class="cls-2" x="143.96" y="167.18" width="4.64" height="4.64"/>
        <rect class="cls-2" x="143.96" y="162.54" width="4.64" height="4.64"/>
        <rect class="cls-2" x="148.61" y="176.47" width="4.64" height="4.64"/>
        <rect class="cls-2" x="148.61" y="171.83" width="4.64" height="4.64"/>
        <rect class="cls-2" x="148.61" y="167.18" width="4.64" height="4.64"/>
        <rect class="cls-2" x="204.34" y="260.06" width="4.64" height="4.64"/>
        <rect class="cls-2" x="208.98" y="306.5" width="4.64" height="4.64"/>
        <rect class="cls-2" x="208.98" y="301.86" width="4.64" height="4.64"/>
        <rect class="cls-2" x="208.98" y="297.22" width="4.64" height="4.64"/>
        <rect class="cls-2" x="208.98" y="292.57" width="4.64" height="4.64"/>
        <rect class="cls-2" x="208.98" y="287.93" width="4.64" height="4.64"/>
        <rect class="cls-2" x="208.98" y="283.28" width="4.64" height="4.64"/>
        <rect class="cls-2" x="208.98" y="264.71" width="4.64" height="4.64"/>
        <rect class="cls-2" x="208.98" y="260.06" width="4.64" height="4.64"/>
        <rect class="cls-2" x="208.98" y="255.42" width="4.64" height="4.64"/>
        <rect class="cls-2" x="213.62" y="311.15" width="4.64" height="4.64"/>
        <rect class="cls-2" x="213.62" y="292.57" width="4.64" height="4.64"/>
        <rect class="cls-2" x="213.62" y="269.35" width="4.64" height="4.64"/>
        <rect class="cls-2" x="213.62" y="260.06" width="4.64" height="4.64"/>
        <rect class="cls-2" x="218.27" y="311.15" width="4.64" height="4.64"/>
        <rect class="cls-2" x="218.27" y="292.57" width="4.64" height="4.64"/>
        <rect class="cls-2" x="218.27" y="274" width="4.64" height="4.64"/>
        <rect class="cls-2" x="218.27" y="269.35" width="4.64" height="4.64"/>
        <rect class="cls-2" x="218.27" y="264.71" width="4.64" height="4.64"/>
        <rect class="cls-2" x="218.27" y="260.06" width="4.64" height="4.64"/>
        <rect class="cls-2" x="218.27" y="255.42" width="4.64" height="4.64"/>
        <rect class="cls-2" x="218.27" y="250.78" width="4.64" height="4.64"/>
        <rect class="cls-2" x="218.27" y="246.13" width="4.64" height="4.64"/>
        <rect class="cls-2" x="222.91" y="311.15" width="4.64" height="4.64"/>
        <rect class="cls-2" x="222.91" y="292.57" width="4.64" height="4.64"/>
        <rect class="cls-2" x="222.91" y="269.35" width="4.64" height="4.64"/>
        <rect class="cls-2" x="222.91" y="260.06" width="4.64" height="4.64"/>
        <rect class="cls-2" x="227.56" y="306.5" width="4.64" height="4.64"/>
        <rect class="cls-2" x="227.56" y="301.86" width="4.64" height="4.64"/>
        <rect class="cls-2" x="227.56" y="297.22" width="4.64" height="4.64"/>
        <rect class="cls-2" x="227.56" y="292.57" width="4.64" height="4.64"/>
        <rect class="cls-2" x="227.56" y="287.93" width="4.64" height="4.64"/>
        <rect class="cls-2" x="227.56" y="283.28" width="4.64" height="4.64"/>
        <rect class="cls-2" x="227.56" y="264.71" width="4.64" height="4.64"/>
        <rect class="cls-2" x="227.56" y="260.06" width="4.64" height="4.64"/>
        <rect class="cls-2" x="227.56" y="255.42" width="4.64" height="4.64"/>
        <rect class="cls-2" x="232.2" y="260.06" width="4.64" height="4.64"/>
        <g>
          <rect class="cls-1" x="13.93" y="65.02" width="4.64" height="4.64"/>
          <polygon class="cls-1" points="13.93 32.51 13.93 37.15 18.58 37.15 23.22 37.15 27.86 37.15 27.86 32.51 27.86 27.86 27.86 23.22 23.22 23.22 18.58 23.22 13.93 23.22 13.93 27.86 13.93 32.51"/>
          <rect class="cls-1" x="23.22" y="65.02" width="4.64" height="4.64"/>
          <rect class="cls-1" x="213.62" y="264.71" width="4.64" height="4.64"/>
          <polygon class="cls-1" points="227.56 301.86 227.56 297.22 222.91 297.22 218.27 297.22 213.62 297.22 213.62 301.86 213.62 306.5 213.62 311.15 218.27 311.15 222.91 311.15 227.56 311.15 227.56 306.5 227.56 301.86"/>
          <rect class="cls-1" x="222.91" y="264.71" width="4.64" height="4.64"/>
          <path class="cls-1" d="M232.2,0H4.64v4.64H0v325.08h236.84v-65.02h-4.64v4.64h-4.64v4.64h-4.64v4.64h-4.64v-4.64h-4.64v-4.64h-4.64v-4.64h-4.64v-4.64h4.64v-4.64h4.64v4.64h4.64v-13.93h4.64v13.93h4.64v-4.64h4.64v4.64h4.64V0h-4.64ZM9.29,51.08v-27.86h4.64v-4.64h13.93v4.64h4.64v27.86h-4.64v-9.29h-13.93v9.29h-4.64ZM153.25,181.12h-4.64v4.64h-18.58v-4.64h-4.64v9.29h4.64v4.64h4.64v4.64h-23.22v-4.64h4.64v-4.64h4.64v-9.29h-4.64v4.64h-18.58v-4.64h-4.64v-13.93h4.64v-4.64h4.64v-9.29h4.64v-4.64h4.64v-4.64h4.64v-4.64h4.64v-4.64h4.64v4.64h4.64v4.64h4.64v4.64h4.64v4.64h4.64v9.29h4.64v4.64h4.64v13.93ZM4.64,69.66h4.64v-4.64h4.64v-4.64h4.64v-4.64h4.64v4.64h4.64v4.64h4.64v4.64h4.64v4.64h-4.64v4.64h-4.64v-4.64h-4.64v13.93h-4.64v-13.93h-4.64v4.64h-4.64v-4.64h-4.64v-4.64ZM232.2,287.93v23.22h-4.64v4.64h-13.93v-4.64h-4.64v-27.86h4.64v9.29h13.93v-9.29h4.64v4.64Z"/>
        </g>
        <g>
          <polygon class="cls-3" points="227.56 329.72 222.91 329.72 218.27 329.72 213.62 329.72 208.98 329.72 204.34 329.72 199.69 329.72 195.05 329.72 190.4 329.72 185.76 329.72 181.12 329.72 176.47 329.72 171.83 329.72 167.18 329.72 162.54 329.72 157.9 329.72 153.25 329.72 148.61 329.72 143.96 329.72 139.32 329.72 134.68 329.72 130.03 329.72 125.39 329.72 120.74 329.72 116.1 329.72 111.46 329.72 106.81 329.72 102.17 329.72 97.52 329.72 92.88 329.72 88.24 329.72 83.59 329.72 78.95 329.72 74.3 329.72 69.66 329.72 65.02 329.72 60.37 329.72 55.73 329.72 51.08 329.72 46.44 329.72 41.8 329.72 37.15 329.72 32.51 329.72 27.86 329.72 23.22 329.72 18.58 329.72 13.93 329.72 9.29 329.72 4.64 329.72 4.64 334.37 9.29 334.37 13.93 334.37 18.58 334.37 23.22 334.37 27.86 334.37 32.51 334.37 37.15 334.37 41.8 334.37 46.44 334.37 51.08 334.37 55.73 334.37 60.37 334.37 65.02 334.37 69.66 334.37 74.3 334.37 78.95 334.37 83.59 334.37 88.24 334.37 92.88 334.37 97.52 334.37 102.17 334.37 106.81 334.37 111.46 334.37 116.1 334.37 120.74 334.37 125.39 334.37 130.03 334.37 134.68 334.37 139.32 334.37 143.96 334.37 148.61 334.37 153.25 334.37 157.9 334.37 162.54 334.37 167.18 334.37 171.83 334.37 176.47 334.37 181.12 334.37 185.76 334.37 190.4 334.37 195.05 334.37 199.69 334.37 204.34 334.37 208.98 334.37 213.62 334.37 218.27 334.37 222.91 334.37 227.56 334.37 232.2 334.37 236.84 334.37 236.84 329.72 232.2 329.72 227.56 329.72"/>
          <polygon class="cls-3" points="236.84 4.64 236.84 9.29 236.84 13.93 236.84 18.58 236.84 23.22 236.84 27.86 236.84 32.51 236.84 37.15 236.84 41.8 236.84 46.44 236.84 51.08 236.84 55.73 236.84 60.37 236.84 65.02 236.84 69.66 236.84 74.3 236.84 78.95 236.84 83.59 236.84 88.24 236.84 92.88 236.84 97.52 236.84 102.17 236.84 106.81 236.84 111.46 236.84 116.1 236.84 120.74 236.84 125.39 236.84 130.03 236.84 134.68 236.84 139.32 236.84 143.96 236.84 148.61 236.84 153.25 236.84 157.9 236.84 162.54 236.84 167.18 236.84 171.83 236.84 176.47 236.84 181.12 236.84 185.76 236.84 190.4 236.84 195.05 236.84 199.69 236.84 204.34 236.84 208.98 236.84 213.62 236.84 218.27 236.84 222.91 236.84 227.56 236.84 232.2 236.84 236.84 236.84 241.49 236.84 246.13 236.84 250.78 236.84 255.42 236.84 260.06 236.84 264.71 236.84 269.35 236.84 274 236.84 278.64 236.84 283.28 236.84 287.93 236.84 292.57 236.84 297.22 236.84 301.86 236.84 306.5 236.84 311.15 236.84 315.79 236.84 320.44 236.84 325.08 236.84 329.72 241.49 329.72 241.49 325.08 241.49 320.44 241.49 315.79 241.49 311.15 241.49 306.5 241.49 301.86 241.49 297.22 241.49 292.57 241.49 287.93 241.49 283.28 241.49 278.64 241.49 274 241.49 269.35 241.49 264.71 241.49 260.06 241.49 255.42 241.49 250.78 241.49 246.13 241.49 241.49 241.49 236.84 241.49 232.2 241.49 227.56 241.49 222.91 241.49 218.27 241.49 213.62 241.49 208.98 241.49 204.34 241.49 199.69 241.49 195.05 241.49 190.4 241.49 185.76 241.49 181.12 241.49 176.47 241.49 171.83 241.49 167.18 241.49 162.54 241.49 157.9 241.49 153.25 241.49 148.61 241.49 143.96 241.49 139.32 241.49 134.68 241.49 130.03 241.49 125.39 241.49 120.74 241.49 116.1 241.49 111.46 241.49 106.81 241.49 102.17 241.49 97.52 241.49 92.88 241.49 88.24 241.49 83.59 241.49 78.95 241.49 74.3 241.49 69.66 241.49 65.02 241.49 60.37 241.49 55.73 241.49 51.08 241.49 46.44 241.49 41.8 241.49 37.15 241.49 32.51 241.49 27.86 241.49 23.22 241.49 18.58 241.49 13.93 241.49 9.29 241.49 4.64 236.84 4.64"/>
        </g>
      </g>
      <g>
        <rect class="cls-2" x="4.64" y="74.3" width="4.64" height="4.64"/>
        <rect class="cls-2" x="4.64" y="69.66" width="4.64" height="4.64"/>
        <rect class="cls-2" x="9.29" y="78.95" width="4.64" height="4.64"/>
        <rect class="cls-2" x="9.29" y="74.3" width="4.64" height="4.64"/>
        <rect class="cls-2" x="9.29" y="69.66" width="4.64" height="4.64"/>
        <rect class="cls-2" x="9.29" y="65.02" width="4.64" height="4.64"/>
        <rect class="cls-2" x="13.93" y="88.24" width="4.64" height="4.64"/>
        <rect class="cls-2" x="13.93" y="78.95" width="4.64" height="4.64"/>
        <rect class="cls-2" x="13.93" y="74.3" width="4.64" height="4.64"/>
        <rect class="cls-2" x="13.93" y="69.66" width="4.64" height="4.64"/>
        <rect class="cls-2" x="13.93" y="65.02" width="4.64" height="4.64"/>
        <rect class="cls-2" x="13.93" y="60.37" width="4.64" height="4.64"/>
        <rect class="cls-2" x="18.58" y="88.24" width="4.64" height="4.64"/>
        <rect class="cls-2" x="18.58" y="83.59" width="4.64" height="4.64"/>
        <rect class="cls-2" x="18.58" y="78.95" width="4.64" height="4.64"/>
        <rect class="cls-2" x="18.58" y="74.3" width="4.64" height="4.64"/>
        <rect class="cls-2" x="18.58" y="69.66" width="4.64" height="4.64"/>
        <rect class="cls-2" x="18.58" y="65.02" width="4.64" height="4.64"/>
        <rect class="cls-2" x="18.58" y="60.37" width="4.64" height="4.64"/>
        <rect class="cls-2" x="18.58" y="55.73" width="4.64" height="4.64"/>
        <rect class="cls-2" x="23.22" y="88.24" width="4.64" height="4.64"/>
        <rect class="cls-2" x="23.22" y="78.95" width="4.64" height="4.64"/>
        <rect class="cls-2" x="23.22" y="74.3" width="4.64" height="4.64"/>
        <rect class="cls-2" x="23.22" y="69.66" width="4.64" height="4.64"/>
        <rect class="cls-2" x="23.22" y="65.02" width="4.64" height="4.64"/>
        <rect class="cls-2" x="23.22" y="60.37" width="4.64" height="4.64"/>
        <rect class="cls-2" x="27.86" y="78.95" width="4.64" height="4.64"/>
        <rect class="cls-2" x="27.86" y="74.3" width="4.64" height="4.64"/>
        <rect class="cls-2" x="27.86" y="69.66" width="4.64" height="4.64"/>
        <rect class="cls-2" x="27.86" y="65.02" width="4.64" height="4.64"/>
        <rect class="cls-2" x="32.51" y="74.3" width="4.64" height="4.64"/>
        <rect class="cls-2" x="32.51" y="69.66" width="4.64" height="4.64"/>
      </g>
    </g>
  </g>
</svg>