<?xml version="1.0" encoding="UTF-8"?>
<svg id="Layer_2" data-name="Layer 2" xmlns="http://www.w3.org/2000/svg" viewBox="0 0 241.49 334.37">
  <defs>
    <style>
      .cls-1 {
        fill: #f2f2f2;
      }

      .cls-2 {
        fill: #1d1d1b;
      }

      .cls-3 {
        fill: #dadada;
      }
    </style>
  </defs>
  <g id="_Layer_" data-name="&amp;lt;Layer&amp;gt;">
    <g>
      <polygon class="cls-1" points="232.2 0 227.56 0 222.91 0 218.27 0 213.62 0 208.98 0 204.34 0 199.69 0 195.05 0 190.4 0 185.76 0 181.12 0 176.47 0 171.83 0 167.18 0 162.54 0 157.9 0 153.25 0 148.61 0 143.96 0 139.32 0 134.68 0 130.03 0 125.39 0 120.74 0 116.1 0 111.46 0 106.81 0 102.17 0 97.52 0 92.88 0 88.24 0 83.59 0 78.95 0 74.3 0 69.66 0 65.02 0 60.37 0 55.73 0 51.08 0 46.44 0 41.8 0 37.15 0 32.51 0 27.86 0 23.22 0 18.58 0 13.93 0 9.29 0 4.64 0 4.64 4.64 0 4.64 0 9.29 0 13.93 0 18.58 0 23.22 0 27.86 0 32.51 0 37.15 0 41.8 0 46.44 0 51.08 0 55.73 0 60.37 0 65.02 0 69.66 0 74.3 0 78.95 0 83.59 0 88.24 0 92.88 0 97.52 0 102.17 0 106.81 0 111.46 0 116.1 0 120.74 0 125.39 0 130.03 0 134.68 0 139.32 0 143.96 0 148.61 0 153.25 0 157.9 0 162.54 0 167.18 0 171.83 0 176.47 0 181.12 0 185.76 0 190.4 0 195.05 0 199.69 0 204.34 0 208.98 0 213.62 0 218.27 0 222.91 0 227.56 0 232.2 0 236.84 0 241.49 0 246.13 0 250.78 0 255.42 0 260.06 0 264.71 0 269.35 0 274 0 278.64 0 283.28 0 287.93 0 292.57 0 297.22 0 301.86 0 306.5 0 311.15 0 315.79 0 320.44 0 325.08 0 329.72 4.64 329.72 9.29 329.72 13.93 329.72 18.58 329.72 23.22 329.72 27.86 329.72 32.51 329.72 37.15 329.72 41.8 329.72 46.44 329.72 51.08 329.72 55.73 329.72 60.37 329.72 65.02 329.72 69.66 329.72 74.3 329.72 78.95 329.72 83.59 329.72 88.24 329.72 92.88 329.72 97.52 329.72 102.17 329.72 106.81 329.72 111.46 329.72 116.1 329.72 120.74 329.72 125.39 329.72 130.03 329.72 134.68 329.72 139.32 329.72 143.96 329.72 148.61 329.72 153.25 329.72 157.9 329.72 162.54 329.72 167.18 329.72 171.83 329.72 176.47 329.72 181.12 329.72 185.76 329.72 190.4 329.72 195.05 329.72 199.69 329.72 204.34 329.72 208.98 329.72 213.62 329.72 218.27 329.72 222.91 329.72 227.56 329.72 232.2 329.72 236.84 329.72 236.84 325.08 236.84 320.44 236.84 315.79 236.84 311.15 236.84 306.5 236.84 301.86 236.84 297.22 236.84 292.57 236.84 287.93 236.84 285.86 236.84 283.28 236.84 278.64 236.84 274 236.84 269.35 236.84 264.71 236.84 260.06 236.84 255.42 236.84 250.78 236.84 246.13 236.84 241.49 236.84 240.38 236.84 236.84 236.84 232.2 236.84 227.56 236.84 222.91 236.84 218.27 236.84 213.62 236.84 208.98 236.84 204.34 236.84 199.69 236.84 195.05 236.84 190.4 236.84 185.76 236.84 181.12 236.84 176.47 236.84 171.83 236.84 167.18 236.84 162.54 236.84 157.9 236.84 153.25 236.84 148.61 236.84 143.96 236.84 139.32 236.84 134.68 236.84 130.03 236.84 125.39 236.84 120.74 236.84 116.1 236.84 111.46 236.84 106.81 236.84 102.17 236.84 97.52 236.84 92.88 236.84 88.24 236.84 83.59 236.84 78.95 236.84 74.3 236.84 69.66 236.84 65.02 236.84 60.37 236.84 55.73 236.84 51.08 236.84 46.44 236.84 41.8 236.84 37.15 236.84 32.51 236.84 27.86 236.84 23.22 236.84 18.58 236.84 13.93 236.84 9.29 236.84 4.64 236.84 0 232.2 0"/>
      <polygon class="cls-3" points="227.56 329.72 222.91 329.72 218.27 329.72 213.62 329.72 208.98 329.72 204.34 329.72 199.69 329.72 195.05 329.72 190.4 329.72 185.76 329.72 181.12 329.72 176.47 329.72 171.83 329.72 167.18 329.72 162.54 329.72 157.9 329.72 153.25 329.72 148.61 329.72 143.96 329.72 139.32 329.72 134.68 329.72 130.03 329.72 125.39 329.72 120.74 329.72 116.1 329.72 111.46 329.72 106.81 329.72 102.17 329.72 97.52 329.72 92.88 329.72 88.24 329.72 83.59 329.72 78.95 329.72 74.3 329.72 69.66 329.72 65.02 329.72 60.37 329.72 55.73 329.72 51.08 329.72 46.44 329.72 41.8 329.72 37.15 329.72 32.51 329.72 27.86 329.72 23.22 329.72 18.58 329.72 13.93 329.72 9.29 329.72 4.64 329.72 4.64 334.37 9.29 334.37 13.93 334.37 18.58 334.37 23.22 334.37 27.86 334.37 32.51 334.37 37.15 334.37 41.8 334.37 46.44 334.37 51.08 334.37 55.73 334.37 60.37 334.37 65.02 334.37 69.66 334.37 74.3 334.37 78.95 334.37 83.59 334.37 88.24 334.37 92.88 334.37 97.52 334.37 102.17 334.37 106.81 334.37 111.46 334.37 116.1 334.37 120.74 334.37 125.39 334.37 130.03 334.37 134.68 334.37 139.32 334.37 143.96 334.37 148.61 334.37 153.25 334.37 157.9 334.37 162.54 334.37 167.18 334.37 171.83 334.37 176.47 334.37 181.12 334.37 185.76 334.37 190.4 334.37 195.05 334.37 199.69 334.37 204.34 334.37 208.98 334.37 213.62 334.37 218.27 334.37 222.91 334.37 227.56 334.37 232.2 334.37 236.84 334.37 236.84 329.72 232.2 329.72 227.56 329.72"/>
      <polygon class="cls-3" points="236.84 4.64 236.84 9.29 236.84 13.93 236.84 18.58 236.84 23.22 236.84 27.86 236.84 32.51 236.84 37.15 236.84 41.8 236.84 46.44 236.84 51.08 236.84 55.73 236.84 60.37 236.84 65.02 236.84 69.66 236.84 74.3 236.84 78.95 236.84 83.59 236.84 88.24 236.84 92.88 236.84 97.52 236.84 102.17 236.84 106.81 236.84 111.46 236.84 116.1 236.84 120.74 236.84 125.39 236.84 130.03 236.84 134.68 236.84 139.32 236.84 143.96 236.84 148.61 236.84 153.25 236.84 157.9 236.84 162.54 236.84 167.18 236.84 171.83 236.84 176.47 236.84 181.12 236.84 185.76 236.84 190.4 236.84 195.05 236.84 199.69 236.84 204.34 236.84 208.98 236.84 213.62 236.84 218.27 236.84 222.91 236.84 227.56 236.84 232.2 236.84 236.84 236.84 241.49 236.84 246.13 236.84 250.78 236.84 255.42 236.84 260.06 236.84 264.71 236.84 269.35 236.84 274 236.84 278.64 236.84 283.28 236.84 287.93 236.84 292.57 236.84 297.22 236.84 301.86 236.84 306.5 236.84 311.15 236.84 315.79 236.84 320.44 236.84 325.08 236.84 329.72 241.49 329.72 241.49 325.08 241.49 320.44 241.49 315.79 241.49 311.15 241.49 306.5 241.49 301.86 241.49 297.22 241.49 292.57 241.49 287.93 241.49 283.28 241.49 278.64 241.49 274 241.49 269.35 241.49 264.71 241.49 260.06 241.49 255.42 241.49 250.78 241.49 246.13 241.49 241.49 241.49 236.84 241.49 232.2 241.49 227.56 241.49 222.91 241.49 218.27 241.49 213.62 241.49 208.98 241.49 204.34 241.49 199.69 241.49 195.05 241.49 190.4 241.49 185.76 241.49 181.12 241.49 176.47 241.49 171.83 241.49 167.18 241.49 162.54 241.49 157.9 241.49 153.25 241.49 148.61 241.49 143.96 241.49 139.32 241.49 134.68 241.49 130.03 241.49 125.39 241.49 120.74 241.49 116.1 241.49 111.46 241.49 106.81 241.49 102.17 241.49 97.52 241.49 92.88 241.49 88.24 241.49 83.59 241.49 78.95 241.49 74.3 241.49 69.66 241.49 65.02 241.49 60.37 241.49 55.73 241.49 51.08 241.49 46.44 241.49 41.8 241.49 37.15 241.49 32.51 241.49 27.86 241.49 23.22 241.49 18.58 241.49 13.93 241.49 9.29 241.49 4.64 236.84 4.64"/>
      <g>
        <rect class="cls-2" x="199.69" y="263.99" width="4.64" height="4.64"/>
        <rect class="cls-2" x="204.34" y="310.43" width="4.64" height="4.64"/>
        <rect class="cls-2" x="204.34" y="305.78" width="4.64" height="4.64"/>
        <rect class="cls-2" x="204.34" y="287.21" width="4.64" height="4.64"/>
        <rect class="cls-2" x="204.34" y="268.63" width="4.64" height="4.64"/>
        <rect class="cls-2" x="204.34" y="263.99" width="4.64" height="4.64"/>
        <rect class="cls-2" x="204.34" y="259.34" width="4.64" height="4.64"/>
        <rect class="cls-2" x="208.98" y="315.07" width="4.64" height="4.64"/>
        <rect class="cls-2" x="208.98" y="301.14" width="4.64" height="4.64"/>
        <rect class="cls-2" x="208.98" y="287.21" width="4.64" height="4.64"/>
        <rect class="cls-2" x="208.98" y="273.28" width="4.64" height="4.64"/>
        <rect class="cls-2" x="208.98" y="263.99" width="4.64" height="4.64"/>
        <rect class="cls-2" x="213.62" y="315.07" width="4.64" height="4.64"/>
        <rect class="cls-2" x="213.62" y="301.14" width="4.64" height="4.64"/>
        <rect class="cls-2" x="213.62" y="287.21" width="4.64" height="4.64"/>
        <rect class="cls-2" x="213.62" y="277.92" width="4.64" height="4.64"/>
        <rect class="cls-2" x="213.62" y="273.28" width="4.64" height="4.64"/>
        <rect class="cls-2" x="213.62" y="268.63" width="4.64" height="4.64"/>
        <rect class="cls-2" x="213.62" y="263.99" width="4.64" height="4.64"/>
        <rect class="cls-2" x="213.62" y="259.34" width="4.64" height="4.64"/>
        <rect class="cls-2" x="213.62" y="254.7" width="4.64" height="4.64"/>
        <rect class="cls-2" x="213.62" y="250.06" width="4.64" height="4.64"/>
        <rect class="cls-2" x="218.27" y="315.07" width="4.64" height="4.64"/>
        <rect class="cls-2" x="218.27" y="301.14" width="4.64" height="4.64"/>
        <rect class="cls-2" x="218.27" y="287.21" width="4.64" height="4.64"/>
        <rect class="cls-2" x="218.27" y="273.28" width="4.64" height="4.64"/>
        <rect class="cls-2" x="218.27" y="263.99" width="4.64" height="4.64"/>
        <rect class="cls-2" x="222.91" y="310.43" width="4.64" height="4.64"/>
        <rect class="cls-2" x="222.91" y="296.5" width="4.64" height="4.64"/>
        <rect class="cls-2" x="222.91" y="291.85" width="4.64" height="4.64"/>
        <rect class="cls-2" x="222.91" y="268.63" width="4.64" height="4.64"/>
        <rect class="cls-2" x="222.91" y="263.99" width="4.64" height="4.64"/>
        <rect class="cls-2" x="222.91" y="259.34" width="4.64" height="4.64"/>
        <rect class="cls-2" x="227.56" y="263.99" width="4.64" height="4.64"/>
        <rect class="cls-1" x="208.98" y="268.63" width="4.64" height="4.64"/>
        <rect class="cls-1" x="218.27" y="268.63" width="4.64" height="4.64"/>
        <g>
          <rect class="cls-2" x="227.56" y="259.34" width="4.64" height="4.64"/>
          <rect class="cls-2" x="227.56" y="263.99" width="4.64" height="4.64"/>
          <rect class="cls-2" x="222.91" y="254.7" width="4.64" height="4.64"/>
          <rect class="cls-2" x="222.91" y="259.34" width="4.64" height="4.64"/>
          <rect class="cls-2" x="222.91" y="263.99" width="4.64" height="4.64"/>
          <rect class="cls-2" x="222.91" y="268.63" width="4.64" height="4.64"/>
          <rect class="cls-2" x="218.27" y="245.41" width="4.64" height="4.64"/>
          <rect class="cls-2" x="218.27" y="254.7" width="4.64" height="4.64"/>
          <rect class="cls-2" x="218.27" y="259.34" width="4.64" height="4.64"/>
          <rect class="cls-2" x="218.27" y="263.99" width="4.64" height="4.64"/>
          <rect class="cls-2" x="218.27" y="268.63" width="4.64" height="4.64"/>
          <rect class="cls-2" x="218.27" y="273.28" width="4.64" height="4.64"/>
          <rect class="cls-2" x="213.62" y="245.41" width="4.64" height="4.64"/>
          <rect class="cls-2" x="213.62" y="250.06" width="4.64" height="4.64"/>
          <rect class="cls-2" x="213.62" y="254.7" width="4.64" height="4.64"/>
          <rect class="cls-2" x="213.62" y="259.34" width="4.64" height="4.64"/>
          <rect class="cls-2" x="213.62" y="263.99" width="4.64" height="4.64"/>
          <rect class="cls-2" x="213.62" y="268.63" width="4.64" height="4.64"/>
          <rect class="cls-2" x="213.62" y="273.28" width="4.64" height="4.64"/>
          <rect class="cls-2" x="213.62" y="277.92" width="4.64" height="4.64"/>
          <rect class="cls-2" x="208.98" y="245.41" width="4.64" height="4.64"/>
          <rect class="cls-2" x="208.98" y="254.7" width="4.64" height="4.64"/>
          <rect class="cls-2" x="208.98" y="259.34" width="4.64" height="4.64"/>
          <rect class="cls-2" x="208.98" y="263.99" width="4.64" height="4.64"/>
          <rect class="cls-2" x="208.98" y="268.63" width="4.64" height="4.64"/>
          <rect class="cls-2" x="208.98" y="273.28" width="4.64" height="4.64"/>
          <rect class="cls-2" x="204.34" y="254.7" width="4.64" height="4.64"/>
          <rect class="cls-2" x="204.34" y="259.34" width="4.64" height="4.64"/>
          <rect class="cls-2" x="204.34" y="263.99" width="4.64" height="4.64"/>
          <rect class="cls-2" x="204.34" y="268.63" width="4.64" height="4.64"/>
          <rect class="cls-2" x="199.69" y="259.34" width="4.64" height="4.64"/>
          <rect class="cls-2" x="199.69" y="263.99" width="4.64" height="4.64"/>
        </g>
      </g>
      <g>
        <rect class="cls-2" x="92.88" y="111.46" width="4.64" height="4.64"/>
        <rect class="cls-2" x="92.88" y="106.81" width="4.64" height="4.64"/>
        <rect class="cls-2" x="92.88" y="102.17" width="4.64" height="4.64"/>
        <rect class="cls-2" x="97.52" y="116.1" width="4.64" height="4.64"/>
        <rect class="cls-2" x="97.52" y="111.46" width="4.64" height="4.64"/>
        <rect class="cls-2" x="97.52" y="106.81" width="4.64" height="4.64"/>
        <rect class="cls-2" x="97.52" y="102.17" width="4.64" height="4.64"/>
        <rect class="cls-2" x="97.52" y="97.52" width="4.64" height="4.64"/>
        <rect class="cls-2" x="102.17" y="116.1" width="4.64" height="4.64"/>
        <rect class="cls-2" x="102.17" y="111.46" width="4.64" height="4.64"/>
        <rect class="cls-2" x="102.17" y="106.81" width="4.64" height="4.64"/>
        <rect class="cls-2" x="102.17" y="102.17" width="4.64" height="4.64"/>
        <rect class="cls-2" x="102.17" y="97.52" width="4.64" height="4.64"/>
        <rect class="cls-2" x="102.17" y="92.88" width="4.64" height="4.64"/>
        <rect class="cls-2" x="102.17" y="88.24" width="4.64" height="4.64"/>
        <rect class="cls-2" x="106.81" y="116.1" width="4.64" height="4.64"/>
        <rect class="cls-2" x="106.81" y="111.46" width="4.64" height="4.64"/>
        <rect class="cls-2" x="106.81" y="106.81" width="4.64" height="4.64"/>
        <rect class="cls-2" x="106.81" y="102.17" width="4.64" height="4.64"/>
        <rect class="cls-2" x="106.81" y="97.52" width="4.64" height="4.64"/>
        <rect class="cls-2" x="106.81" y="92.88" width="4.64" height="4.64"/>
        <rect class="cls-2" x="106.81" y="88.24" width="4.64" height="4.64"/>
        <rect class="cls-2" x="106.81" y="83.59" width="4.64" height="4.64"/>
        <rect class="cls-2" x="111.46" y="130.03" width="4.64" height="4.64"/>
        <rect class="cls-2" x="111.46" y="116.1" width="4.64" height="4.64"/>
        <rect class="cls-2" x="111.46" y="111.46" width="4.64" height="4.64"/>
        <rect class="cls-2" x="111.46" y="106.81" width="4.64" height="4.64"/>
        <rect class="cls-2" x="111.46" y="102.17" width="4.64" height="4.64"/>
        <rect class="cls-2" x="111.46" y="97.52" width="4.64" height="4.64"/>
        <rect class="cls-2" x="111.46" y="92.88" width="4.64" height="4.64"/>
        <rect class="cls-2" x="111.46" y="88.24" width="4.64" height="4.64"/>
        <rect class="cls-2" x="111.46" y="83.59" width="4.64" height="4.64"/>
        <rect class="cls-2" x="111.46" y="78.95" width="4.64" height="4.64"/>
        <rect class="cls-2" x="116.1" y="130.03" width="4.64" height="4.64"/>
        <rect class="cls-2" x="116.1" y="125.39" width="4.64" height="4.64"/>
        <rect class="cls-2" x="116.1" y="111.46" width="4.64" height="4.64"/>
        <rect class="cls-2" x="116.1" y="106.81" width="4.64" height="4.64"/>
        <rect class="cls-2" x="116.1" y="102.17" width="4.64" height="4.64"/>
        <rect class="cls-2" x="116.1" y="97.52" width="4.64" height="4.64"/>
        <rect class="cls-2" x="116.1" y="92.88" width="4.64" height="4.64"/>
        <rect class="cls-2" x="116.1" y="88.24" width="4.64" height="4.64"/>
        <rect class="cls-2" x="116.1" y="83.59" width="4.64" height="4.64"/>
        <rect class="cls-2" x="116.1" y="78.95" width="4.64" height="4.64"/>
        <rect class="cls-2" x="116.1" y="74.3" width="4.64" height="4.64"/>
        <rect class="cls-2" x="120.74" y="130.03" width="4.64" height="4.64"/>
        <rect class="cls-2" x="120.74" y="125.39" width="4.64" height="4.64"/>
        <rect class="cls-2" x="120.74" y="120.74" width="4.64" height="4.64"/>
        <rect class="cls-2" x="120.74" y="116.1" width="4.64" height="4.64"/>
        <rect class="cls-2" x="120.74" y="111.46" width="4.64" height="4.64"/>
        <rect class="cls-2" x="120.74" y="106.81" width="4.64" height="4.64"/>
        <rect class="cls-2" x="120.74" y="102.17" width="4.64" height="4.64"/>
        <rect class="cls-2" x="120.74" y="97.52" width="4.64" height="4.64"/>
        <rect class="cls-2" x="120.74" y="92.88" width="4.64" height="4.64"/>
        <rect class="cls-2" x="120.74" y="88.24" width="4.64" height="4.64"/>
        <rect class="cls-2" x="120.74" y="83.59" width="4.64" height="4.64"/>
        <rect class="cls-2" x="120.74" y="78.95" width="4.64" height="4.64"/>
        <rect class="cls-2" x="120.74" y="74.3" width="4.64" height="4.64"/>
        <rect class="cls-2" x="120.74" y="69.66" width="4.64" height="4.64"/>
        <rect class="cls-2" x="125.39" y="130.03" width="4.64" height="4.64"/>
        <rect class="cls-2" x="125.39" y="125.39" width="4.64" height="4.64"/>
        <rect class="cls-2" x="125.39" y="111.46" width="4.64" height="4.64"/>
        <rect class="cls-2" x="125.39" y="106.81" width="4.64" height="4.64"/>
        <rect class="cls-2" x="125.39" y="102.17" width="4.64" height="4.64"/>
        <rect class="cls-2" x="125.39" y="97.52" width="4.64" height="4.64"/>
        <rect class="cls-2" x="125.39" y="92.88" width="4.64" height="4.64"/>
        <rect class="cls-2" x="125.39" y="88.24" width="4.64" height="4.64"/>
        <rect class="cls-2" x="125.39" y="83.59" width="4.64" height="4.64"/>
        <rect class="cls-2" x="125.39" y="78.95" width="4.64" height="4.64"/>
        <rect class="cls-2" x="125.39" y="74.3" width="4.64" height="4.64"/>
        <rect class="cls-2" x="130.03" y="130.03" width="4.64" height="4.64"/>
        <rect class="cls-2" x="130.03" y="116.1" width="4.64" height="4.64"/>
        <rect class="cls-2" x="130.03" y="111.46" width="4.64" height="4.64"/>
        <rect class="cls-2" x="130.03" y="106.81" width="4.64" height="4.64"/>
        <rect class="cls-2" x="130.03" y="102.17" width="4.64" height="4.64"/>
        <rect class="cls-2" x="130.03" y="97.52" width="4.64" height="4.64"/>
        <rect class="cls-2" x="130.03" y="92.88" width="4.64" height="4.64"/>
        <rect class="cls-2" x="130.03" y="88.24" width="4.64" height="4.64"/>
        <rect class="cls-2" x="130.03" y="83.59" width="4.64" height="4.64"/>
        <rect class="cls-2" x="130.03" y="78.95" width="4.64" height="4.64"/>
        <rect class="cls-2" x="134.68" y="116.1" width="4.64" height="4.64"/>
        <rect class="cls-2" x="134.68" y="111.46" width="4.64" height="4.64"/>
        <rect class="cls-2" x="134.68" y="106.81" width="4.64" height="4.64"/>
        <rect class="cls-2" x="134.68" y="102.17" width="4.64" height="4.64"/>
        <rect class="cls-2" x="134.68" y="97.52" width="4.64" height="4.64"/>
        <rect class="cls-2" x="134.68" y="92.88" width="4.64" height="4.64"/>
        <rect class="cls-2" x="134.68" y="88.24" width="4.64" height="4.64"/>
        <rect class="cls-2" x="134.68" y="83.59" width="4.64" height="4.64"/>
        <rect class="cls-2" x="139.32" y="116.1" width="4.64" height="4.64"/>
        <rect class="cls-2" x="139.32" y="111.46" width="4.64" height="4.64"/>
        <rect class="cls-2" x="139.32" y="106.81" width="4.64" height="4.64"/>
        <rect class="cls-2" x="139.32" y="102.17" width="4.64" height="4.64"/>
        <rect class="cls-2" x="139.32" y="97.52" width="4.64" height="4.64"/>
        <rect class="cls-2" x="139.32" y="92.88" width="4.64" height="4.64"/>
        <rect class="cls-2" x="139.32" y="88.24" width="4.64" height="4.64"/>
        <rect class="cls-2" x="143.96" y="116.1" width="4.64" height="4.64"/>
        <rect class="cls-2" x="143.96" y="111.46" width="4.64" height="4.64"/>
        <rect class="cls-2" x="143.96" y="106.81" width="4.64" height="4.64"/>
        <rect class="cls-2" x="143.96" y="102.17" width="4.64" height="4.64"/>
        <rect class="cls-2" x="143.96" y="97.52" width="4.64" height="4.64"/>
        <rect class="cls-2" x="148.61" y="111.46" width="4.64" height="4.64"/>
        <rect class="cls-2" x="148.61" y="106.81" width="4.64" height="4.64"/>
        <rect class="cls-2" x="148.61" y="102.17" width="4.64" height="4.64"/>
      </g>
      <g>
        <rect class="cls-2" x="92.88" y="241.49" width="4.64" height="4.64"/>
        <rect class="cls-2" x="92.88" y="236.84" width="4.64" height="4.64"/>
        <rect class="cls-2" x="92.88" y="232.2" width="4.64" height="4.64"/>
        <rect class="cls-2" x="97.52" y="246.13" width="4.64" height="4.64"/>
        <rect class="cls-2" x="97.52" y="241.49" width="4.64" height="4.64"/>
        <rect class="cls-2" x="97.52" y="236.84" width="4.64" height="4.64"/>
        <rect class="cls-2" x="97.52" y="232.2" width="4.64" height="4.64"/>
        <rect class="cls-2" x="97.52" y="227.56" width="4.64" height="4.64"/>
        <rect class="cls-2" x="102.17" y="246.13" width="4.64" height="4.64"/>
        <rect class="cls-2" x="102.17" y="241.49" width="4.64" height="4.64"/>
        <rect class="cls-2" x="102.17" y="236.84" width="4.64" height="4.64"/>
        <rect class="cls-2" x="102.17" y="232.2" width="4.64" height="4.64"/>
        <rect class="cls-2" x="102.17" y="227.56" width="4.64" height="4.64"/>
        <rect class="cls-2" x="102.17" y="222.91" width="4.64" height="4.64"/>
        <rect class="cls-2" x="102.17" y="218.27" width="4.64" height="4.64"/>
        <rect class="cls-2" x="106.81" y="246.13" width="4.64" height="4.64"/>
        <rect class="cls-2" x="106.81" y="241.49" width="4.64" height="4.64"/>
        <rect class="cls-2" x="106.81" y="236.84" width="4.64" height="4.64"/>
        <rect class="cls-2" x="106.81" y="232.2" width="4.64" height="4.64"/>
        <rect class="cls-2" x="106.81" y="227.56" width="4.64" height="4.64"/>
        <rect class="cls-2" x="106.81" y="222.91" width="4.64" height="4.64"/>
        <rect class="cls-2" x="106.81" y="218.27" width="4.64" height="4.64"/>
        <rect class="cls-2" x="106.81" y="213.62" width="4.64" height="4.64"/>
        <rect class="cls-2" x="111.46" y="260.06" width="4.64" height="4.64"/>
        <rect class="cls-2" x="111.46" y="246.13" width="4.64" height="4.64"/>
        <rect class="cls-2" x="111.46" y="241.49" width="4.64" height="4.64"/>
        <rect class="cls-2" x="111.46" y="236.84" width="4.64" height="4.64"/>
        <rect class="cls-2" x="111.46" y="232.2" width="4.64" height="4.64"/>
        <rect class="cls-2" x="111.46" y="227.56" width="4.64" height="4.64"/>
        <rect class="cls-2" x="111.46" y="222.91" width="4.64" height="4.64"/>
        <rect class="cls-2" x="111.46" y="218.27" width="4.64" height="4.64"/>
        <rect class="cls-2" x="111.46" y="213.62" width="4.64" height="4.64"/>
        <rect class="cls-2" x="111.46" y="208.98" width="4.64" height="4.64"/>
        <rect class="cls-2" x="116.1" y="260.06" width="4.64" height="4.64"/>
        <rect class="cls-2" x="116.1" y="255.42" width="4.64" height="4.64"/>
        <rect class="cls-2" x="116.1" y="241.49" width="4.64" height="4.64"/>
        <rect class="cls-2" x="116.1" y="236.84" width="4.64" height="4.64"/>
        <rect class="cls-2" x="116.1" y="232.2" width="4.64" height="4.64"/>
        <rect class="cls-2" x="116.1" y="227.56" width="4.64" height="4.64"/>
        <rect class="cls-2" x="116.1" y="222.91" width="4.64" height="4.64"/>
        <rect class="cls-2" x="116.1" y="218.27" width="4.64" height="4.64"/>
        <rect class="cls-2" x="116.1" y="213.62" width="4.64" height="4.64"/>
        <rect class="cls-2" x="116.1" y="208.98" width="4.64" height="4.64"/>
        <rect class="cls-2" x="116.1" y="204.34" width="4.64" height="4.64"/>
        <rect class="cls-2" x="120.74" y="260.06" width="4.64" height="4.64"/>
        <rect class="cls-2" x="120.74" y="255.42" width="4.64" height="4.64"/>
        <rect class="cls-2" x="120.74" y="250.78" width="4.64" height="4.64"/>
        <rect class="cls-2" x="120.74" y="246.13" width="4.64" height="4.64"/>
        <rect class="cls-2" x="120.74" y="241.49" width="4.64" height="4.64"/>
        <rect class="cls-2" x="120.74" y="236.84" width="4.64" height="4.64"/>
        <rect class="cls-2" x="120.74" y="232.2" width="4.64" height="4.64"/>
        <rect class="cls-2" x="120.74" y="227.56" width="4.64" height="4.64"/>
        <rect class="cls-2" x="120.74" y="222.91" width="4.64" height="4.64"/>
        <rect class="cls-2" x="120.74" y="218.27" width="4.64" height="4.64"/>
        <rect class="cls-2" x="120.74" y="213.62" width="4.64" height="4.64"/>
        <rect class="cls-2" x="120.74" y="208.98" width="4.64" height="4.64"/>
        <rect class="cls-2" x="120.74" y="204.34" width="4.64" height="4.64"/>
        <rect class="cls-2" x="120.74" y="199.69" width="4.64" height="4.64"/>
        <rect class="cls-2" x="125.39" y="260.06" width="4.64" height="4.64"/>
        <rect class="cls-2" x="125.39" y="255.42" width="4.64" height="4.64"/>
        <rect class="cls-2" x="125.39" y="241.49" width="4.64" height="4.64"/>
        <rect class="cls-2" x="125.39" y="236.84" width="4.64" height="4.64"/>
        <rect class="cls-2" x="125.39" y="232.2" width="4.64" height="4.64"/>
        <rect class="cls-2" x="125.39" y="227.56" width="4.64" height="4.64"/>
        <rect class="cls-2" x="125.39" y="222.91" width="4.64" height="4.64"/>
        <rect class="cls-2" x="125.39" y="218.27" width="4.64" height="4.64"/>
        <rect class="cls-2" x="125.39" y="213.62" width="4.64" height="4.64"/>
        <rect class="cls-2" x="125.39" y="208.98" width="4.64" height="4.64"/>
        <rect class="cls-2" x="125.39" y="204.34" width="4.64" height="4.64"/>
        <rect class="cls-2" x="130.03" y="260.06" width="4.64" height="4.64"/>
        <rect class="cls-2" x="130.03" y="246.13" width="4.64" height="4.64"/>
        <rect class="cls-2" x="130.03" y="241.49" width="4.64" height="4.64"/>
        <rect class="cls-2" x="130.03" y="236.84" width="4.64" height="4.64"/>
        <rect class="cls-2" x="130.03" y="232.2" width="4.64" height="4.64"/>
        <rect class="cls-2" x="130.03" y="227.56" width="4.64" height="4.64"/>
        <rect class="cls-2" x="130.03" y="222.91" width="4.64" height="4.64"/>
        <rect class="cls-2" x="130.03" y="218.27" width="4.64" height="4.64"/>
        <rect class="cls-2" x="130.03" y="213.62" width="4.64" height="4.64"/>
        <rect class="cls-2" x="130.03" y="208.98" width="4.64" height="4.64"/>
        <rect class="cls-2" x="134.68" y="246.13" width="4.64" height="4.64"/>
        <rect class="cls-2" x="134.68" y="241.49" width="4.64" height="4.64"/>
        <rect class="cls-2" x="134.68" y="236.84" width="4.64" height="4.64"/>
        <rect class="cls-2" x="134.68" y="232.2" width="4.64" height="4.64"/>
        <rect class="cls-2" x="134.68" y="227.56" width="4.64" height="4.64"/>
        <rect class="cls-2" x="134.68" y="222.91" width="4.64" height="4.64"/>
        <rect class="cls-2" x="134.68" y="218.27" width="4.64" height="4.64"/>
        <rect class="cls-2" x="134.68" y="213.62" width="4.64" height="4.64"/>
        <rect class="cls-2" x="139.32" y="246.13" width="4.64" height="4.64"/>
        <rect class="cls-2" x="139.32" y="241.49" width="4.64" height="4.64"/>
        <rect class="cls-2" x="139.32" y="236.84" width="4.64" height="4.64"/>
        <rect class="cls-2" x="139.32" y="232.2" width="4.64" height="4.64"/>
        <rect class="cls-2" x="139.32" y="227.56" width="4.64" height="4.64"/>
        <rect class="cls-2" x="139.32" y="222.91" width="4.64" height="4.64"/>
        <rect class="cls-2" x="139.32" y="218.27" width="4.64" height="4.64"/>
        <rect class="cls-2" x="143.96" y="246.13" width="4.64" height="4.64"/>
        <rect class="cls-2" x="143.96" y="241.49" width="4.64" height="4.64"/>
        <rect class="cls-2" x="143.96" y="236.84" width="4.64" height="4.64"/>
        <rect class="cls-2" x="143.96" y="232.2" width="4.64" height="4.64"/>
        <rect class="cls-2" x="143.96" y="227.56" width="4.64" height="4.64"/>
        <rect class="cls-2" x="148.61" y="241.49" width="4.64" height="4.64"/>
        <rect class="cls-2" x="148.61" y="236.84" width="4.64" height="4.64"/>
        <rect class="cls-2" x="148.61" y="232.2" width="4.64" height="4.64"/>
      </g>
      <g>
        <rect class="cls-2" x="4.64" y="65.62" width="4.64" height="4.64"/>
        <rect class="cls-2" x="9.29" y="70.27" width="4.64" height="4.64"/>
        <rect class="cls-2" x="9.29" y="65.62" width="4.64" height="4.64"/>
        <rect class="cls-2" x="9.29" y="60.98" width="4.64" height="4.64"/>
        <rect class="cls-2" x="9.29" y="37.76" width="4.64" height="4.64"/>
        <rect class="cls-2" x="9.29" y="33.12" width="4.64" height="4.64"/>
        <rect class="cls-2" x="9.29" y="19.18" width="4.64" height="4.64"/>
        <rect class="cls-2" x="13.93" y="65.62" width="4.64" height="4.64"/>
        <rect class="cls-2" x="13.93" y="56.34" width="4.64" height="4.64"/>
        <rect class="cls-2" x="13.93" y="42.4" width="4.64" height="4.64"/>
        <rect class="cls-2" x="13.93" y="28.47" width="4.64" height="4.64"/>
        <rect class="cls-2" x="13.93" y="14.54" width="4.64" height="4.64"/>
        <rect class="cls-2" x="18.58" y="79.56" width="4.64" height="4.64"/>
        <rect class="cls-2" x="18.58" y="74.91" width="4.64" height="4.64"/>
        <rect class="cls-2" x="18.58" y="70.27" width="4.64" height="4.64"/>
        <rect class="cls-2" x="18.58" y="65.62" width="4.64" height="4.64"/>
        <rect class="cls-2" x="18.58" y="60.98" width="4.64" height="4.64"/>
        <rect class="cls-2" x="18.58" y="56.34" width="4.64" height="4.64"/>
        <rect class="cls-2" x="18.58" y="51.69" width="4.64" height="4.64"/>
        <rect class="cls-2" x="18.58" y="42.4" width="4.64" height="4.64"/>
        <rect class="cls-2" x="18.58" y="28.47" width="4.64" height="4.64"/>
        <rect class="cls-2" x="18.58" y="14.54" width="4.64" height="4.64"/>
        <rect class="cls-2" x="23.22" y="65.62" width="4.64" height="4.64"/>
        <rect class="cls-2" x="23.22" y="56.34" width="4.64" height="4.64"/>
        <rect class="cls-2" x="23.22" y="42.4" width="4.64" height="4.64"/>
        <rect class="cls-2" x="23.22" y="28.47" width="4.64" height="4.64"/>
        <rect class="cls-2" x="23.22" y="14.54" width="4.64" height="4.64"/>
        <rect class="cls-2" x="27.86" y="70.27" width="4.64" height="4.64"/>
        <rect class="cls-2" x="27.86" y="65.62" width="4.64" height="4.64"/>
        <rect class="cls-2" x="27.86" y="60.98" width="4.64" height="4.64"/>
        <rect class="cls-2" x="27.86" y="42.4" width="4.64" height="4.64"/>
        <rect class="cls-2" x="27.86" y="23.83" width="4.64" height="4.64"/>
        <rect class="cls-2" x="27.86" y="19.18" width="4.64" height="4.64"/>
        <rect class="cls-2" x="32.51" y="65.62" width="4.64" height="4.64"/>
        <rect class="cls-1" x="13.93" y="60.98" width="4.64" height="4.64"/>
        <rect class="cls-1" x="23.22" y="60.98" width="4.64" height="4.64"/>
        <g>
          <rect class="cls-2" x="4.64" y="70.27" width="4.64" height="4.64"/>
          <rect class="cls-2" x="4.64" y="65.62" width="4.64" height="4.64"/>
          <rect class="cls-2" x="9.29" y="74.91" width="4.64" height="4.64"/>
          <rect class="cls-2" x="9.29" y="70.27" width="4.64" height="4.64"/>
          <rect class="cls-2" x="9.29" y="65.62" width="4.64" height="4.64"/>
          <rect class="cls-2" x="9.29" y="60.98" width="4.64" height="4.64"/>
          <rect class="cls-2" x="13.93" y="84.2" width="4.64" height="4.64"/>
          <rect class="cls-2" x="13.93" y="74.91" width="4.64" height="4.64"/>
          <rect class="cls-2" x="13.93" y="70.27" width="4.64" height="4.64"/>
          <rect class="cls-2" x="13.93" y="65.62" width="4.64" height="4.64"/>
          <rect class="cls-2" x="13.93" y="60.98" width="4.64" height="4.64"/>
          <rect class="cls-2" x="13.93" y="56.34" width="4.64" height="4.64"/>
          <rect class="cls-2" x="18.58" y="84.2" width="4.64" height="4.64"/>
          <rect class="cls-2" x="18.58" y="79.56" width="4.64" height="4.64"/>
          <rect class="cls-2" x="18.58" y="74.91" width="4.64" height="4.64"/>
          <rect class="cls-2" x="18.58" y="70.27" width="4.64" height="4.64"/>
          <rect class="cls-2" x="18.58" y="65.62" width="4.64" height="4.64"/>
          <rect class="cls-2" x="18.58" y="60.98" width="4.64" height="4.64"/>
          <rect class="cls-2" x="18.58" y="56.34" width="4.64" height="4.64"/>
          <rect class="cls-2" x="18.58" y="51.69" width="4.64" height="4.64"/>
          <rect class="cls-2" x="23.22" y="84.2" width="4.64" height="4.64"/>
          <rect class="cls-2" x="23.22" y="74.91" width="4.64" height="4.64"/>
          <rect class="cls-2" x="23.22" y="70.27" width="4.64" height="4.64"/>
          <rect class="cls-2" x="23.22" y="65.62" width="4.64" height="4.64"/>
          <rect class="cls-2" x="23.22" y="60.98" width="4.64" height="4.64"/>
          <rect class="cls-2" x="23.22" y="56.34" width="4.64" height="4.64"/>
          <rect class="cls-2" x="27.86" y="74.91" width="4.64" height="4.64"/>
          <rect class="cls-2" x="27.86" y="70.27" width="4.64" height="4.64"/>
          <rect class="cls-2" x="27.86" y="65.62" width="4.64" height="4.64"/>
          <rect class="cls-2" x="27.86" y="60.98" width="4.64" height="4.64"/>
          <rect class="cls-2" x="32.51" y="70.27" width="4.64" height="4.64"/>
          <rect class="cls-2" x="32.51" y="65.62" width="4.64" height="4.64"/>
        </g>
      </g>
    </g>
  </g>
</svg>